<svg id="svg" version="1.1" xmlns="http://www.w3.org/2000/svg" xmlns:xlink="http://www.w3.org/1999/xlink" width="400" height="400" viewBox="0, 0, 400,400"><g id="svgg"><path id="path0" d="M190.040 37.123 C 82.074 43.760,12.686 156.296,53.605 258.398 C 82.505 330.512,155.711 371.477,230.469 357.368 C 335.403 337.563,391.168 213.417,337.917 118.164 C 308.275 65.142,250.380 33.413,190.040 37.123 M208.789 46.105 C 228.477 47.540,245.523 51.966,263.663 60.352 L 268.146 62.425 269.338 61.046 C 272.799 57.043,278.922 60.599,277.161 65.590 C 276.832 66.522,276.563 67.344,276.563 67.415 C 276.563 67.487,277.397 68.023,278.418 68.607 C 286.953 73.490,300.317 84.427,308.477 93.206 C 358.330 146.836,363.524 225.094,321.356 287.221 C 274.205 356.689,180.605 372.277,113.005 321.919 C 109.343 319.192,109.616 319.285,108.310 320.313 C 103.494 324.101,94.634 316.474,96.124 309.824 L 96.506 308.121 93.468 304.785 C 50.340 257.427,38.830 194.387,62.923 137.500 C 87.885 78.563,146.890 41.593,208.789 46.105 M272.070 61.697 C 271.288 62.016,268.171 65.482,267.321 66.978 C 267.073 67.415,266.033 69.443,265.011 71.484 C 263.989 73.525,262.885 75.611,262.557 76.118 C 261.643 77.536,257.621 86.206,250.120 102.930 C 239.717 126.126,232.100 141.036,230.213 141.895 C 229.304 142.310,229.307 142.318,231.154 144.313 C 232.174 145.415,233.369 146.825,233.811 147.447 C 234.398 148.274,234.807 148.505,235.326 148.306 C 236.413 147.889,235.958 144.808,234.599 143.389 L 233.562 142.306 235.398 139.220 C 238.127 134.633,246.556 117.277,251.923 105.197 C 262.434 81.535,270.037 66.391,270.949 67.303 C 271.130 67.484,269.650 73.387,267.551 80.859 C 256.196 121.275,245.972 148.112,236.597 162.109 C 227.723 175.358,222.746 179.297,214.879 179.297 C 210.814 179.297,210.780 179.127,213.980 174.887 C 215.473 172.908,218.397 168.696,220.477 165.527 C 224.584 159.270,224.535 159.308,226.664 160.754 C 227.845 161.556,228.467 161.712,229.977 161.582 C 232.529 161.363,232.531 160.327,229.982 158.984 C 228.215 158.054,227.609 157.005,228.516 156.445 C 228.730 156.313,228.906 156.532,228.906 156.933 C 228.906 158.737,233.624 160.849,233.915 159.175 C 233.989 158.748,234.321 158.187,234.652 157.929 C 235.035 157.630,235.183 157.085,235.058 156.433 C 234.933 155.775,235.055 155.333,235.400 155.201 C 235.696 155.087,235.938 154.668,235.938 154.269 C 235.938 153.480,234.662 152.589,234.181 153.041 C 234.018 153.195,234.171 152.758,234.521 152.070 C 234.870 151.383,235.156 150.524,235.156 150.162 C 235.156 148.698,223.765 138.135,219.031 135.209 L 217.571 134.307 215.915 136.109 C 215.003 137.100,213.118 138.653,211.724 139.561 C 205.774 143.436,205.801 145.817,211.816 147.844 C 214.233 148.658,218.145 150.341,220.508 151.582 C 225.366 154.135,228.714 155.243,230.573 154.914 C 231.732 154.708,231.710 154.738,230.300 155.279 C 228.925 155.806,228.515 155.804,226.393 155.258 C 224.467 154.762,223.968 154.743,223.728 155.156 C 216.039 168.372,208.908 178.213,206.665 178.706 C 206.007 178.850,205.469 179.020,205.469 179.083 C 205.469 179.146,205.813 179.977,206.235 180.929 C 208.663 186.419,208.737 197.262,206.395 204.420 C 206.057 205.454,205.842 206.359,205.917 206.430 C 206.350 206.839,212.289 204.819,216.636 202.787 C 219.410 201.489,222.502 200.246,223.506 200.023 C 227.486 199.143,228.284 198.085,228.999 192.745 C 229.708 187.446,228.991 182.965,227.185 181.404 C 225.298 179.772,225.286 179.804,229.311 175.529 C 244.869 159.003,254.438 136.361,272.130 74.219 C 272.466 73.037,273.262 70.488,273.898 68.555 C 275.672 63.160,275.700 62.680,274.277 61.944 C 273.622 61.605,273.033 61.339,272.969 61.353 C 272.904 61.367,272.500 61.521,272.070 61.697 M172.656 84.586 C 166.338 86.352,162.489 91.505,161.850 99.051 C 161.502 103.158,162.839 104.479,168.930 106.043 C 173.821 107.299,175.016 106.791,177.148 102.555 C 179.294 98.292,180.036 97.803,183.397 98.437 C 186.285 98.982,191.572 99.175,192.001 98.752 C 192.401 98.356,191.442 94.621,190.417 92.578 C 187.189 86.148,179.480 82.679,172.656 84.586 M183.772 87.084 C 184.641 87.480,185.967 88.365,186.719 89.050 L 188.086 90.296 186.761 89.418 C 185.038 88.276,181.291 86.740,180.199 86.728 C 179.728 86.723,179.218 86.516,179.065 86.269 C 178.670 85.630,181.756 86.164,183.772 87.084 M173.998 91.787 C 175.223 92.253,175.263 92.834,174.151 94.018 C 172.892 95.358,171.270 95.224,170.490 93.715 C 169.396 91.600,171.077 90.677,173.998 91.787 M170.113 97.305 C 172.207 97.833,172.556 98.573,171.303 99.826 C 169.599 101.530,167.188 100.589,167.188 98.220 C 167.188 96.761,167.528 96.654,170.113 97.305 M179.925 101.009 C 179.415 102.338,179.738 103.859,180.859 105.407 C 182.055 107.057,182.311 107.813,181.675 107.813 C 181.188 107.813,179.408 105.652,179.102 104.690 C 178.765 103.628,178.458 103.720,177.539 105.158 C 175.849 107.801,172.078 109.110,168.351 108.346 C 166.787 108.026,166.412 108.044,166.561 108.435 C 167.548 111.006,167.031 113.905,165.349 115.228 L 164.348 116.016 167.623 116.013 C 171.262 116.011,177.459 115.188,181.068 114.228 L 183.425 113.602 185.083 108.873 C 186.475 104.904,186.650 104.094,186.170 103.825 C 185.770 103.602,185.662 103.112,185.809 102.202 C 186.020 100.904,186.013 100.898,184.167 100.645 C 181.245 100.244,180.183 100.335,179.925 101.009 M187.782 103.820 C 187.660 105.277,187.077 108.270,186.486 110.472 C 185.388 114.566,185.423 114.933,186.947 115.392 C 187.685 115.614,187.843 115.333,188.626 112.408 C 189.236 110.126,189.771 108.951,190.450 108.398 L 191.410 107.617 190.636 105.088 C 190.133 103.444,189.996 102.426,190.244 102.178 C 190.935 101.487,190.643 101.172,189.314 101.172 L 188.004 101.172 187.782 103.820 M178.516 116.816 C 175.945 117.292,172.678 117.515,167.885 117.541 C 161.033 117.578,160.948 117.589,159.283 118.652 C 146.960 126.524,144.724 137.811,153.624 147.221 C 154.810 148.475,155.446 149.422,155.166 149.515 C 154.389 149.774,152.090 148.134,150.201 145.974 C 149.231 144.866,148.440 144.219,148.443 144.538 C 148.454 145.616,150.342 157.598,150.954 160.475 C 151.289 162.046,151.563 163.936,151.563 164.674 C 151.563 166.226,151.668 166.269,153.065 165.284 C 155.331 163.684,162.109 160.627,162.109 161.205 C 162.109 161.538,161.393 162.057,155.176 166.229 C 149.317 170.161,149.095 170.447,150.440 172.335 L 151.271 173.503 152.882 171.961 C 154.962 169.970,158.555 167.188,159.045 167.188 C 159.255 167.188,157.921 168.613,156.081 170.355 C 152.606 173.644,151.927 174.656,153.869 173.652 C 163.505 168.669,185.326 168.094,191.534 172.660 L 193.138 173.839 193.802 172.564 C 195.161 169.952,190.523 164.077,182.016 157.638 C 170.188 148.684,165.990 143.201,165.757 136.402 L 165.641 133.008 166.180 135.829 C 167.514 142.812,172.028 148.444,182.587 156.301 C 186.041 158.871,189.515 161.493,190.306 162.127 C 191.097 162.762,191.820 163.281,191.913 163.281 C 192.005 163.281,192.166 161.650,192.271 159.656 C 192.431 156.599,192.780 155.100,194.500 150.091 C 197.980 139.957,197.238 134.775,191.390 128.377 C 189.098 125.869,189.665 125.278,192.436 127.286 C 195.716 129.662,198.052 133.686,198.944 138.499 L 199.446 141.211 200.172 139.343 C 201.364 136.272,201.539 136.880,200.564 140.712 C 200.060 142.691,199.684 144.345,199.727 144.388 C 199.832 144.493,203.901 146.094,204.063 146.094 C 204.133 146.094,204.489 145.313,204.853 144.358 C 205.827 141.810,206.820 140.744,210.334 138.477 C 212.073 137.355,214.052 135.803,214.734 135.027 C 217.521 131.852,216.989 127.994,214.053 130.085 C 212.316 131.322,209.866 132.034,207.470 131.999 L 205.273 131.966 207.523 131.421 C 209.925 130.839,211.390 130.153,212.775 128.964 L 213.636 128.224 211.408 125.789 C 205.571 119.409,203.501 118.425,194.515 117.752 C 190.692 117.466,186.892 116.971,185.921 116.633 C 183.849 115.912,183.333 115.924,178.516 116.816 M145.497 121.690 C 140.229 122.847,136.728 124.535,136.706 125.927 C 136.693 126.749,136.685 126.748,135.936 125.850 C 134.873 124.575,133.480 124.834,133.154 126.367 C 132.423 129.803,132.720 131.266,134.543 133.214 C 135.617 134.363,136.447 135.710,136.732 136.768 C 137.744 140.524,140.239 143.915,141.695 143.512 C 142.414 143.314,142.525 143.087,142.314 142.247 C 142.062 141.243,142.074 141.236,142.999 141.850 C 143.847 142.413,144.064 142.416,145.182 141.883 L 146.424 141.290 146.213 137.149 C 145.916 131.312,147.114 127.945,151.265 122.949 L 152.807 121.094 150.329 121.133 C 148.967 121.155,146.792 121.405,145.497 121.690 M145.572 125.780 C 143.162 128.383,140.684 132.991,140.348 135.495 C 140.010 138.015,139.453 137.821,139.453 135.183 C 139.453 131.090,141.563 127.088,145.053 124.559 C 147.633 122.690,147.885 123.282,145.572 125.780 M126.758 129.273 C 119.711 131.152,113.609 135.387,113.685 138.346 C 113.801 142.827,124.682 149.699,135.547 152.153 C 138.877 152.905,142.990 153.874,144.686 154.307 C 148.377 155.248,148.038 155.576,147.508 151.574 C 147.078 148.322,147.045 148.251,145.610 147.446 C 144.806 146.996,143.740 146.244,143.241 145.775 C 142.642 145.212,141.836 144.922,140.874 144.922 C 139.269 144.922,138.097 143.943,136.675 141.412 C 136.079 140.352,135.415 139.842,133.959 139.324 C 131.624 138.495,131.425 137.772,133.582 137.955 C 134.435 138.027,135.138 137.954,135.145 137.793 C 135.151 137.632,135.156 137.242,135.156 136.927 C 135.156 136.612,134.368 135.467,133.404 134.382 C 131.720 132.485,131.403 131.821,131.164 129.688 C 131.023 128.425,130.221 128.350,126.758 129.273 M124.364 133.603 C 121.721 134.885,118.950 137.341,118.298 138.979 C 118.066 139.562,117.803 139.846,117.714 139.610 C 117.003 137.721,120.820 133.944,124.609 132.787 C 126.745 132.135,126.635 132.501,124.364 133.603 M219.388 140.097 C 224.577 143.610,230.439 148.536,231.297 150.104 C 231.942 151.282,221.872 143.902,218.164 140.480 C 215.294 137.830,215.804 137.671,219.388 140.097 M167.690 171.467 C 164.140 172.298,152.408 176.119,152.205 176.510 C 152.134 176.646,152.180 177.139,152.308 177.604 L 152.539 178.451 154.883 177.476 C 166.382 172.692,179.785 172.782,188.316 177.701 C 189.860 178.591,191.144 179.270,191.168 179.210 C 191.193 179.151,191.613 178.531,192.101 177.834 C 195.404 173.119,178.954 168.828,167.690 171.467 M166.992 175.813 C 160.841 176.653,152.927 179.245,152.511 180.557 C 151.627 183.341,164.602 184.977,170.689 182.849 C 173.582 181.838,182.442 177.870,182.957 177.356 C 184.196 176.116,172.825 175.018,166.992 175.813 M142.773 178.858 C 134.955 180.791,126.851 186.932,131.074 187.725 C 135.313 188.520,142.002 185.289,147.249 179.910 L 148.991 178.125 147.249 178.154 C 146.291 178.170,144.277 178.487,142.773 178.858 M183.789 179.355 C 175.456 184.919,163.264 186.868,154.868 183.979 C 152.177 183.053,152.320 182.972,152.791 185.156 C 152.999 186.123,153.236 190.146,153.317 194.095 L 153.463 201.277 156.279 203.395 C 161.560 207.368,165.909 208.968,171.457 208.979 L 174.359 208.984 172.755 207.611 C 169.319 204.670,165.846 199.048,164.620 194.441 C 163.765 191.231,164.011 190.539,164.996 193.381 C 168.058 202.210,173.459 206.894,182.045 208.166 C 188.275 209.089,189.978 208.189,191.575 203.136 C 194.792 192.951,193.514 182.811,188.660 180.014 C 185.755 178.340,185.384 178.290,183.789 179.355 M194.464 178.898 C 192.729 179.422,192.600 179.611,193.181 180.777 C 196.116 186.660,195.727 199.641,192.397 206.914 L 191.436 209.015 192.495 209.466 C 194.237 210.206,199.585 210.069,201.109 209.244 C 205.911 206.644,207.806 187.366,203.892 180.930 C 202.593 178.794,198.050 177.815,194.464 178.898 M144.873 184.192 C 139.391 188.699,134.702 190.761,131.377 190.126 C 130.877 190.030,130.469 189.978,130.469 190.009 C 130.469 190.040,130.837 191.114,131.287 192.395 C 132.013 194.460,132.076 195.235,131.840 199.218 C 131.357 207.390,137.093 210.978,144.696 207.259 C 151.116 204.117,152.864 198.469,150.989 186.914 C 149.837 179.815,150.070 179.918,144.873 184.192 M225.387 183.470 C 224.571 186.050,218.521 196.777,218.113 196.368 C 218.033 196.288,218.304 195.241,218.717 194.042 C 220.845 187.857,227.173 177.827,225.387 183.470 M231.095 187.396 C 231.220 189.279,231.148 191.875,230.936 193.164 C 230.467 196.004,230.469 196.008,232.227 194.922 C 235.363 192.984,233.874 195.422,230.044 198.495 C 228.446 199.778,226.918 200.614,225.402 201.036 C 219.770 202.602,217.428 212.550,220.842 220.410 C 223.577 226.706,223.563 226.603,223.251 238.703 L 222.973 249.475 224.215 250.717 C 229.704 256.207,234.370 255.187,233.748 248.633 C 232.688 237.460,233.621 230.216,238.051 215.234 C 241.150 204.753,242.230 191.947,240.316 188.364 C 239.237 186.342,237.656 185.314,234.776 184.760 C 233.588 184.531,232.223 184.260,231.742 184.158 C 230.875 183.973,230.869 184.003,231.095 187.396 M141.016 190.848 C 141.016 191.477,134.740 200.105,134.476 199.840 C 134.033 199.397,136.808 194.403,138.505 192.589 C 140.160 190.819,141.016 190.225,141.016 190.848 M340.154 196.757 C 338.559 197.614,338.149 197.687,337.066 197.309 C 335.398 196.728,333.047 197.872,328.332 201.559 C 326.406 203.066,323.471 205.005,321.812 205.868 C 320.152 206.732,317.862 208.245,316.722 209.231 C 315.323 210.441,312.107 212.262,306.836 214.828 C 296.717 219.755,295.594 220.180,287.695 222.082 L 281.055 223.681 280.554 226.782 C 280.094 229.636,279.417 231.381,277.519 234.614 C 276.209 236.845,278.449 238.938,280.547 237.444 C 281.363 236.863,282.636 236.518,284.708 236.315 C 287.384 236.053,287.775 235.907,288.476 234.914 C 290.627 231.866,293.027 230.694,295.242 231.611 C 296.147 231.986,296.623 231.929,298.067 231.274 C 299.023 230.841,300.195 230.482,300.672 230.477 C 304.362 230.441,313.662 223.713,321.616 215.327 C 325.481 211.252,325.324 211.721,321.128 216.787 C 315.140 224.018,307.348 230.040,301.848 231.687 C 300.294 232.153,298.339 232.876,297.502 233.296 C 296.284 233.906,295.793 233.973,295.042 233.631 C 293.425 232.894,292.693 233.148,291.049 235.016 C 290.171 236.013,289.453 236.958,289.453 237.117 C 289.453 237.559,287.522 238.217,285.352 238.515 C 282.158 238.953,275.967 243.656,267.246 252.270 C 260.602 258.830,258.022 260.545,256.154 259.640 C 254.979 259.071,254.832 259.078,254.104 259.739 C 250.186 263.297,244.323 264.576,237.759 263.306 C 231.787 262.150,228.499 263.381,224.066 268.429 C 220.152 272.885,221.356 274.133,229.460 274.019 C 235.770 273.931,235.724 273.916,239.567 277.276 L 242.221 279.596 246.794 279.857 C 255.629 280.362,262.311 282.224,272.168 286.930 C 278.440 289.924,278.607 290.174,273.145 288.393 C 266.450 286.211,262.930 285.176,259.375 284.345 C 257.549 283.919,255.703 283.462,255.273 283.331 C 254.719 283.161,254.965 283.606,256.122 284.864 C 257.019 285.839,258.748 288.132,259.965 289.961 C 261.861 292.809,262.369 293.321,263.516 293.536 C 264.295 293.682,265.439 294.371,266.249 295.182 C 267.586 296.519,267.734 296.568,269.857 296.387 C 272.581 296.155,273.612 296.512,274.287 297.921 C 274.681 298.743,275.179 299.071,276.312 299.255 C 277.936 299.519,278.500 300.087,278.510 301.465 C 278.513 301.948,278.647 302.358,278.809 302.375 C 278.970 302.393,279.572 302.442,280.148 302.485 C 280.723 302.527,281.528 302.865,281.936 303.234 C 282.930 304.134,283.013 304.114,284.936 302.539 C 287.444 300.484,288.771 300.130,290.188 301.139 L 291.335 301.955 292.249 300.832 C 292.752 300.214,293.457 299.169,293.816 298.510 C 294.287 297.645,294.829 297.258,295.769 297.114 C 296.485 297.004,299.355 296.545,302.148 296.095 C 304.941 295.644,307.754 295.198,308.398 295.103 C 309.043 295.009,307.757 295.549,305.540 296.303 C 303.323 297.058,300.187 297.881,298.570 298.132 L 295.629 298.589 294.092 300.852 C 292.479 303.228,291.044 304.021,289.881 303.180 C 288.583 302.241,288.241 302.305,286.430 303.816 C 284.014 305.834,282.573 306.151,280.612 305.100 C 279.788 304.658,278.750 304.297,278.307 304.297 C 277.208 304.297,276.563 303.566,276.563 302.321 C 276.563 301.415,276.352 301.239,274.902 300.934 C 273.487 300.637,273.187 300.399,272.868 299.316 C 272.497 298.056,272.476 298.047,270.011 298.047 C 267.195 298.047,266.259 297.670,264.784 295.941 C 263.282 294.181,263.106 294.849,264.427 297.297 C 265.723 299.698,267.351 303.873,267.092 304.132 C 266.997 304.227,266.349 303.204,265.650 301.859 C 263.419 297.563,256.391 287.378,254.136 285.170 L 251.955 283.036 247.123 282.571 C 241.732 282.051,240.879 281.727,237.171 278.790 C 234.940 277.024,234.531 276.843,233.069 276.977 C 229.924 277.265,223.610 276.927,221.644 276.364 C 220.551 276.052,217.738 275.624,215.394 275.415 C 211.315 275.050,207.669 274.154,207.204 273.401 C 206.741 272.652,205.649 273.153,200.854 276.311 C 194.586 280.440,194.665 280.355,188.441 289.648 C 182.842 298.008,182.357 298.993,182.846 301.008 C 183.051 301.850,183.330 304.824,183.467 307.617 L 183.716 312.695 185.120 314.343 C 186.348 315.784,186.727 315.992,188.154 316.003 C 190.184 316.019,191.669 317.185,193.278 320.026 C 195.130 323.296,195.046 323.263,202.734 323.741 C 209.461 324.160,213.789 324.954,216.797 326.321 L 218.164 326.942 216.016 326.732 C 214.834 326.616,213.076 326.422,212.109 326.300 L 210.352 326.079 211.970 327.269 C 212.861 327.925,213.833 328.808,214.130 329.234 C 214.474 329.724,215.452 330.153,216.809 330.406 C 219.011 330.818,222.865 332.344,222.535 332.673 C 222.433 332.775,221.380 332.577,220.195 332.232 C 219.010 331.888,217.277 331.562,216.345 331.508 C 214.959 331.428,214.356 331.124,213.056 329.848 C 210.538 327.377,207.824 326.526,201.367 326.180 C 194.265 325.800,193.181 325.268,190.609 320.898 C 189.431 318.896,189.220 318.766,187.109 318.742 C 186.143 318.731,184.919 318.483,184.389 318.190 C 182.721 317.266,176.013 324.264,173.108 329.957 C 172.052 332.027,171.311 332.556,171.638 331.006 C 171.768 330.388,173.458 312.744,175.392 291.798 C 181.517 225.457,182.616 218.871,188.723 211.915 C 190.176 210.261,190.037 209.989,187.919 210.347 C 185.651 210.730,183.824 213.630,181.638 220.320 C 178.849 228.857,177.865 236.450,173.623 282.227 C 168.292 339.761,167.839 344.923,168.103 345.186 C 168.205 345.288,170.370 345.787,172.914 346.294 C 199.231 351.540,228.518 348.902,253.711 339.016 C 306.554 318.281,344.672 262.972,347.147 203.440 L 347.385 197.699 345.128 196.701 C 342.433 195.509,342.477 195.509,340.154 196.757 M151.783 204.004 C 151.382 204.702,150.465 206.007,149.745 206.903 L 148.435 208.532 151.073 210.285 C 159.669 215.997,163.864 216.879,171.798 214.642 C 173.922 214.043,174.417 213.720,175.404 212.285 L 176.549 210.621 172.747 210.829 C 166.314 211.181,163.118 210.092,156.445 205.278 C 152.323 202.304,152.700 202.407,151.783 204.004 M177.959 212.160 C 177.626 213.314,176.571 218.213,175.616 223.047 C 171.924 241.721,169.495 249.158,165.838 252.974 C 162.423 256.538,160.137 254.721,158.695 247.294 C 158.035 243.892,157.967 243.753,156.968 243.751 C 152.156 243.745,145.035 240.849,141.119 237.305 L 138.785 235.193 138.294 236.835 C 136.921 241.424,134.293 244.627,130.078 246.843 C 123.149 250.488,122.524 251.555,116.935 269.305 C 113.632 279.796,110.361 289.122,109.191 291.384 C 108.343 293.025,109.084 292.992,112.241 291.249 C 115.717 289.331,116.846 289.174,118.194 290.423 C 118.971 291.143,119.576 291.381,120.288 291.247 C 120.839 291.143,122.026 290.946,122.927 290.811 C 126.830 290.223,126.023 288.471,122.017 288.834 C 118.587 289.145,118.538 289.043,120.534 285.719 C 123.103 281.439,126.221 277.765,131.599 272.682 C 136.362 268.180,137.209 267.175,139.416 263.406 C 143.927 255.703,144.915 254.413,148.242 251.873 C 149.961 250.561,152.283 248.605,153.403 247.525 C 154.823 246.158,155.493 245.732,155.614 246.121 C 155.710 246.428,156.076 247.888,156.426 249.364 C 158.106 256.436,161.914 259.074,166.276 256.187 C 170.806 253.189,173.884 244.942,177.932 224.953 C 179.110 219.139,180.428 213.580,180.862 212.599 C 181.771 210.543,181.787 210.585,179.956 210.288 L 178.565 210.062 177.959 212.160 M147.266 210.906 C 147.266 211.103,146.384 212.290,145.307 213.543 C 142.827 216.428,137.101 227.682,137.106 229.662 C 137.116 233.591,149.530 241.314,156.445 241.694 C 163.882 242.102,166.224 240.271,167.964 232.689 C 168.399 230.795,169.270 227.895,169.900 226.244 C 170.561 224.511,170.766 223.653,170.386 224.213 C 167.369 228.658,163.531 232.042,158.841 234.396 C 155.311 236.167,153.471 236.487,156.538 234.795 C 162.854 231.313,168.139 225.635,172.000 218.182 C 173.638 215.020,173.645 215.058,171.592 215.782 C 164.669 218.225,157.248 217.071,150.519 212.505 C 147.470 210.436,147.266 210.336,147.266 210.906 M224.018 219.052 C 224.579 220.282,225.524 221.904,226.118 222.656 C 227.913 224.928,227.941 225.282,226.195 223.633 C 223.557 221.141,222.162 218.009,222.021 214.258 L 221.903 211.133 222.450 213.974 C 222.751 215.536,223.457 217.821,224.018 219.052 M145.726 220.742 C 145.302 222.547,144.716 226.133,144.425 228.711 L 143.895 233.398 143.384 231.055 C 142.533 227.155,143.394 221.554,145.327 218.413 C 146.502 216.505,146.595 217.047,145.726 220.742 M236.180 246.272 C 235.728 246.962,235.575 247.999,235.634 249.971 C 235.763 254.229,234.016 256.059,230.157 255.709 C 226.923 255.416,225.320 254.326,218.713 247.929 C 217.215 246.479,216.406 246.330,216.406 247.503 C 216.406 248.745,217.658 250.405,219.338 251.389 C 220.304 251.955,221.093 252.533,221.091 252.674 C 221.090 252.815,220.928 253.916,220.730 255.123 C 219.710 261.349,222.530 263.193,230.505 261.516 C 233.059 260.978,233.681 260.983,237.070 261.560 C 242.146 262.425,246.384 262.182,249.266 260.861 C 258.025 256.847,258.229 248.743,249.513 251.002 C 246.074 251.893,244.463 251.507,242.453 249.312 C 239.362 245.938,237.113 244.848,236.180 246.272 M239.084 247.606 C 240.849 248.747,242.578 250.246,242.578 250.636 C 242.578 250.754,242.026 250.386,241.351 249.818 C 240.675 249.250,239.269 248.352,238.226 247.823 C 237.182 247.295,236.328 246.777,236.328 246.673 C 236.328 246.187,237.504 246.586,239.084 247.606 M130.475 255.978 C 128.888 259.791,123.867 268.122,120.281 272.894 C 113.714 281.631,118.572 271.875,127.864 257.663 C 131.679 251.830,132.395 251.368,130.475 255.978 M260.768 254.526 C 255.970 257.111,255.371 257.643,256.399 258.406 C 257.032 258.875,257.296 258.868,258.283 258.357 C 259.278 257.842,265.371 252.312,264.844 252.402 C 264.736 252.420,262.902 253.376,260.768 254.526 M225.586 257.945 C 226.260 258.300,226.492 258.569,226.132 258.578 C 225.306 258.599,222.961 256.994,222.730 256.250 C 222.608 255.853,222.850 255.932,223.482 256.495 C 223.994 256.953,224.941 257.605,225.586 257.945 M198.116 291.499 C 199.118 292.719,199.214 292.751,200.459 292.275 C 201.669 291.814,201.812 291.847,202.554 292.765 C 203.568 294.021,204.083 294.003,207.037 292.606 C 209.681 291.355,210.432 291.398,210.788 292.817 C 210.960 293.504,211.294 293.752,212.054 293.756 C 213.418 293.764,213.890 294.122,214.198 295.383 C 214.594 297.000,215.392 297.537,217.852 297.842 C 220.597 298.181,220.855 298.378,222.285 301.211 C 223.699 304.012,224.376 304.485,231.932 307.954 C 241.200 312.210,241.535 312.568,234.382 310.570 C 230.215 309.406,229.660 309.361,230.362 310.244 C 230.872 310.887,231.772 313.671,231.543 313.899 C 231.447 313.996,230.726 313.033,229.940 311.761 C 228.936 310.134,227.962 309.129,226.659 308.374 C 223.184 306.362,221.806 305.019,220.621 302.487 C 219.679 300.473,219.283 300.013,218.335 299.830 C 217.704 299.709,216.665 299.509,216.026 299.385 C 214.757 299.141,212.891 297.211,212.891 296.145 C 212.891 295.731,212.417 295.331,211.654 295.100 C 210.974 294.895,210.227 294.375,209.994 293.945 C 209.761 293.516,209.533 293.097,209.487 293.015 C 209.441 292.934,208.426 293.263,207.232 293.748 C 204.434 294.884,203.181 294.870,202.168 293.693 C 201.473 292.885,201.209 292.810,200.243 293.150 C 199.231 293.506,199.019 293.417,198.025 292.227 C 196.940 290.928,196.902 290.916,195.165 291.354 C 193.003 291.898,192.578 291.906,192.578 291.406 C 192.578 291.191,193.062 291.003,193.652 290.988 C 194.243 290.973,195.078 290.810,195.508 290.625 C 196.773 290.081,197.018 290.163,198.116 291.499 M112.988 293.169 C 111.455 293.924,109.673 294.647,109.027 294.777 C 104.386 295.705,104.928 303.906,109.631 303.906 C 112.761 303.906,114.193 302.587,116.806 297.294 C 118.605 293.652,118.664 293.227,117.491 292.405 C 116.311 291.579,116.167 291.603,112.988 293.169 M114.307 293.957 C 113.919 294.969,111.553 298.438,111.251 298.438 C 111.094 298.438,111.682 297.295,112.558 295.898 C 114.078 293.474,114.800 292.672,114.307 293.957 M101.826 301.252 C 96.312 308.979,95.831 313.403,100.063 317.461 C 105.423 322.598,110.068 319.864,110.940 311.061 C 111.149 308.952,111.430 306.831,111.565 306.348 C 111.795 305.523,111.692 305.469,109.909 305.467 C 106.671 305.465,104.732 303.715,103.985 300.120 L 103.680 298.653 101.826 301.252 M105.823 309.325 C 107.259 311.747,107.227 312.449,105.781 310.262 C 104.326 308.062,103.514 306.373,103.531 305.586 C 103.541 305.129,103.727 305.294,104.063 306.055 C 104.347 306.699,105.139 308.171,105.823 309.325 " stroke="none" fill="#326a35" fill-rule="evenodd"></path><path id="path1" d="M185.352 46.711 C 126.806 52.758,78.455 91.646,59.113 148.242 C 40.616 202.366,53.415 260.583,93.432 304.345 C 96.809 308.037,96.861 308.126,96.433 309.356 C 94.791 314.065,100.071 321.067,105.273 321.079 C 106.364 321.082,106.828 320.897,108.892 319.639 C 109.579 319.220,109.984 319.394,112.173 321.052 C 172.267 366.544,256.488 359.731,306.574 305.326 C 364.274 242.650,363.626 148.827,305.088 90.216 C 296.576 81.694,287.039 74.047,278.613 68.987 C 275.936 67.380,275.958 67.415,276.758 66.016 C 279.565 61.105,272.525 57.058,269.139 61.637 L 268.280 62.799 263.902 60.717 C 239.665 49.197,210.917 44.071,185.352 46.711 M274.926 62.125 C 275.980 63.106,275.987 63.517,274.991 65.842 C 274.254 67.561,273.927 69.009,273.849 70.898 C 273.822 71.548,273.752 71.581,273.438 71.094 C 273.139 70.632,273.058 70.722,273.053 71.518 C 273.050 72.073,272.718 73.567,272.315 74.838 C 270.568 80.357,270.224 81.478,270.110 82.031 C 269.691 84.044,260.373 114.273,257.828 121.875 C 249.087 147.977,240.562 164.066,229.018 176.245 C 225.822 179.617,225.700 179.973,227.325 181.174 C 228.855 182.306,229.292 184.072,229.295 189.141 C 229.299 196.968,228.248 199.130,223.908 200.219 C 222.556 200.558,219.568 201.716,217.268 202.793 C 210.019 206.185,204.998 207.556,205.674 205.957 C 208.360 199.611,208.441 186.445,205.831 180.517 C 204.903 178.409,204.896 178.516,205.968 178.516 C 208.177 178.516,216.607 167.450,222.413 156.931 C 223.751 154.507,223.955 154.310,224.923 154.510 C 225.844 154.700,225.805 154.636,224.609 154.004 C 223.857 153.606,221.748 152.475,219.922 151.490 C 218.096 150.505,214.668 149.061,212.305 148.281 C 206.826 146.473,206.863 146.498,207.145 144.762 C 207.481 142.693,208.706 141.227,211.901 139.071 C 213.467 138.015,215.358 136.438,216.103 135.567 L 217.457 133.985 219.764 135.479 C 222.776 137.430,226.405 140.414,230.247 144.099 C 231.952 145.733,232.778 146.396,232.084 145.571 C 231.390 144.746,230.359 143.673,229.792 143.185 L 228.762 142.299 229.884 141.755 C 231.922 140.767,238.754 127.552,248.846 105.078 C 256.664 87.667,261.109 78.174,263.365 74.067 C 264.179 72.587,264.844 71.137,264.844 70.844 C 264.844 70.552,265.016 70.313,265.227 70.313 C 265.438 70.313,265.729 69.829,265.874 69.238 C 266.141 68.149,268.455 64.907,270.614 62.596 C 272.012 61.099,273.635 60.922,274.926 62.125 M269.358 69.568 C 266.618 73.708,261.598 84.089,253.037 103.320 C 246.536 117.922,240.546 130.449,236.990 136.878 C 233.606 142.995,233.696 142.723,234.798 143.494 C 236.250 144.512,236.537 148.828,235.152 148.828 C 234.863 148.828,234.861 149.057,235.144 149.587 C 235.429 150.119,235.420 150.631,235.115 151.302 C 234.749 152.105,234.811 152.389,235.504 153.082 C 236.473 154.052,236.570 155.010,235.731 155.332 C 235.344 155.480,235.218 155.830,235.375 156.324 C 235.513 156.759,235.370 157.369,235.042 157.743 C 234.726 158.103,234.347 158.794,234.200 159.277 C 234.052 159.761,233.775 160.156,233.583 160.156 C 233.391 160.156,232.919 160.483,232.535 160.883 C 231.184 162.288,228.677 162.295,226.503 160.899 C 225.445 160.220,224.526 159.732,224.461 159.813 C 224.396 159.894,223.220 161.719,221.846 163.867 C 219.364 167.750,215.325 173.549,212.701 177.001 L 211.327 178.806 212.837 179.048 C 217.906 179.858,223.534 177.673,227.566 173.328 C 240.732 159.138,249.477 140.077,262.106 98.047 C 264.269 90.850,266.300 84.170,266.620 83.203 C 267.717 79.885,270.776 68.302,270.602 68.128 C 270.505 68.032,269.946 68.680,269.358 69.568 M182.178 84.809 C 187.587 86.975,191.366 91.775,192.368 97.754 L 192.614 99.219 189.418 99.219 C 187.661 99.219,185.130 99.017,183.794 98.771 C 180.027 98.077,179.653 98.291,177.564 102.336 C 175.197 106.919,173.929 107.472,168.626 106.233 C 161.421 104.550,159.939 101.142,162.934 93.137 C 165.699 85.748,174.744 81.834,182.178 84.809 M170.573 91.667 C 170.096 92.143,170.304 93.262,171.037 94.168 C 171.875 95.203,173.883 94.717,174.644 93.294 C 175.218 92.222,171.503 90.737,170.573 91.667 M167.428 98.340 C 167.988 100.697,169.452 101.225,171.191 99.698 C 172.578 98.480,171.131 97.266,168.294 97.266 C 167.269 97.266,167.195 97.358,167.428 98.340 M185.483 100.659 C 186.283 100.855,186.365 101.046,186.149 102.199 C 185.997 103.012,186.058 103.516,186.310 103.516 C 187.032 103.516,186.754 104.928,185.136 109.488 L 183.553 113.948 179.765 114.784 C 173.803 116.100,164.063 116.969,164.063 116.185 C 164.063 116.063,164.678 115.383,165.430 114.674 C 166.904 113.284,167.188 111.710,166.438 109.094 L 166.079 107.842 169.104 108.075 C 173.670 108.427,176.395 107.223,178.003 104.145 L 178.592 103.016 179.280 104.535 C 179.983 106.089,181.641 107.894,181.641 107.106 C 181.641 106.865,181.320 106.497,180.928 106.287 C 180.536 106.077,180.009 105.216,179.756 104.372 C 178.545 100.331,180.086 99.332,185.483 100.659 M191.016 101.289 C 191.016 101.568,190.827 101.986,190.596 102.217 C 190.296 102.516,190.400 103.351,190.958 105.127 L 191.740 107.617 190.642 108.594 C 189.845 109.302,189.358 110.322,188.871 112.305 C 188.501 113.809,188.137 115.252,188.062 115.513 C 187.912 116.037,185.739 115.471,185.324 114.800 C 185.203 114.603,185.576 112.819,186.154 110.834 C 186.732 108.850,187.284 105.996,187.382 104.492 C 187.480 102.988,187.628 101.538,187.713 101.270 C 187.924 100.596,191.016 100.614,191.016 101.289 M186.719 116.587 C 187.901 116.924,191.596 117.343,194.935 117.517 C 203.134 117.946,206.215 119.518,212.142 126.299 L 213.790 128.184 212.831 129.144 C 212.303 129.672,210.826 130.542,209.549 131.077 C 207.381 131.986,207.330 132.035,208.789 131.816 C 210.837 131.509,212.389 130.919,214.042 129.820 C 215.294 128.988,215.438 128.970,216.093 129.562 C 218.175 131.447,216.037 135.007,210.742 138.470 C 206.955 140.947,206.043 141.901,205.093 144.379 C 204.284 146.492,204.178 146.517,201.302 145.285 C 199.410 144.474,199.282 143.944,200.207 140.757 C 200.333 140.321,200.233 140.385,199.952 140.918 C 199.239 142.275,198.828 141.966,198.828 140.074 C 198.828 136.136,196.553 131.266,193.381 128.414 C 190.540 125.860,189.357 125.712,191.585 128.189 C 197.439 134.700,198.251 140.003,194.882 149.708 C 192.988 155.160,192.800 156.019,192.653 159.855 L 192.492 164.047 190.289 162.372 C 189.077 161.451,185.633 158.866,182.635 156.628 C 172.845 149.318,169.053 145.090,166.551 138.693 L 166.007 137.305 166.237 138.867 C 166.964 143.809,172.043 149.758,182.009 157.340 C 190.997 164.179,195.299 169.653,193.982 172.576 L 193.287 174.117 191.340 172.807 C 184.575 168.255,163.330 168.948,153.478 174.043 C 151.884 174.867,152.048 174.132,153.906 172.116 C 156.087 169.750,155.854 169.524,153.425 171.649 C 150.989 173.780,151.194 173.751,150.087 172.126 C 148.911 170.398,149.189 169.864,152.284 167.925 C 156.164 165.493,161.006 162.047,160.813 161.855 C 160.557 161.599,156.461 163.487,153.912 165.036 C 151.096 166.746,151.172 166.756,151.172 164.668 C 151.172 163.712,150.826 161.120,150.404 158.907 C 149.696 155.196,148.785 149.152,148.301 144.947 L 148.102 143.215 150.264 145.642 C 152.136 147.743,154.048 149.219,154.900 149.219 C 155.038 149.219,154.323 148.299,153.313 147.175 C 144.581 137.463,146.750 126.525,158.984 118.563 L 160.742 117.419 168.164 117.320 C 173.669 117.246,176.544 117.024,179.297 116.460 C 183.264 115.646,183.435 115.649,186.719 116.587 M153.125 120.933 C 153.125 121.060,152.326 122.070,151.349 123.179 C 147.507 127.541,145.591 133.509,146.449 138.440 C 146.683 139.784,146.875 140.999,146.875 141.140 C 146.875 141.797,143.938 142.627,143.206 142.176 C 142.557 141.777,142.493 141.821,142.682 142.542 C 142.908 143.408,141.603 144.059,140.492 143.633 C 139.590 143.287,137.175 139.280,136.678 137.304 C 136.346 135.985,135.617 134.770,134.261 133.273 L 132.320 131.129 132.543 128.743 C 132.894 124.983,134.352 123.360,135.711 125.218 C 136.201 125.888,136.246 125.882,136.666 125.099 C 137.163 124.169,141.917 122.207,145.313 121.530 C 146.494 121.294,147.813 121.032,148.242 120.948 C 149.522 120.696,153.125 120.685,153.125 120.933 M145.469 124.559 C 141.910 127.179,140.034 130.360,139.678 134.375 L 139.453 136.914 140.355 134.180 C 141.370 131.101,143.367 127.775,145.755 125.184 C 147.631 123.149,147.569 123.013,145.469 124.559 M131.252 128.809 C 131.257 130.378,132.165 132.569,133.368 133.914 C 136.081 136.949,136.225 138.187,133.887 138.356 L 132.227 138.477 133.984 139.089 C 135.354 139.566,136.022 140.127,137.006 141.628 C 138.680 144.178,139.650 144.922,141.300 144.922 C 142.228 144.922,143.078 145.269,143.934 145.996 C 144.629 146.587,145.723 147.354,146.365 147.700 C 147.458 148.290,147.548 148.516,147.780 151.256 C 147.916 152.865,148.149 154.499,148.298 154.888 C 148.528 155.487,148.425 155.553,147.624 155.321 C 147.105 155.170,142.952 154.186,138.397 153.133 C 128.741 150.902,123.878 148.928,118.708 145.142 C 116.962 143.863,113.274 139.114,113.289 138.165 C 113.337 135.145,121.657 129.901,128.542 128.550 C 131.100 128.048,131.250 128.063,131.252 128.809 M120.334 135.394 C 119.668 135.954,118.924 136.789,118.681 137.249 C 118.438 137.709,119.058 137.298,120.057 136.334 C 121.057 135.370,121.875 134.535,121.875 134.478 C 121.875 134.204,121.442 134.461,120.334 135.394 M217.578 139.637 C 218.970 141.172,223.586 144.884,226.563 146.862 C 227.959 147.790,229.467 148.832,229.914 149.177 C 230.361 149.522,229.496 148.605,227.991 147.139 C 225.577 144.787,221.284 141.490,217.773 139.293 L 216.602 138.559 217.578 139.637 M184.194 171.305 C 191.081 172.727,194.100 175.238,192.261 178.012 L 191.211 179.596 188.238 177.906 C 180.275 173.381,168.748 172.976,157.617 176.830 C 152.632 178.556,152.181 178.596,152.032 177.325 C 151.922 176.381,152.177 176.235,156.926 174.526 C 168.540 170.346,175.546 169.518,184.194 171.305 M179.883 175.858 C 184.422 176.828,184.365 177.015,178.712 179.695 C 168.184 184.686,163.199 185.352,154.883 182.881 C 144.570 179.817,167.827 173.283,179.883 175.858 M148.679 178.200 C 149.352 179.288,140.661 186.030,136.998 187.262 C 133.189 188.543,128.861 187.919,129.526 186.185 C 130.282 184.216,138.795 179.386,142.969 178.559 C 144.150 178.324,145.469 178.063,145.898 177.979 C 147.465 177.670,148.398 177.745,148.679 178.200 M188.466 179.707 C 191.277 181.250,191.368 181.348,192.201 183.711 C 194.455 190.111,193.152 203.433,189.877 207.478 C 189.266 208.232,188.709 208.370,185.700 208.510 C 177.566 208.891,170.896 205.303,166.857 198.373 C 165.504 196.052,165.313 196.026,166.252 198.292 C 167.315 200.857,170.228 204.922,172.471 206.972 C 175.260 209.521,175.251 209.533,170.801 209.255 C 164.919 208.889,161.410 207.526,156.093 203.545 L 153.113 201.313 152.960 193.918 C 152.875 189.851,152.680 185.700,152.527 184.694 L 152.248 182.865 155.323 183.902 C 162.820 186.429,172.758 185.003,181.836 180.098 C 183.770 179.053,185.404 178.182,185.468 178.161 C 185.531 178.141,186.881 178.837,188.466 179.707 M200.977 178.555 C 204.519 179.521,205.847 182.727,206.139 191.016 C 206.641 205.235,202.576 211.876,194.413 210.169 C 191.186 209.495,191.164 209.456,192.338 206.522 C 194.419 201.320,194.729 199.488,194.696 192.578 C 194.665 186.066,194.614 185.741,192.725 180.040 C 192.252 178.612,197.633 177.644,200.977 178.555 M150.245 180.957 C 150.240 181.655,150.571 183.721,150.981 185.547 C 152.760 193.481,151.883 201.653,148.937 204.599 C 141.081 212.455,130.379 209.084,131.582 199.134 C 131.960 196.008,131.704 194.053,130.507 190.918 L 130.097 189.844 132.201 189.844 C 136.482 189.844,139.134 188.609,144.662 184.045 C 146.344 182.656,148.278 181.122,148.958 180.637 C 149.639 180.151,150.209 179.739,150.225 179.721 C 150.241 179.703,150.250 180.259,150.245 180.957 M224.328 183.530 C 222.322 186.242,218.423 194.335,218.894 194.806 C 218.979 194.890,220.093 193.149,221.371 190.936 C 224.694 185.186,226.560 180.510,224.328 183.530 M236.870 185.003 C 243.053 186.920,243.262 198.129,237.486 218.069 C 234.107 229.734,233.081 238.013,233.890 247.070 C 234.506 253.957,232.808 255.785,227.876 253.546 C 222.765 251.225,222.367 249.990,223.016 238.477 C 223.585 228.384,223.335 226.482,220.666 220.607 C 217.862 214.433,218.120 210.265,221.715 203.726 C 222.630 202.061,223.361 201.172,223.815 201.172 C 226.043 201.172,231.700 197.587,233.149 195.258 L 233.681 194.403 232.248 195.248 C 230.244 196.431,230.136 196.354,230.565 194.043 C 230.775 192.915,230.861 190.127,230.757 187.848 L 230.568 183.703 233.306 184.225 C 234.812 184.512,236.416 184.862,236.870 185.003 M138.883 192.480 C 137.103 194.291,134.196 199.219,134.908 199.219 C 134.975 199.219,136.002 197.856,137.189 196.191 C 141.089 190.721,141.502 189.818,138.883 192.480 M345.024 196.383 L 347.766 197.454 347.504 202.731 C 342.836 296.789,261.823 363.684,173.242 346.624 C 170.449 346.086,168.034 345.520,167.875 345.366 C 167.609 345.108,168.885 330.545,174.214 273.047 C 178.136 230.723,179.425 223.007,184.083 213.952 C 185.743 210.726,186.085 210.409,188.348 210.000 C 190.371 209.636,190.548 210.300,188.913 212.110 C 183.233 218.397,181.594 227.402,176.967 277.734 C 175.674 291.807,174.442 305.078,174.229 307.227 C 174.016 309.375,173.488 315.088,173.056 319.922 C 172.624 324.756,172.174 329.326,172.056 330.078 L 171.842 331.445 172.861 329.779 C 177.194 322.693,182.508 317.136,184.209 317.911 C 184.750 318.158,185.690 318.359,186.298 318.359 C 189.045 318.359,189.607 318.714,191.369 321.557 C 193.592 325.146,194.845 325.758,200.000 325.779 C 206.349 325.806,210.960 327.206,213.488 329.874 C 214.443 330.881,215.085 331.170,216.808 331.367 C 217.984 331.502,219.385 331.708,219.922 331.826 C 220.619 331.978,220.518 331.863,219.569 331.424 C 218.838 331.085,217.413 330.711,216.403 330.591 C 214.908 330.414,214.441 330.163,213.898 329.244 C 213.532 328.623,212.540 327.762,211.694 327.331 C 209.490 326.207,209.757 326.033,213.311 326.277 C 217.240 326.546,217.105 326.403,212.271 325.177 C 209.358 324.438,206.925 324.140,202.350 323.960 C 195.170 323.677,195.374 323.760,193.087 320.192 C 190.866 316.726,190.490 316.434,188.229 316.419 C 186.685 316.408,186.318 316.248,185.738 315.332 C 185.364 314.741,184.722 313.988,184.311 313.659 C 183.704 313.172,183.531 312.404,183.388 309.557 C 183.292 307.631,183.022 304.534,182.789 302.676 C 182.393 299.515,182.421 299.188,183.221 297.598 C 184.565 294.926,188.283 289.041,189.848 287.109 C 190.631 286.143,191.887 284.385,192.639 283.203 C 194.379 280.472,195.930 279.124,201.488 275.516 L 205.976 272.602 208.273 273.633 C 209.997 274.407,211.826 274.796,215.608 275.194 C 218.379 275.485,221.032 275.930,221.503 276.182 C 222.038 276.468,224.749 276.670,228.721 276.719 L 235.083 276.797 237.366 278.689 C 240.558 281.335,242.050 281.878,247.461 282.363 L 252.148 282.783 254.492 285.240 C 256.712 287.567,261.535 294.330,264.609 299.429 C 266.458 302.495,266.401 301.729,264.498 297.942 C 262.802 294.566,263.161 293.911,265.404 296.289 C 266.660 297.620,266.773 297.656,269.685 297.656 L 272.676 297.656 272.917 298.862 C 273.159 300.074,273.770 300.506,275.879 300.957 C 276.756 301.145,276.953 301.398,276.953 302.337 C 276.953 303.601,277.829 304.297,279.419 304.297 C 279.944 304.297,280.592 304.561,280.859 304.883 C 281.749 305.955,283.761 305.589,285.805 303.983 C 288.609 301.778,288.625 301.773,289.673 302.758 C 290.976 303.981,292.176 303.379,293.945 300.612 C 295.110 298.791,295.532 298.438,296.778 298.238 C 299.337 297.828,305.119 296.395,304.939 296.216 C 304.703 295.979,296.107 297.240,295.038 297.668 C 294.565 297.858,293.886 298.592,293.528 299.299 C 293.170 300.007,292.525 300.971,292.095 301.442 L 291.313 302.298 290.232 301.499 C 288.822 300.457,287.323 300.775,285.238 302.560 C 283.555 304.000,282.412 304.250,281.659 303.342 C 281.401 303.032,280.545 302.724,279.755 302.659 C 278.446 302.549,278.309 302.426,278.196 301.247 C 278.065 299.880,277.963 299.805,275.723 299.434 C 274.589 299.246,274.244 298.982,274.032 298.138 C 273.662 296.663,273.251 296.497,269.950 296.490 C 267.135 296.485,267.010 296.443,265.795 295.117 C 264.904 294.144,264.210 293.750,263.385 293.750 C 262.364 293.750,261.961 293.351,259.990 290.388 C 258.759 288.539,257.037 286.251,256.163 285.302 C 255.289 284.354,254.675 283.476,254.799 283.352 C 255.291 282.860,264.623 285.375,275.195 288.847 C 277.312 289.543,270.331 286.201,266.406 284.641 C 258.194 281.376,255.369 280.778,244.253 279.956 C 242.568 279.831,241.906 279.542,240.422 278.281 C 239.435 277.443,237.909 276.211,237.031 275.542 L 235.434 274.326 229.605 274.337 L 223.777 274.348 222.556 273.127 C 221.133 271.704,221.233 271.342,223.907 268.213 C 228.215 263.173,231.326 262.030,237.865 263.082 C 244.501 264.149,249.010 263.323,252.946 260.318 C 254.890 258.835,255.521 258.702,256.406 259.586 C 257.512 260.693,262.224 257.252,268.600 250.681 C 275.135 243.945,282.717 238.290,285.248 238.264 C 287.561 238.239,288.774 237.590,290.310 235.554 C 292.136 233.133,293.367 232.475,294.717 233.198 C 295.584 233.662,295.943 233.667,296.994 233.228 C 297.681 232.942,299.407 232.306,300.831 231.816 C 306.898 229.726,314.429 224.378,318.751 219.090 C 320.330 217.158,320.232 217.219,317.525 219.856 C 312.182 225.060,303.119 230.859,300.330 230.859 C 299.702 230.859,298.491 231.215,297.640 231.649 C 296.184 232.392,296.033 232.400,295.108 231.794 C 293.578 230.791,290.979 231.927,289.229 234.363 C 287.901 236.212,287.896 236.214,285.138 236.446 C 283.246 236.604,281.825 236.986,280.622 237.658 L 278.866 238.639 277.726 237.386 C 276.358 235.883,276.345 235.778,277.356 234.357 C 278.843 232.269,280.018 229.107,280.290 226.459 C 280.618 223.257,279.856 223.716,288.266 221.662 C 298.064 219.270,311.697 213.158,316.603 208.959 C 317.891 207.856,319.703 206.621,320.629 206.215 C 322.869 205.232,326.953 202.557,330.078 200.026 C 333.304 197.413,334.008 197.120,337.120 197.091 C 339.117 197.072,339.921 196.880,340.831 196.202 C 342.259 195.139,341.785 195.118,345.024 196.383 M156.722 205.185 C 163.446 209.892,164.749 210.352,171.368 210.352 L 176.915 210.352 176.284 211.328 C 174.678 213.811,174.333 214.080,171.680 214.924 C 164.766 217.123,159.839 216.198,152.302 211.284 L 148.063 208.519 149.564 206.701 C 150.389 205.701,151.390 204.312,151.788 203.613 C 152.668 202.071,151.946 201.841,156.722 205.185 M181.961 210.358 C 182.030 210.420,181.725 211.177,181.285 212.041 C 180.831 212.931,179.471 218.566,178.142 225.067 C 175.685 237.086,174.339 242.264,172.318 247.478 C 167.062 261.032,158.185 261.038,155.644 247.489 L 155.377 246.067 153.372 247.954 C 152.269 248.991,150.023 250.831,148.380 252.042 C 145.231 254.362,143.916 256.100,139.652 263.575 C 138.026 266.426,136.687 267.996,131.569 273.047 C 123.496 281.016,117.167 289.690,119.987 288.923 C 122.533 288.229,124.833 288.195,125.370 288.843 C 126.929 290.721,119.838 292.474,118.164 290.625 C 117.111 289.461,115.776 289.653,112.222 291.480 C 108.368 293.461,108.220 293.376,109.588 289.969 C 111.512 285.180,114.708 275.752,117.377 266.992 C 121.577 253.208,123.580 249.916,129.737 246.681 C 134.112 244.382,138.281 239.117,138.281 235.892 C 138.281 234.763,138.824 234.988,141.269 237.127 C 145.451 240.787,150.080 242.800,155.428 243.285 L 158.396 243.555 158.687 245.884 C 159.422 251.785,161.493 255.199,163.803 254.321 C 167.895 252.766,171.550 242.998,175.215 223.828 C 176.401 217.619,177.665 212.103,178.332 210.220 C 178.493 209.766,181.429 209.878,181.961 210.358 M149.724 211.676 C 156.229 216.538,163.878 217.971,171.077 215.679 C 174.255 214.667,174.230 214.616,172.306 218.182 C 168.873 224.547,165.294 228.914,160.586 232.481 C 157.603 234.741,157.795 234.914,161.082 232.927 C 164.138 231.080,167.197 228.205,169.430 225.080 C 171.681 221.930,171.800 222.144,170.168 226.407 C 169.436 228.319,168.449 231.611,167.973 233.722 C 165.599 244.273,155.675 245.251,142.935 236.191 C 136.481 231.601,135.655 230.085,137.687 226.563 C 138.245 225.596,139.141 223.838,139.677 222.656 C 141.836 217.899,142.691 216.442,144.929 213.696 C 146.214 212.119,147.266 210.677,147.266 210.492 C 147.266 209.930,147.608 210.095,149.724 211.676 M222.274 215.708 C 222.259 216.896,223.793 220.474,224.834 221.680 L 225.846 222.852 224.984 221.551 C 224.510 220.836,223.708 219.078,223.202 217.645 C 222.696 216.212,222.278 215.340,222.274 215.708 M144.978 219.695 C 143.830 222.136,143.379 224.345,143.375 227.539 C 143.370 231.481,143.969 231.948,144.285 228.249 C 144.428 226.569,144.879 223.613,145.285 221.680 C 146.146 217.590,146.102 217.304,144.978 219.695 M239.261 246.309 C 240.410 247.071,242.000 248.414,242.793 249.292 C 244.575 251.264,246.471 251.607,250.043 250.605 C 258.599 248.205,258.074 256.942,249.420 260.992 C 246.132 262.531,243.234 262.758,237.781 261.902 C 233.561 261.241,233.120 261.238,230.032 261.851 C 221.830 263.479,218.642 260.702,220.655 253.685 C 220.963 252.608,220.891 252.445,219.910 252.011 C 217.761 251.059,215.692 248.281,216.183 247.003 C 216.529 246.101,217.561 246.437,219.090 247.949 C 225.316 254.108,227.431 255.469,230.781 255.469 C 234.153 255.469,235.349 254.074,235.359 250.129 C 235.373 245.089,236.201 244.277,239.261 246.309 M263.270 254.521 C 259.851 257.994,257.703 259.267,256.420 258.580 C 254.742 257.682,255.085 257.349,260.896 254.223 C 266.166 251.389,266.332 251.410,263.270 254.521 M128.048 257.756 C 122.532 266.191,115.748 278.173,118.064 275.387 C 122.761 269.738,132.040 254.175,131.207 253.343 C 131.116 253.251,129.694 255.237,128.048 257.756 M117.891 292.266 C 119.940 294.315,114.430 303.435,110.722 304.131 C 104.492 305.300,103.491 296.466,109.610 294.315 C 110.877 293.869,112.615 293.120,113.471 292.651 C 115.185 291.711,117.163 291.538,117.891 292.266 M206.641 292.969 C 203.982 294.373,203.231 294.410,202.663 293.164 C 202.419 292.627,202.060 292.188,201.867 292.188 C 201.475 292.188,201.777 292.820,202.659 293.848 C 203.455 294.774,204.498 294.703,206.972 293.551 C 209.526 292.362,209.644 292.358,209.987 293.457 C 210.318 294.517,210.852 294.908,211.981 294.916 C 212.601 294.920,212.897 295.233,213.084 296.083 C 213.456 297.777,215.236 299.092,217.597 299.417 L 219.601 299.692 220.681 302.099 C 221.811 304.618,223.596 306.493,226.085 307.776 C 227.725 308.621,229.671 310.558,230.633 312.305 C 231.466 313.816,231.081 312.153,230.195 310.413 C 229.429 308.908,229.473 308.900,233.020 309.923 C 239.907 311.907,239.780 311.652,232.227 308.335 C 224.932 305.132,223.430 304.100,222.014 301.317 C 220.742 298.818,219.704 298.061,217.533 298.053 C 215.769 298.045,214.241 296.889,213.928 295.324 C 213.720 294.283,213.531 294.141,212.353 294.141 C 211.216 294.141,210.952 293.963,210.605 292.969 C 210.094 291.502,209.417 291.502,206.641 292.969 M104.398 300.240 C 104.770 303.533,107.310 305.662,110.483 305.339 C 112.063 305.178,112.161 305.223,111.934 306.001 C 111.800 306.460,111.509 308.594,111.286 310.742 C 110.440 318.907,107.255 321.857,102.122 319.229 C 95.545 315.863,95.355 310.029,101.537 301.270 C 103.886 297.941,104.129 297.854,104.398 300.240 M309.354 315.918 L 308.008 317.383 309.473 316.037 C 310.836 314.784,311.117 314.453,310.819 314.453 C 310.754 314.453,310.094 315.112,309.354 315.918 " stroke="none" fill="#fbfbfb" fill-rule="evenodd"></path><path id="path2" d="M198.150 45.983 C 198.744 46.073,199.623 46.071,200.103 45.978 C 200.583 45.885,200.098 45.812,199.023 45.815 C 197.949 45.818,197.556 45.894,198.150 45.983 M89.063 82.227 C 87.462 83.838,86.240 85.156,86.348 85.156 C 86.455 85.156,87.853 83.838,89.453 82.227 C 91.054 80.615,92.275 79.297,92.168 79.297 C 92.061 79.297,90.663 80.615,89.063 82.227 M311.719 83.398 C 312.886 84.580,313.928 85.547,314.036 85.547 C 314.143 85.547,313.276 84.580,312.109 83.398 C 310.942 82.217,309.900 81.250,309.792 81.250 C 309.685 81.250,310.552 82.217,311.719 83.398 M305.469 90.430 C 306.636 91.611,307.678 92.578,307.786 92.578 C 307.893 92.578,307.026 91.611,305.859 90.430 C 304.692 89.248,303.650 88.281,303.542 88.281 C 303.435 88.281,304.302 89.248,305.469 90.430 M165.332 116.285 C 165.708 116.383,166.323 116.383,166.699 116.285 C 167.075 116.187,166.768 116.106,166.016 116.106 C 165.264 116.106,164.956 116.187,165.332 116.285 M228.842 147.783 C 229.311 148.282,229.605 148.780,229.496 148.890 C 229.386 148.999,229.565 149.089,229.894 149.089 C 230.320 149.089,230.187 148.772,229.430 147.982 C 228.847 147.373,228.284 146.875,228.179 146.875 C 228.074 146.875,228.373 147.284,228.842 147.783 M173.735 170.589 C 174.221 170.682,174.924 170.679,175.298 170.581 C 175.671 170.483,175.273 170.407,174.414 170.411 C 173.555 170.415,173.249 170.495,173.735 170.589 M197.363 178.394 C 197.739 178.493,198.354 178.493,198.730 178.394 C 199.106 178.296,198.799 178.216,198.047 178.216 C 197.295 178.216,196.987 178.296,197.363 178.394 M163.188 185.433 C 163.674 185.526,164.377 185.522,164.751 185.425 C 165.124 185.327,164.727 185.250,163.867 185.255 C 163.008 185.259,162.702 185.339,163.188 185.433 M230.958 189.258 C 230.962 190.117,231.042 190.423,231.136 189.937 C 231.229 189.451,231.226 188.748,231.128 188.374 C 231.030 188.001,230.954 188.398,230.958 189.258 M207.938 192.578 C 207.938 193.975,208.008 194.546,208.095 193.848 C 208.182 193.149,208.182 192.007,208.095 191.309 C 208.008 190.610,207.938 191.182,207.938 192.578 M151.688 194.531 C 151.688 195.928,151.758 196.499,151.845 195.801 C 151.932 195.103,151.932 193.960,151.845 193.262 C 151.758 192.563,151.688 193.135,151.688 194.531 M358.711 197.266 C 358.711 198.447,358.784 198.931,358.874 198.340 C 358.963 197.749,358.963 196.782,358.874 196.191 C 358.784 195.601,358.711 196.084,358.711 197.266 M347.364 200.586 C 347.368 201.445,347.448 201.751,347.542 201.265 C 347.635 200.779,347.632 200.076,347.534 199.702 C 347.436 199.329,347.360 199.727,347.364 200.586 M170.410 209.254 C 170.786 209.352,171.401 209.352,171.777 209.254 C 172.153 209.155,171.846 209.075,171.094 209.075 C 170.342 209.075,170.034 209.155,170.410 209.254 M199.707 326.061 C 200.298 326.151,201.265 326.151,201.855 326.061 C 202.446 325.972,201.963 325.898,200.781 325.898 C 199.600 325.898,199.116 325.972,199.707 326.061 " stroke="none" fill="#a7c1ab" fill-rule="evenodd"></path><path id="path3" d="M95.500 89.160 L 91.992 92.773 95.605 89.266 C 98.961 86.008,99.397 85.547,99.113 85.547 C 99.055 85.547,97.429 87.173,95.500 89.160 M314.063 85.669 C 314.063 85.736,314.634 86.308,315.332 86.939 L 316.602 88.086 315.454 86.816 C 314.385 85.633,314.063 85.367,314.063 85.669 M186.328 87.232 C 186.328 87.299,186.899 87.870,187.598 88.501 L 188.867 89.648 187.720 88.379 C 186.650 87.196,186.328 86.930,186.328 87.232 M180.030 105.156 C 180.205 105.628,180.568 106.088,180.838 106.178 C 181.152 106.283,181.088 105.975,180.658 105.319 C 179.840 104.071,179.607 104.011,180.030 105.156 M168.072 116.296 C 168.666 116.386,169.544 116.383,170.025 116.291 C 170.505 116.198,170.020 116.124,168.945 116.127 C 167.871 116.130,167.478 116.206,168.072 116.296 M149.316 120.972 C 149.692 121.071,150.308 121.071,150.684 120.972 C 151.060 120.874,150.752 120.794,150.000 120.794 C 149.248 120.794,148.940 120.874,149.316 120.972 M190.234 127.075 C 190.234 127.143,190.806 127.714,191.504 128.345 L 192.773 129.492 191.626 128.223 C 190.557 127.039,190.234 126.774,190.234 127.075 M165.625 136.133 C 165.625 136.885,165.765 137.500,165.937 137.500 C 166.109 137.500,166.178 136.885,166.090 136.133 C 166.002 135.381,165.861 134.766,165.778 134.766 C 165.694 134.766,165.625 135.381,165.625 136.133 M172.266 149.414 C 172.994 150.166,173.679 150.781,173.786 150.781 C 173.893 150.781,173.385 150.166,172.656 149.414 C 171.927 148.662,171.243 148.047,171.136 148.047 C 171.028 148.047,171.537 148.662,172.266 149.414 M192.294 160.547 C 192.294 161.514,192.370 161.909,192.463 161.426 C 192.556 160.942,192.556 160.151,192.463 159.668 C 192.370 159.185,192.294 159.580,192.294 160.547 M187.891 162.305 C 188.619 163.057,189.304 163.672,189.411 163.672 C 189.518 163.672,189.010 163.057,188.281 162.305 C 187.552 161.553,186.868 160.938,186.761 160.938 C 186.653 160.938,187.162 161.553,187.891 162.305 M157.186 168.643 C 156.564 169.228,155.923 169.668,155.762 169.619 C 155.601 169.571,155.469 169.741,155.469 169.998 C 155.469 170.255,154.996 170.958,154.419 171.561 C 153.842 172.163,153.453 172.656,153.556 172.656 C 153.658 172.656,154.857 171.514,156.220 170.117 C 158.702 167.575,159.314 166.640,157.186 168.643 M176.270 170.582 C 176.646 170.680,177.261 170.680,177.637 170.582 C 178.013 170.484,177.705 170.403,176.953 170.403 C 176.201 170.403,175.894 170.484,176.270 170.582 M229.864 175.098 L 228.320 176.758 229.980 175.214 C 231.524 173.778,231.820 173.438,231.525 173.438 C 231.461 173.438,230.714 174.185,229.864 175.098 M162.598 184.264 C 163.188 184.354,164.155 184.354,164.746 184.264 C 165.337 184.175,164.854 184.101,163.672 184.101 C 162.490 184.101,162.007 184.175,162.598 184.264 M358.715 193.164 C 358.717 194.453,358.790 194.933,358.877 194.231 C 358.964 193.529,358.962 192.475,358.873 191.888 C 358.784 191.301,358.713 191.875,358.715 193.164 M153.259 195.117 C 153.260 196.836,153.329 197.490,153.412 196.572 C 153.494 195.653,153.493 194.247,153.409 193.447 C 153.325 192.647,153.257 193.398,153.259 195.117 M241.518 194.336 C 241.521 195.410,241.597 195.803,241.687 195.209 C 241.776 194.616,241.774 193.737,241.681 193.256 C 241.589 192.776,241.515 193.262,241.518 194.336 M358.711 201.172 C 358.711 202.354,358.784 202.837,358.874 202.246 C 358.963 201.655,358.963 200.688,358.874 200.098 C 358.784 199.507,358.711 199.990,358.711 201.172 M131.349 201.758 C 131.353 202.617,131.433 202.923,131.526 202.437 C 131.620 201.951,131.616 201.248,131.518 200.874 C 131.421 200.501,131.344 200.898,131.349 201.758 M195.801 210.426 C 196.177 210.524,196.792 210.524,197.168 210.426 C 197.544 210.327,197.236 210.247,196.484 210.247 C 195.732 210.247,195.425 210.327,195.801 210.426 M170.219 210.823 C 170.705 210.917,171.408 210.913,171.782 210.815 C 172.155 210.717,171.758 210.641,170.898 210.645 C 170.039 210.650,169.733 210.730,170.219 210.823 M221.875 213.454 C 221.875 214.193,222.010 214.881,222.175 214.983 C 222.340 215.085,222.410 214.480,222.329 213.639 C 222.149 211.750,221.875 211.638,221.875 213.454 M226.172 223.633 C 226.676 224.170,227.155 224.609,227.235 224.609 C 227.559 224.609,225.950 222.680,225.616 222.669 C 225.417 222.662,225.667 223.096,226.172 223.633 M143.598 231.445 C 143.919 232.882,144.143 233.193,144.135 232.194 C 144.131 231.782,143.950 231.182,143.732 230.859 C 143.443 230.431,143.406 230.589,143.598 231.445 M233.320 241.406 C 233.320 242.588,233.393 243.071,233.483 242.480 C 233.572 241.890,233.572 240.923,233.483 240.332 C 233.393 239.741,233.320 240.225,233.320 241.406 M128.495 275.684 L 127.148 277.148 128.613 275.802 C 129.977 274.549,130.258 274.219,129.959 274.219 C 129.894 274.219,129.235 274.878,128.495 275.684 M197.498 291.492 C 198.895 293.119,199.163 293.359,199.581 293.359 C 199.812 293.359,200.000 293.184,200.000 292.969 C 200.000 292.754,199.749 292.578,199.442 292.578 C 199.136 292.578,198.539 292.139,198.117 291.602 C 197.694 291.064,197.215 290.625,197.051 290.625 C 196.888 290.625,197.089 291.015,197.498 291.492 M202.366 293.972 C 202.617 294.275,202.990 294.419,203.195 294.293 C 203.650 294.011,203.312 293.628,202.506 293.510 C 202.035 293.441,202.006 293.538,202.366 293.972 M304.858 307.129 L 303.711 308.398 304.980 307.251 C 305.679 306.620,306.250 306.049,306.250 305.982 C 306.250 305.680,305.928 305.946,304.858 307.129 M301.541 307.715 L 300.195 309.180 301.660 307.834 C 302.466 307.093,303.125 306.434,303.125 306.369 C 303.125 306.070,302.794 306.351,301.541 307.715 M183.294 308.203 C 183.294 308.955,183.374 309.263,183.472 308.887 C 183.571 308.511,183.571 307.896,183.472 307.520 C 183.374 307.144,183.294 307.451,183.294 308.203 M300.171 311.816 L 299.023 313.086 300.293 311.939 C 300.991 311.308,301.563 310.736,301.563 310.669 C 301.563 310.367,301.240 310.633,300.171 311.816 M87.109 311.436 C 87.109 311.495,88.472 312.857,90.137 314.463 L 93.164 317.383 90.244 314.355 C 87.532 311.544,87.109 311.150,87.109 311.436 M187.016 316.292 C 187.502 316.385,188.205 316.382,188.579 316.284 C 188.952 316.186,188.555 316.110,187.695 316.114 C 186.836 316.118,186.530 316.198,187.016 316.292 M181.250 319.336 C 180.301 320.303,179.613 321.094,179.720 321.094 C 179.828 321.094,180.692 320.303,181.641 319.336 C 182.589 318.369,183.278 317.578,183.170 317.578 C 183.063 317.578,182.199 318.369,181.250 319.336 M186.426 318.629 C 186.802 318.727,187.417 318.727,187.793 318.629 C 188.169 318.530,187.861 318.450,187.109 318.450 C 186.357 318.450,186.050 318.530,186.426 318.629 M198.551 360.446 C 200.011 360.522,202.296 360.521,203.630 360.445 C 204.963 360.369,203.770 360.307,200.977 360.308 C 198.184 360.309,197.092 360.371,198.551 360.446 " stroke="none" fill="#cde2d1" fill-rule="evenodd"></path><path id="path4" d="M192.681 36.999 C 193.275 37.089,194.154 37.086,194.634 36.994 C 195.115 36.901,194.629 36.828,193.555 36.830 C 192.480 36.833,192.087 36.909,192.681 36.999 M203.613 36.999 C 204.204 37.088,205.171 37.088,205.762 36.999 C 206.353 36.909,205.869 36.836,204.688 36.836 C 203.506 36.836,203.022 36.909,203.613 36.999 M193.253 45.985 C 193.946 46.071,195.177 46.073,195.987 45.988 C 196.798 45.904,196.230 45.833,194.727 45.831 C 193.223 45.830,192.560 45.899,193.253 45.985 M201.855 45.986 C 202.554 46.072,203.696 46.072,204.395 45.986 C 205.093 45.899,204.521 45.828,203.125 45.828 C 201.729 45.828,201.157 45.899,201.855 45.986 M301.953 86.914 C 302.682 87.666,303.366 88.281,303.474 88.281 C 303.581 88.281,303.073 87.666,302.344 86.914 C 301.615 86.162,300.931 85.547,300.823 85.547 C 300.716 85.547,301.224 86.162,301.953 86.914 M166.888 111.328 C 166.888 112.080,166.968 112.388,167.066 112.012 C 167.164 111.636,167.164 111.021,167.066 110.645 C 166.968 110.269,166.888 110.576,166.888 111.328 M195.410 117.858 C 196.001 117.947,196.968 117.947,197.559 117.858 C 198.149 117.768,197.666 117.695,196.484 117.695 C 195.303 117.695,194.819 117.768,195.410 117.858 M132.520 138.160 C 132.896 138.258,133.511 138.258,133.887 138.160 C 134.263 138.062,133.955 137.981,133.203 137.981 C 132.451 137.981,132.144 138.062,132.520 138.160 M173.438 149.023 C 174.166 149.775,174.851 150.391,174.958 150.391 C 175.065 150.391,174.557 149.775,173.828 149.023 C 173.099 148.271,172.415 147.656,172.308 147.656 C 172.200 147.656,172.709 148.271,173.438 149.023 M228.444 157.117 C 228.330 157.701,228.388 158.087,228.572 157.973 C 228.756 157.859,228.906 157.982,228.906 158.245 C 228.906 158.509,228.988 158.642,229.089 158.542 C 229.189 158.441,229.131 157.841,228.960 157.207 L 228.649 156.055 228.444 157.117 M226.563 174.414 C 225.614 175.381,224.925 176.172,225.033 176.172 C 225.140 176.172,226.004 175.381,226.953 174.414 C 227.902 173.447,228.590 172.656,228.483 172.656 C 228.376 172.656,227.511 173.447,226.563 174.414 M172.550 174.110 C 173.243 174.196,174.474 174.198,175.284 174.113 C 176.095 174.029,175.527 173.958,174.023 173.956 C 172.520 173.955,171.856 174.024,172.550 174.110 M147.436 179.785 L 146.289 181.055 147.559 179.907 C 148.742 178.838,149.008 178.516,148.706 178.516 C 148.639 178.516,148.067 179.087,147.436 179.785 M131.548 190.120 C 132.033 190.213,132.737 190.210,133.110 190.112 C 133.483 190.014,133.086 189.938,132.227 189.942 C 131.367 189.947,131.062 190.027,131.548 190.120 M41.560 197.461 C 41.561 200.469,41.622 201.648,41.697 200.081 C 41.771 198.514,41.770 196.053,41.696 194.612 C 41.621 193.171,41.560 194.453,41.560 197.461 M50.544 197.656 C 50.544 200.557,50.605 201.743,50.680 200.293 C 50.755 198.843,50.755 196.470,50.680 195.020 C 50.605 193.569,50.544 194.756,50.544 197.656 M349.757 197.266 C 349.757 199.736,349.821 200.747,349.898 199.512 C 349.976 198.276,349.976 196.255,349.898 195.020 C 349.821 193.784,349.757 194.795,349.757 197.266 M169.922 202.466 C 169.922 202.533,170.493 203.104,171.191 203.736 L 172.461 204.883 171.314 203.613 C 170.244 202.430,169.922 202.164,169.922 202.466 M148.867 207.576 C 148.184 208.303,148.103 208.578,148.506 208.810 C 148.790 208.975,148.890 208.963,148.727 208.783 C 148.564 208.603,148.814 208.048,149.283 207.549 C 149.752 207.049,150.048 206.641,149.941 206.641 C 149.833 206.641,149.350 207.062,148.867 207.576 M319.689 217.298 C 318.819 218.260,318.782 218.353,319.531 217.698 C 320.068 217.228,320.654 216.848,320.833 216.853 C 321.355 216.867,321.568 216.504,321.180 216.264 C 320.983 216.143,320.312 216.608,319.689 217.298 M163.184 217.073 C 163.667 217.166,164.458 217.166,164.941 217.073 C 165.425 216.979,165.029 216.903,164.063 216.903 C 163.096 216.903,162.700 216.979,163.184 217.073 M316.776 220.215 L 315.430 221.680 316.895 220.334 C 318.258 219.081,318.539 218.750,318.241 218.750 C 318.175 218.750,317.516 219.409,316.776 220.215 M315.604 222.559 L 314.258 224.023 315.723 222.677 C 317.086 221.424,317.367 221.094,317.069 221.094 C 317.004 221.094,316.344 221.753,315.604 222.559 M163.849 229.395 L 162.305 231.055 163.965 229.511 C 165.509 228.075,165.805 227.734,165.509 227.734 C 165.445 227.734,164.698 228.481,163.849 229.395 M276.563 235.804 C 276.563 236.018,277.046 236.618,277.637 237.139 L 278.711 238.086 277.734 236.914 C 277.197 236.270,276.714 235.669,276.660 235.579 C 276.606 235.490,276.563 235.591,276.563 235.804 M222.763 245.703 C 222.763 246.670,222.839 247.065,222.932 246.582 C 223.025 246.099,223.025 245.308,222.932 244.824 C 222.839 244.341,222.763 244.736,222.763 245.703 M154.256 246.789 L 153.320 247.852 154.352 246.944 C 155.121 246.268,155.437 246.169,155.591 246.553 C 155.728 246.895,155.808 246.913,155.829 246.605 C 155.891 245.669,155.168 245.754,154.256 246.789 M246.191 251.441 C 246.567 251.539,247.183 251.539,247.559 251.441 C 247.935 251.343,247.627 251.263,246.875 251.263 C 246.123 251.263,245.815 251.343,246.191 251.441 M265.806 253.613 L 263.867 255.664 265.918 253.726 C 267.824 251.924,268.148 251.563,267.856 251.563 C 267.795 251.563,266.872 252.485,265.806 253.613 M264.847 252.535 C 264.582 252.855,264.165 253.002,263.921 252.863 C 263.676 252.723,263.612 252.758,263.777 252.940 C 263.943 253.122,263.417 253.985,262.608 254.858 C 261.799 255.731,262.147 255.485,263.381 254.310 C 264.615 253.136,265.625 252.125,265.625 252.064 C 265.625 251.797,265.293 251.997,264.847 252.535 M224.316 262.379 C 224.692 262.477,225.308 262.477,225.684 262.379 C 226.060 262.280,225.752 262.200,225.000 262.200 C 224.248 262.200,223.940 262.280,224.316 262.379 M241.699 262.385 C 242.183 262.478,242.974 262.478,243.457 262.385 C 243.940 262.292,243.545 262.216,242.578 262.216 C 241.611 262.216,241.216 262.292,241.699 262.385 M242.285 263.941 C 242.661 264.039,243.276 264.039,243.652 263.941 C 244.028 263.843,243.721 263.763,242.969 263.763 C 242.217 263.763,241.909 263.843,242.285 263.941 M225.098 274.097 C 225.474 274.196,226.089 274.196,226.465 274.097 C 226.841 273.999,226.533 273.919,225.781 273.919 C 225.029 273.919,224.722 273.999,225.098 274.097 M223.735 276.839 C 224.221 276.932,224.924 276.929,225.298 276.831 C 225.671 276.733,225.273 276.657,224.414 276.661 C 223.555 276.665,223.249 276.745,223.735 276.839 M244.829 279.964 C 245.315 280.057,246.018 280.054,246.391 279.956 C 246.765 279.858,246.367 279.782,245.508 279.786 C 244.648 279.790,244.343 279.870,244.829 279.964 M304.468 304.395 L 303.320 305.664 304.590 304.517 C 305.288 303.886,305.859 303.314,305.859 303.247 C 305.859 302.945,305.537 303.211,304.468 304.395 M94.922 306.445 C 95.651 307.197,96.335 307.813,96.442 307.813 C 96.550 307.813,96.041 307.197,95.313 306.445 C 94.584 305.693,93.899 305.078,93.792 305.078 C 93.685 305.078,94.193 305.693,94.922 306.445 M311.896 312.988 L 310.352 314.648 312.012 313.104 C 313.556 311.668,313.851 311.328,313.556 311.328 C 313.492 311.328,312.745 312.075,311.896 312.988 M307.010 317.871 L 305.664 319.336 307.129 317.990 C 308.492 316.737,308.773 316.406,308.475 316.406 C 308.410 316.406,307.751 317.065,307.010 317.871 M197.941 323.719 C 198.634 323.806,199.864 323.807,200.675 323.723 C 201.485 323.638,200.918 323.567,199.414 323.566 C 197.910 323.564,197.247 323.633,197.941 323.719 M198.340 349.118 C 199.897 349.192,202.446 349.192,204.004 349.118 C 205.562 349.044,204.287 348.983,201.172 348.983 C 198.057 348.983,196.782 349.044,198.340 349.118 M198.746 351.461 C 200.097 351.538,202.206 351.537,203.433 351.460 C 204.660 351.383,203.555 351.320,200.977 351.321 C 198.398 351.322,197.395 351.385,198.746 351.461 M208.301 360.035 C 208.677 360.133,209.292 360.133,209.668 360.035 C 210.044 359.937,209.736 359.856,208.984 359.856 C 208.232 359.856,207.925 359.937,208.301 360.035 " stroke="none" fill="#8c9c8e" fill-rule="evenodd"></path></g></svg>