<svg id="svg" version="1.1" xmlns="http://www.w3.org/2000/svg" width="400" height="400" viewBox="0, 0, 400,400">
    <g id="svgg">
        <path id="path0"
              d="M187.109 130.493 C 187.109 130.938,188.159 130.983,188.426 130.550 C 188.532 130.380,188.278 130.215,187.864 130.183 C 187.449 130.152,187.109 130.292,187.109 130.493 M189.258 130.276 C 190.155 130.589,194.531 130.688,194.531 130.396 C 194.531 130.221,193.257 130.092,191.699 130.109 C 190.142 130.126,189.043 130.201,189.258 130.276 M200.390 130.371 C 200.390 130.532,202.646 130.607,205.403 130.537 C 210.348 130.411,210.433 130.423,211.653 131.450 C 213.117 132.682,213.302 132.407,211.932 131.037 C 210.974 130.079,200.392 129.469,200.390 130.371 M185.215 131.886 C 184.710 132.424,184.371 132.939,184.462 133.030 C 184.553 133.121,185.131 132.669,185.746 132.027 C 186.361 131.385,186.700 130.870,186.499 130.883 C 186.298 130.896,185.720 131.347,185.215 131.886 M213.668 133.003 C 213.951 133.344,214.049 134.029,213.905 134.663 C 213.701 135.567,213.731 135.627,214.092 135.030 C 214.587 134.214,214.260 132.422,213.617 132.422 C 213.325 132.422,213.342 132.610,213.668 133.003 M180.859 133.984 C 181.289 134.414,181.641 134.971,181.641 135.221 C 181.641 135.472,181.735 135.583,181.851 135.467 C 182.208 135.110,181.155 133.203,180.601 133.203 C 180.250 133.203,180.335 133.460,180.859 133.984 M217.285 133.787 C 216.579 134.590,216.685 134.954,217.443 134.325 C 217.798 134.030,218.150 133.833,218.224 133.887 C 218.563 134.131,219.141 133.947,219.141 133.594 C 219.141 133.014,217.847 133.149,217.285 133.787 M175.000 134.375 C 175.000 134.864,175.415 134.864,176.172 134.375 C 176.646 134.069,176.590 133.995,175.879 133.990 C 175.396 133.987,175.000 134.160,175.000 134.375 M219.954 134.125 C 220.421 134.527,222.266 134.733,222.266 134.382 C 222.266 134.164,221.709 133.984,221.029 133.984 C 220.348 133.984,219.865 134.048,219.954 134.125 M171.875 135.156 C 171.875 135.646,172.290 135.646,173.047 135.156 C 173.521 134.850,173.465 134.776,172.754 134.772 C 172.271 134.768,171.875 134.941,171.875 135.156 M224.219 135.156 C 224.976 135.646,225.391 135.646,225.391 135.156 C 225.391 134.941,224.995 134.768,224.512 134.772 C 223.801 134.776,223.745 134.850,224.219 135.156 M169.141 135.938 C 169.141 136.427,169.555 136.427,170.313 135.938 C 170.786 135.631,170.730 135.558,170.020 135.553 C 169.536 135.550,169.141 135.723,169.141 135.938 M227.344 135.938 C 228.101 136.427,228.516 136.427,228.516 135.938 C 228.516 135.723,228.120 135.550,227.637 135.553 C 226.926 135.558,226.870 135.631,227.344 135.938 M230.469 136.719 C 231.226 137.208,231.641 137.208,231.641 136.719 C 231.641 136.504,231.245 136.331,230.762 136.334 C 230.051 136.339,229.995 136.413,230.469 136.719 M236.162 138.621 C 237.029 139.464,237.230 139.440,236.881 138.532 C 236.746 138.179,236.360 137.891,236.023 137.891 C 235.516 137.891,235.540 138.017,236.162 138.621 M236.504 143.674 C 236.014 144.017,235.069 146.136,235.301 146.369 C 235.397 146.465,235.591 146.179,235.732 145.735 C 235.873 145.290,236.262 144.653,236.596 144.320 C 237.234 143.681,237.167 143.208,236.504 143.674 M163.751 144.745 C 163.992 145.272,164.357 145.703,164.564 145.703 C 164.775 145.703,164.749 145.473,164.504 145.179 C 164.265 144.891,164.163 144.561,164.278 144.446 C 164.393 144.331,164.223 144.136,163.901 144.012 C 163.411 143.824,163.386 143.944,163.751 144.745 M164.871 146.680 C 164.871 146.895,165.123 147.510,165.430 148.047 C 165.737 148.584,165.988 148.848,165.988 148.633 C 165.988 148.418,165.737 147.803,165.430 147.266 C 165.123 146.729,164.871 146.465,164.871 146.680 M175.586 152.344 C 174.962 152.612,174.936 152.685,175.456 152.707 C 175.814 152.722,176.191 152.954,176.295 153.223 C 176.398 153.491,176.463 153.315,176.440 152.832 C 176.416 152.349,176.390 151.965,176.382 151.981 C 176.374 151.996,176.016 152.159,175.586 152.344 M188.892 155.273 C 189.314 157.065,189.870 157.844,189.590 156.250 C 189.458 155.498,189.185 154.707,188.983 154.492 C 188.753 154.247,188.719 154.538,188.892 155.273 M176.588 160.547 C 176.589 160.869,176.855 161.572,177.179 162.109 L 177.767 163.086 177.508 162.109 C 177.132 160.692,176.586 159.763,176.588 160.547 M177.819 165.068 C 178.171 165.842,178.168 166.247,177.807 166.826 C 177.549 167.240,177.503 167.578,177.705 167.578 C 177.907 167.578,178.179 167.242,178.310 166.830 C 178.593 165.936,178.181 164.063,177.700 164.063 C 177.513 164.063,177.567 164.515,177.819 165.068 M222.305 165.918 L 222.266 167.188 224.512 167.126 L 226.758 167.065 224.820 166.833 C 223.179 166.637,222.841 166.452,222.613 165.625 C 222.365 164.725,222.340 164.748,222.305 165.918 M227.955 165.666 C 228.058 165.832,227.830 166.149,227.450 166.370 C 227.069 166.592,226.934 166.773,227.148 166.773 C 227.576 166.772,228.906 165.846,228.906 165.549 C 228.906 165.448,228.650 165.365,228.337 165.365 C 228.025 165.365,227.853 165.500,227.955 165.666 M180.859 167.245 C 180.859 167.563,181.425 167.725,183.984 168.138 C 184.958 168.295,185.183 168.248,184.766 167.974 C 184.443 167.763,183.598 167.587,182.887 167.584 C 182.176 167.581,181.685 167.432,181.796 167.253 C 181.906 167.074,181.741 166.927,181.428 166.927 C 181.115 166.927,180.859 167.070,180.859 167.245 M218.986 167.253 C 219.096 167.432,218.429 167.581,217.504 167.584 C 216.578 167.587,215.566 167.751,215.255 167.948 C 214.710 168.293,216.923 168.172,219.043 167.742 C 220.016 167.544,220.251 166.927,219.353 166.927 C 219.040 166.927,218.875 167.074,218.986 167.253 M211.328 168.359 L 210.352 168.672 211.426 168.711 C 212.017 168.732,212.500 168.574,212.500 168.359 C 212.500 168.145,212.456 167.986,212.402 168.008 C 212.349 168.029,211.865 168.187,211.328 168.359 M194.998 168.651 C 197.296 168.720,201.163 168.720,203.592 168.651 C 206.021 168.583,204.141 168.526,199.414 168.526 C 194.688 168.526,192.700 168.582,194.998 168.651 M171.530 171.756 C 171.056 172.733,170.736 173.600,170.819 173.684 C 170.903 173.768,171.289 173.131,171.678 172.270 C 172.066 171.408,172.611 170.703,172.888 170.703 C 173.677 170.703,173.856 170.090,173.084 170.032 C 172.626 169.998,172.101 170.580,171.530 171.756 M174.805 170.313 C 175.872 170.771,176.172 170.771,176.172 170.313 C 176.172 170.098,175.688 169.934,175.098 169.949 C 174.146 169.974,174.112 170.015,174.805 170.313 M227.408 170.585 C 227.636 170.860,227.979 170.989,228.169 170.871 C 228.790 170.488,228.534 169.969,227.754 170.028 C 227.182 170.071,227.096 170.209,227.408 170.585 M177.930 171.875 C 177.930 172.520,178.062 173.047,178.223 173.047 C 178.384 173.047,178.516 172.520,178.516 171.875 C 178.516 171.230,178.384 170.703,178.223 170.703 C 178.062 170.703,177.930 171.230,177.930 171.875 M181.096 171.321 C 180.722 172.296,180.812 172.369,181.516 171.665 C 182.018 171.162,182.659 171.049,184.250 171.181 C 185.393 171.276,186.328 171.207,186.328 171.028 C 186.328 170.376,181.352 170.655,181.096 171.321 M189.453 171.094 C 189.453 171.309,189.805 171.484,190.234 171.484 C 190.664 171.484,191.016 171.309,191.016 171.094 C 191.016 170.879,190.664 170.703,190.234 170.703 C 189.805 170.703,189.453 170.879,189.453 171.094 M191.406 170.999 C 191.406 171.162,192.816 171.231,194.539 171.153 C 196.535 171.062,197.868 171.174,198.215 171.462 C 198.587 171.771,198.838 171.784,199.012 171.503 C 199.304 171.031,202.985 170.941,203.268 171.400 C 203.524 171.814,206.641 171.493,206.641 171.053 C 206.641 170.859,203.245 170.703,199.023 170.703 C 194.834 170.703,191.406 170.836,191.406 170.999 M211.718 170.996 C 211.718 171.157,213.283 171.289,215.196 171.289 C 217.108 171.289,218.592 171.157,218.493 170.996 C 218.394 170.835,216.830 170.703,215.016 170.703 C 213.203 170.703,211.719 170.835,211.718 170.996 M219.168 170.898 C 219.168 171.113,219.420 171.729,219.727 172.266 C 220.034 172.803,220.285 173.066,220.285 172.852 C 220.285 172.637,220.034 172.021,219.727 171.484 C 219.420 170.947,219.168 170.684,219.168 170.898 M221.881 171.387 C 221.890 172.393,222.495 173.233,222.826 172.698 C 222.973 172.460,222.895 172.266,222.653 172.266 C 222.391 172.266,222.313 171.950,222.461 171.484 C 222.603 171.036,222.531 170.703,222.292 170.703 C 222.063 170.703,221.878 171.011,221.881 171.387 M220.748 175.711 C 220.724 176.210,220.967 176.882,221.289 177.204 C 221.906 177.822,222.129 177.377,221.522 176.738 C 221.328 176.534,221.085 176.016,220.982 175.586 C 220.816 174.899,220.788 174.914,220.748 175.711 M229.959 176.362 C 230.316 177.112,230.662 177.671,230.727 177.606 C 230.941 177.392,229.914 175.000,229.608 175.000 C 229.444 175.000,229.602 175.613,229.959 176.362 M176.971 176.138 C 176.731 176.587,176.698 176.953,176.898 176.953 C 177.299 176.953,177.853 175.770,177.580 175.497 C 177.485 175.402,177.211 175.690,176.971 176.138 M206.641 177.930 C 206.305 178.335,206.290 178.516,206.593 178.516 C 206.834 178.516,207.031 178.353,207.031 178.154 C 207.031 177.955,207.339 177.711,207.715 177.613 C 208.292 177.462,208.299 177.427,207.763 177.389 C 207.413 177.364,206.908 177.607,206.641 177.930 M168.234 179.120 C 167.316 181.044,167.446 181.371,168.405 179.553 C 168.841 178.727,169.128 177.982,169.044 177.898 C 168.959 177.813,168.595 178.363,168.234 179.120 M176.032 178.918 C 175.655 179.556,175.504 180.078,175.696 180.078 C 176.058 180.078,177.086 178.128,176.850 177.891 C 176.777 177.818,176.408 178.280,176.032 178.918 M189.361 178.293 C 188.989 178.565,188.790 178.894,188.920 179.024 C 189.049 179.154,189.419 178.996,189.741 178.674 C 190.500 177.915,190.237 177.653,189.361 178.293 M205.871 180.295 C 205.865 180.522,206.299 181.303,206.836 182.031 C 207.373 182.759,207.813 183.158,207.813 182.916 C 207.813 182.675,207.581 182.245,207.299 181.961 C 207.016 181.678,206.582 181.094,206.334 180.664 C 206.086 180.234,205.878 180.068,205.871 180.295 M193.750 180.887 C 193.750 181.117,193.486 181.569,193.164 181.892 C 192.842 182.214,192.578 182.675,192.578 182.916 C 192.578 183.158,193.018 182.759,193.555 182.031 C 194.657 180.537,194.683 180.469,194.141 180.469 C 193.926 180.469,193.750 180.657,193.750 180.887 M226.606 184.481 C 227.243 185.706,227.310 185.741,227.240 184.820 C 227.207 184.372,226.948 183.916,226.666 183.808 C 226.257 183.651,226.245 183.787,226.606 184.481 M165.109 186.151 C 164.191 188.075,164.321 188.403,165.280 186.584 C 165.716 185.758,166.003 185.013,165.919 184.929 C 165.834 184.845,165.470 185.394,165.109 186.151 M161.792 193.574 C 160.616 195.996,160.747 196.335,161.959 194.005 C 162.501 192.963,162.878 192.044,162.796 191.963 C 162.714 191.881,162.263 192.606,161.792 193.574 M171.875 192.969 C 171.875 193.184,171.582 193.359,171.224 193.359 C 170.866 193.359,170.677 193.463,170.804 193.590 C 171.130 193.916,172.656 193.382,172.656 192.942 C 172.656 192.742,172.480 192.578,172.266 192.578 C 172.051 192.578,171.875 192.754,171.875 192.969 M237.150 192.773 C 237.150 192.988,238.450 195.713,240.039 198.828 C 241.628 201.943,242.928 204.316,242.928 204.102 C 242.928 203.887,241.628 201.162,240.039 198.047 C 238.450 194.932,237.150 192.559,237.150 192.773 M156.915 204.122 C 156.119 205.729,155.478 207.173,155.488 207.331 C 155.499 207.488,156.213 206.237,157.076 204.550 C 157.938 202.863,158.580 201.419,158.502 201.341 C 158.424 201.263,157.710 202.514,156.915 204.122 M214.384 202.974 C 214.574 204.600,214.705 204.640,214.925 203.140 C 215.019 202.501,214.901 201.909,214.662 201.817 C 214.381 201.709,214.284 202.115,214.384 202.974 M152.798 213.103 C 152.143 214.539,152.268 214.846,152.976 213.540 C 153.306 212.930,153.504 212.358,153.414 212.269 C 153.325 212.179,153.048 212.555,152.798 213.103 M212.109 223.344 C 212.109 223.580,211.825 224.057,211.477 224.405 C 211.129 224.753,210.939 225.132,211.055 225.248 C 211.171 225.364,211.567 224.998,211.936 224.436 C 212.304 223.873,212.494 223.301,212.358 223.165 C 212.221 223.028,212.109 223.109,212.109 223.344 M189.798 226.443 C 190.040 226.915,190.413 227.408,190.627 227.540 C 191.296 227.954,191.052 227.349,190.186 226.449 L 189.357 225.586 189.798 226.443 M192.969 226.675 C 192.969 226.793,193.628 227.586,194.434 228.436 C 195.239 229.287,196.157 230.356,196.473 230.812 C 196.789 231.268,197.215 231.641,197.420 231.641 C 197.625 231.641,197.409 231.232,196.940 230.733 C 196.470 230.233,196.143 229.750,196.213 229.659 C 196.282 229.567,195.580 228.810,194.654 227.977 C 193.727 227.143,192.969 226.557,192.969 226.675 M206.068 227.720 C 205.458 228.357,204.783 228.770,204.567 228.637 C 204.346 228.500,204.297 228.591,204.455 228.846 C 204.608 229.094,204.571 229.297,204.373 229.297 C 203.923 229.297,201.248 231.626,201.688 231.634 C 201.865 231.638,202.239 231.421,202.519 231.152 C 202.800 230.884,203.428 230.400,203.915 230.078 C 204.900 229.426,207.422 227.030,207.422 226.745 C 207.422 226.390,207.165 226.575,206.068 227.720 M209.082 227.993 C 208.384 228.777,207.824 229.699,207.837 230.042 C 207.855 230.489,207.953 230.441,208.184 229.869 C 208.361 229.432,208.799 228.831,209.157 228.534 C 209.748 228.044,210.732 226.560,210.463 226.565 C 210.402 226.566,209.780 227.209,209.082 227.993 M192.967 230.663 C 193.471 231.199,193.969 231.551,194.075 231.446 C 194.265 231.256,192.643 229.688,192.255 229.688 C 192.143 229.688,192.464 230.126,192.967 230.663 M206.308 230.705 C 206.018 231.033,205.858 231.379,205.953 231.473 C 206.047 231.568,206.444 231.293,206.834 230.862 C 207.224 230.431,207.384 230.085,207.189 230.093 C 206.995 230.101,206.598 230.376,206.308 230.705 M195.119 232.424 C 195.509 232.855,195.909 233.127,196.008 233.029 C 196.219 232.817,195.106 231.641,194.694 231.641 C 194.538 231.641,194.729 231.993,195.119 232.424 M200.236 232.096 C 200.346 232.275,200.133 232.422,199.763 232.422 C 199.392 232.422,199.192 232.526,199.320 232.653 C 199.618 232.951,201.172 232.462,201.172 232.070 C 201.172 231.905,200.916 231.771,200.603 231.771 C 200.290 231.771,200.125 231.917,200.236 232.096 M201.855 234.069 C 201.026 235.107,200.990 235.812,201.730 236.551 C 202.578 237.399,202.954 237.218,202.162 236.343 C 201.427 235.531,201.622 234.124,202.401 234.606 C 202.683 234.780,202.750 234.716,202.576 234.435 C 202.423 234.187,202.484 233.984,202.711 233.984 C 202.939 233.984,203.125 233.809,203.125 233.594 C 203.125 232.954,202.585 233.157,201.855 234.069 M197.131 236.816 C 197.230 236.978,197.126 237.109,196.898 237.109 C 196.671 237.109,196.484 237.269,196.484 237.463 C 196.484 237.658,196.836 237.726,197.266 237.613 C 197.695 237.501,198.047 237.243,198.047 237.041 C 198.047 236.838,198.223 236.781,198.438 236.914 C 198.652 237.047,198.828 236.988,198.828 236.783 C 198.828 236.578,198.406 236.436,197.889 236.467 C 197.373 236.498,197.031 236.655,197.131 236.816 M196.367 239.586 C 196.256 239.874,196.302 240.330,196.468 240.599 C 196.671 240.926,196.834 240.754,196.964 240.075 C 197.164 239.027,196.721 238.664,196.367 239.586 M201.409 241.634 C 201.086 242.474,201.120 242.867,201.471 242.349 C 201.629 242.116,202.109 241.726,202.539 241.482 C 203.307 241.047,203.306 241.039,202.483 241.028 C 202.023 241.021,201.539 241.294,201.409 241.634 M199.219 245.508 C 199.486 245.830,199.991 246.073,200.341 246.048 C 200.877 246.010,200.870 245.975,200.293 245.824 C 199.917 245.726,199.609 245.483,199.609 245.284 C 199.609 245.085,199.412 244.922,199.171 244.922 C 198.868 244.922,198.883 245.103,199.219 245.508 M146.875 262.231 C 146.875 262.736,148.999 266.797,149.263 266.797 C 149.412 266.797,148.996 265.786,148.337 264.551 C 147.033 262.104,146.875 261.853,146.875 262.231 M252.078 263.699 C 251.615 264.543,251.365 265.234,251.523 265.234 C 251.828 265.234,253.240 262.485,253.039 262.283 C 252.973 262.218,252.540 262.855,252.078 263.699 M150.052 268.075 C 150.306 268.554,150.837 269.230,151.233 269.577 C 151.629 269.925,151.953 270.408,151.953 270.651 C 151.953 270.895,152.115 271.094,152.312 271.094 C 152.509 271.094,152.966 271.207,153.327 271.346 C 153.905 271.568,153.922 271.500,153.470 270.775 C 153.103 270.188,152.871 270.088,152.656 270.426 C 152.352 270.904,152.150 270.228,152.330 269.336 C 152.373 269.121,152.291 269.063,152.148 269.206 C 151.826 269.528,150.364 268.329,150.604 267.940 C 150.699 267.786,150.510 267.558,150.184 267.433 C 149.685 267.241,149.664 267.342,150.052 268.075 M247.256 269.781 C 246.391 270.563,245.763 271.284,245.862 271.383 C 245.961 271.482,246.679 270.926,247.457 270.147 C 248.236 269.368,249.038 268.834,249.241 268.959 C 249.444 269.084,249.609 269.001,249.609 268.773 C 249.609 268.017,248.848 268.344,247.256 269.781 M159.570 273.241 C 160.564 273.577,163.733 273.716,163.236 273.401 C 162.939 273.213,161.904 273.070,160.938 273.084 C 159.971 273.097,159.355 273.168,159.570 273.241 M236.373 273.401 C 236.042 273.611,236.574 273.664,237.740 273.539 C 238.790 273.426,239.722 273.269,239.811 273.190 C 240.165 272.879,236.880 273.081,236.373 273.401 M184.111 274.121 C 192.882 274.180,207.120 274.180,215.752 274.121 C 224.383 274.062,217.207 274.014,199.805 274.014 C 182.402 274.014,175.340 274.062,184.111 274.121 M1.829 399.083 C 1.034 399.878,2.566 400.000,13.314 400.000 C 22.541 400.000,25.030 399.895,24.902 399.512 C 24.725 398.979,2.348 398.563,1.829 399.083 M382.690 399.080 C 382.181 399.590,382.424 400.000,383.236 400.000 C 383.690 400.000,383.981 399.795,383.895 399.536 C 383.705 398.965,383.052 398.719,382.690 399.080 M386.578 399.099 C 386.138 399.539,386.310 400.000,386.914 400.000 C 387.236 400.000,387.500 399.835,387.500 399.632 C 387.500 399.140,386.890 398.787,386.578 399.099 M389.312 399.099 C 388.872 399.539,389.044 400.000,389.648 400.000 C 389.971 400.000,390.234 399.835,390.234 399.632 C 390.234 399.140,389.624 398.787,389.312 399.099 "
              stroke="none" fill="#5c7454" fill-rule="evenodd"></path>
        <path id="path1" d="" stroke="none" fill="#647454" fill-rule="evenodd"></path>
        <path id="path2"
              d="M187.655 130.781 C 187.204 130.846,186.295 131.461,185.637 132.149 L 184.439 133.398 185.393 137.891 C 185.917 140.361,186.595 143.350,186.899 144.531 C 188.077 149.114,188.672 151.963,188.672 153.029 C 188.672 153.641,188.828 154.308,189.019 154.512 C 189.435 154.956,190.200 159.279,189.914 159.565 C 188.562 160.917,187.347 159.361,186.527 155.228 C 186.191 153.534,185.714 151.709,185.468 151.172 C 185.222 150.635,185.058 149.979,185.104 149.714 C 185.150 149.450,184.679 147.252,184.057 144.831 C 183.436 142.410,182.697 139.375,182.415 138.086 C 181.839 135.445,180.928 133.594,180.206 133.594 C 177.041 133.594,165.009 137.692,164.154 139.062 C 163.512 140.089,163.419 143.743,164.025 144.117 C 164.297 144.286,164.498 144.539,164.471 144.679 C 164.444 144.820,164.795 145.767,165.251 146.784 C 165.706 147.801,166.759 150.654,167.591 153.125 C 168.423 155.596,169.658 159.111,170.335 160.938 C 171.012 162.764,171.661 164.609,171.777 165.039 C 172.143 166.398,172.709 166.797,174.267 166.797 C 175.100 166.797,175.781 166.943,175.781 167.122 C 175.781 167.583,177.271 167.417,177.790 166.898 C 178.062 166.626,178.109 166.052,177.916 165.361 C 177.746 164.754,177.642 164.042,177.686 163.779 C 177.729 163.516,177.494 162.777,177.163 162.138 C 176.833 161.499,176.563 160.523,176.563 159.969 C 176.563 159.414,176.113 157.893,175.564 156.589 C 174.415 153.858,174.444 152.756,175.679 152.303 C 176.160 152.126,176.524 152.107,176.489 152.260 C 176.364 152.800,178.216 158.238,178.684 158.706 C 178.944 158.967,179.161 159.268,179.165 159.375 C 179.222 160.770,179.809 162.471,180.158 162.255 C 180.411 162.099,180.479 162.167,180.323 162.420 C 180.028 162.897,180.771 166.343,181.321 167.050 C 181.994 167.915,185.080 168.083,200.000 168.069 C 219.332 168.050,219.614 168.012,220.104 165.318 C 220.374 163.832,222.468 157.445,223.717 154.297 C 224.217 153.037,224.663 152.504,225.293 152.417 C 226.459 152.255,226.646 151.199,223.638 161.802 C 222.335 166.395,222.430 166.797,224.818 166.797 C 226.764 166.797,228.288 166.205,227.912 165.596 C 227.782 165.386,227.875 165.263,228.118 165.322 C 228.584 165.436,229.095 164.099,232.784 153.125 C 235.391 145.368,235.914 144.073,236.613 143.633 C 237.389 143.145,237.250 139.696,236.426 138.980 C 234.546 137.347,218.055 133.500,217.256 134.508 C 217.059 134.757,215.635 139.971,214.091 146.094 C 210.485 160.401,210.696 159.766,209.547 159.766 C 208.155 159.766,207.989 158.352,208.918 154.392 C 209.359 152.513,210.019 149.658,210.385 148.047 C 210.752 146.436,211.379 144.078,211.780 142.807 C 212.181 141.536,212.587 139.954,212.682 139.291 C 212.778 138.628,213.129 137.218,213.463 136.158 C 214.202 133.806,214.058 133.346,212.088 131.771 L 210.540 130.533 199.508 130.599 C 193.441 130.635,188.107 130.717,187.655 130.781 M172.935 170.726 C 172.229 171.154,171.062 173.447,167.781 180.859 C 163.174 191.269,160.122 197.966,156.922 204.688 C 148.934 221.472,145.944 231.239,144.881 244.019 C 144.116 253.210,146.418 263.605,150.013 267.201 C 150.436 267.623,150.821 268.101,150.869 268.262 C 151.008 268.728,152.101 269.922,152.389 269.922 C 152.534 269.922,153.193 270.428,153.856 271.046 C 156.399 273.422,158.433 273.532,199.805 273.535 C 242.591 273.538,243.180 273.497,246.703 270.249 C 247.725 269.307,248.590 268.798,248.871 268.972 C 249.167 269.155,249.237 269.096,249.061 268.810 C 248.907 268.562,248.926 268.359,249.103 268.359 C 249.280 268.359,249.598 268.021,249.810 267.608 C 250.022 267.194,250.767 265.898,251.465 264.727 C 255.614 257.773,256.157 247.130,253.152 231.641 C 252.739 229.515,249.853 220.261,249.079 218.584 C 248.775 217.923,247.897 215.801,247.129 213.867 C 246.361 211.934,243.816 206.477,241.473 201.742 C 239.131 197.006,237.085 192.727,236.928 192.233 C 236.772 191.739,236.133 190.306,235.509 189.048 C 234.885 187.791,234.375 186.665,234.375 186.546 C 234.375 186.427,233.857 185.231,233.224 183.888 C 232.097 181.497,229.746 175.969,229.528 175.195 C 229.467 174.980,229.202 174.004,228.940 173.026 C 228.677 172.048,228.138 171.046,227.742 170.798 C 226.371 169.942,221.220 171.295,222.464 172.184 C 222.677 172.336,222.887 172.959,222.930 173.569 C 223.026 174.929,224.228 178.165,224.562 177.960 C 224.695 177.878,224.823 178.277,224.844 178.847 C 224.888 179.981,226.438 183.646,227.036 184.028 C 227.242 184.159,227.367 184.335,227.313 184.419 C 227.078 184.786,228.621 188.672,229.003 188.672 C 229.236 188.672,229.323 188.776,229.196 188.903 C 229.070 189.029,229.214 189.836,229.517 190.695 C 229.911 191.811,229.954 192.471,229.669 193.004 C 228.910 194.422,228.064 193.722,227.361 191.093 C 227.114 190.169,226.648 189.311,226.324 189.187 C 226.001 189.063,225.831 188.714,225.947 188.412 C 226.063 188.110,225.810 187.212,225.384 186.417 C 224.958 185.623,224.609 184.745,224.609 184.466 C 224.609 184.188,224.347 183.859,224.026 183.736 C 223.705 183.613,223.544 183.347,223.669 183.145 C 223.793 182.943,223.580 182.302,223.193 181.721 C 222.807 181.140,222.456 180.444,222.413 180.175 C 222.370 179.906,221.985 178.939,221.558 178.027 C 221.131 177.114,220.661 175.670,220.514 174.818 C 220.366 173.966,219.993 172.780,219.684 172.182 L 219.121 171.096 211.612 171.330 C 207.481 171.458,203.982 171.636,203.836 171.726 C 203.689 171.815,203.459 171.709,203.324 171.491 C 203.000 170.967,199.337 170.977,199.012 171.503 C 198.852 171.762,198.592 171.778,198.305 171.546 C 198.049 171.339,194.408 171.212,189.936 171.254 C 180.922 171.338,181.387 171.167,180.301 174.805 C 179.559 177.288,178.386 180.036,176.525 183.648 C 175.901 184.860,175.391 186.065,175.391 186.327 C 175.391 186.588,174.845 187.946,174.178 189.344 C 173.511 190.742,172.927 192.143,172.881 192.458 C 172.780 193.141,171.928 193.736,171.037 193.744 C 170.065 193.753,172.298 187.244,175.174 181.682 C 175.540 180.975,175.740 180.298,175.620 180.177 C 175.500 180.057,175.770 179.361,176.222 178.630 C 176.673 177.900,176.934 177.194,176.801 177.061 C 176.668 176.929,176.826 176.414,177.151 175.919 C 178.011 174.605,178.323 171.253,177.610 170.980 C 176.307 170.480,173.586 170.332,172.935 170.726 M210.380 177.863 C 210.934 177.865,211.071 180.848,210.576 182.149 C 210.328 182.803,210.322 183.260,210.562 183.408 C 210.768 183.535,210.938 184.145,210.938 184.763 C 210.938 185.381,211.130 186.381,211.366 186.986 C 211.602 187.591,211.934 188.965,212.105 190.039 C 212.276 191.113,212.696 193.003,213.039 194.237 C 213.381 195.472,213.753 197.404,213.865 198.530 C 214.097 200.861,214.386 201.952,214.772 201.956 C 215.244 201.962,215.296 210.627,214.846 214.258 C 214.366 218.137,212.617 223.645,211.357 225.247 C 210.912 225.814,210.547 226.450,210.547 226.661 C 210.547 226.872,210.020 227.646,209.375 228.380 C 208.730 229.114,208.203 229.884,208.203 230.092 C 208.203 230.299,208.037 230.469,207.833 230.469 C 207.323 230.469,202.225 234.344,201.820 235.039 C 201.378 235.799,202.679 237.215,203.598 236.975 C 203.982 236.874,204.411 236.979,204.552 237.206 C 204.696 237.440,204.624 237.507,204.386 237.360 C 204.113 237.191,203.869 237.861,203.695 239.253 C 203.528 240.584,203.237 241.406,202.933 241.406 C 202.050 241.406,201.368 242.662,201.368 244.289 C 201.367 245.509,201.203 245.913,200.665 246.019 C 199.468 246.256,198.727 245.306,198.965 243.841 C 199.155 242.667,199.038 242.445,197.866 241.754 C 196.392 240.884,196.007 240.225,196.504 239.421 C 196.690 239.120,196.743 238.477,196.621 237.992 C 196.486 237.453,196.577 237.109,196.856 237.109 C 197.107 237.109,197.192 236.916,197.046 236.680 C 196.870 236.395,197.077 236.409,197.656 236.719 C 198.138 236.976,198.422 237.009,198.287 236.791 C 198.152 236.573,198.256 236.323,198.518 236.236 C 199.230 235.999,197.626 234.134,195.494 232.722 C 186.736 226.921,183.165 211.335,186.931 195.340 C 189.516 184.362,189.723 182.945,189.141 180.231 C 188.846 178.853,188.902 178.560,189.539 178.162 C 190.182 177.760,194.380 177.626,193.986 178.019 C 193.906 178.099,193.978 178.770,194.145 179.511 C 194.384 180.570,194.286 181.066,193.691 181.822 C 193.006 182.693,191.936 186.020,191.865 187.500 C 191.850 187.822,191.491 189.492,191.069 191.211 C 190.646 192.930,190.214 194.896,190.110 195.582 C 190.005 196.267,189.827 196.977,189.713 197.161 C 189.600 197.344,189.411 198.190,189.294 199.040 C 189.176 199.890,188.850 201.553,188.569 202.734 C 187.946 205.348,188.007 212.796,188.671 215.234 C 188.934 216.201,189.203 217.344,189.268 217.773 C 189.446 218.941,191.050 223.157,191.571 223.828 C 191.821 224.150,192.273 224.907,192.575 225.510 C 192.877 226.113,193.876 227.300,194.796 228.147 C 195.715 228.994,196.352 229.688,196.212 229.688 C 196.072 229.688,196.365 230.122,196.864 230.652 C 197.362 231.183,197.902 231.535,198.063 231.436 C 198.224 231.336,198.456 231.517,198.580 231.838 C 199.017 232.978,199.846 232.656,203.320 229.998 C 206.353 227.678,208.418 225.361,208.654 224.015 C 208.728 223.590,209.001 223.066,209.260 222.852 C 209.902 222.319,211.505 216.536,212.107 212.586 C 212.545 209.709,212.509 208.343,211.901 204.688 C 211.812 204.150,211.549 202.311,211.317 200.600 C 211.085 198.889,210.753 197.307,210.580 197.085 C 210.406 196.862,210.151 195.801,210.013 194.727 C 209.476 190.552,207.631 183.357,206.759 182.038 C 205.074 179.490,206.017 177.117,208.527 177.591 C 209.315 177.739,210.149 177.862,210.380 177.863 "
              stroke="none" fill="#607454" fill-rule="evenodd"></path>
        <path id="path3"
              d="M187.655 130.781 C 187.204 130.846,186.295 131.461,185.637 132.149 L 184.439 133.398 185.393 137.891 C 185.917 140.361,186.595 143.350,186.899 144.531 C 188.077 149.114,188.672 151.963,188.672 153.029 C 188.672 153.641,188.828 154.308,189.019 154.512 C 189.435 154.956,190.200 159.279,189.914 159.565 C 188.562 160.917,187.347 159.361,186.527 155.228 C 186.191 153.534,185.714 151.709,185.468 151.172 C 185.222 150.635,185.058 149.979,185.104 149.714 C 185.150 149.450,184.679 147.252,184.057 144.831 C 183.436 142.410,182.697 139.375,182.415 138.086 C 181.839 135.445,180.928 133.594,180.206 133.594 C 177.041 133.594,165.009 137.692,164.154 139.062 C 163.512 140.089,163.419 143.743,164.025 144.117 C 164.297 144.286,164.498 144.539,164.471 144.679 C 164.444 144.820,164.795 145.767,165.251 146.784 C 165.706 147.801,166.759 150.654,167.591 153.125 C 168.423 155.596,169.658 159.111,170.335 160.938 C 171.012 162.764,171.661 164.609,171.777 165.039 C 172.143 166.398,172.709 166.797,174.267 166.797 C 175.100 166.797,175.781 166.943,175.781 167.122 C 175.781 167.583,177.271 167.417,177.790 166.898 C 178.062 166.626,178.109 166.052,177.916 165.361 C 177.746 164.754,177.642 164.042,177.686 163.779 C 177.729 163.516,177.494 162.777,177.163 162.138 C 176.833 161.499,176.563 160.523,176.563 159.969 C 176.563 159.414,176.113 157.893,175.564 156.589 C 174.415 153.858,174.444 152.756,175.679 152.303 C 176.160 152.126,176.524 152.107,176.489 152.260 C 176.364 152.800,178.216 158.238,178.684 158.706 C 178.944 158.967,179.161 159.268,179.165 159.375 C 179.222 160.770,179.809 162.471,180.158 162.255 C 180.411 162.099,180.479 162.167,180.323 162.420 C 180.028 162.897,180.771 166.343,181.321 167.050 C 181.994 167.915,185.080 168.083,200.000 168.069 C 219.332 168.050,219.614 168.012,220.104 165.318 C 220.374 163.832,222.468 157.445,223.717 154.297 C 224.217 153.037,224.663 152.504,225.293 152.417 C 226.459 152.255,226.646 151.199,223.638 161.802 C 222.335 166.395,222.430 166.797,224.818 166.797 C 226.764 166.797,228.288 166.205,227.912 165.596 C 227.782 165.386,227.875 165.263,228.118 165.322 C 228.584 165.436,229.095 164.099,232.784 153.125 C 235.391 145.368,235.914 144.073,236.613 143.633 C 237.389 143.145,237.250 139.696,236.426 138.980 C 234.546 137.347,218.055 133.500,217.256 134.508 C 217.059 134.757,215.635 139.971,214.091 146.094 C 210.485 160.401,210.696 159.766,209.547 159.766 C 208.155 159.766,207.989 158.352,208.918 154.392 C 209.359 152.513,210.019 149.658,210.385 148.047 C 210.752 146.436,211.379 144.078,211.780 142.807 C 212.181 141.536,212.587 139.954,212.682 139.291 C 212.778 138.628,213.129 137.218,213.463 136.158 C 214.202 133.806,214.058 133.346,212.088 131.771 L 210.540 130.533 199.508 130.599 C 193.441 130.635,188.107 130.717,187.655 130.781 M172.935 170.726 C 172.229 171.154,171.062 173.447,167.781 180.859 C 163.174 191.269,160.122 197.966,156.922 204.688 C 148.934 221.472,145.944 231.239,144.881 244.019 C 144.116 253.210,146.418 263.605,150.013 267.201 C 150.436 267.623,150.821 268.101,150.869 268.262 C 151.008 268.728,152.101 269.922,152.389 269.922 C 152.534 269.922,153.193 270.428,153.856 271.046 C 156.399 273.422,158.433 273.532,199.805 273.535 C 242.591 273.538,243.180 273.497,246.703 270.249 C 247.725 269.307,248.590 268.798,248.871 268.972 C 249.167 269.155,249.237 269.096,249.061 268.810 C 248.907 268.562,248.926 268.359,249.103 268.359 C 249.280 268.359,249.598 268.021,249.810 267.608 C 250.022 267.194,250.767 265.898,251.465 264.727 C 255.614 257.773,256.157 247.130,253.152 231.641 C 252.739 229.515,249.853 220.261,249.079 218.584 C 248.775 217.923,247.897 215.801,247.129 213.867 C 246.361 211.934,243.816 206.477,241.473 201.742 C 239.131 197.006,237.085 192.727,236.928 192.233 C 236.772 191.739,236.133 190.306,235.509 189.048 C 234.885 187.791,234.375 186.665,234.375 186.546 C 234.375 186.427,233.857 185.231,233.224 183.888 C 232.097 181.497,229.746 175.969,229.528 175.195 C 229.467 174.980,229.202 174.004,228.940 173.026 C 228.677 172.048,228.138 171.046,227.742 170.798 C 226.371 169.942,221.220 171.295,222.464 172.184 C 222.677 172.336,222.887 172.959,222.930 173.569 C 223.026 174.929,224.228 178.165,224.562 177.960 C 224.695 177.878,224.823 178.277,224.844 178.847 C 224.888 179.981,226.438 183.646,227.036 184.028 C 227.242 184.159,227.367 184.335,227.313 184.419 C 227.078 184.786,228.621 188.672,229.003 188.672 C 229.236 188.672,229.323 188.776,229.196 188.903 C 229.070 189.029,229.214 189.836,229.517 190.695 C 229.911 191.811,229.954 192.471,229.669 193.004 C 228.910 194.422,228.064 193.722,227.361 191.093 C 227.114 190.169,226.648 189.311,226.324 189.187 C 226.001 189.063,225.831 188.714,225.947 188.412 C 226.063 188.110,225.810 187.212,225.384 186.417 C 224.958 185.623,224.609 184.745,224.609 184.466 C 224.609 184.188,224.347 183.859,224.026 183.736 C 223.705 183.613,223.544 183.347,223.669 183.145 C 223.793 182.943,223.580 182.302,223.193 181.721 C 222.807 181.140,222.456 180.444,222.413 180.175 C 222.370 179.906,221.985 178.939,221.558 178.027 C 221.131 177.114,220.661 175.670,220.514 174.818 C 220.366 173.966,219.993 172.780,219.684 172.182 L 219.121 171.096 211.612 171.330 C 207.481 171.458,203.982 171.636,203.836 171.726 C 203.689 171.815,203.459 171.709,203.324 171.491 C 203.000 170.967,199.337 170.977,199.012 171.503 C 198.852 171.762,198.592 171.778,198.305 171.546 C 198.049 171.339,194.408 171.212,189.936 171.254 C 180.922 171.338,181.387 171.167,180.301 174.805 C 179.559 177.288,178.386 180.036,176.525 183.648 C 175.901 184.860,175.391 186.065,175.391 186.327 C 175.391 186.588,174.845 187.946,174.178 189.344 C 173.511 190.742,172.927 192.143,172.881 192.458 C 172.780 193.141,171.928 193.736,171.037 193.744 C 170.065 193.753,172.298 187.244,175.174 181.682 C 175.540 180.975,175.740 180.298,175.620 180.177 C 175.500 180.057,175.770 179.361,176.222 178.630 C 176.673 177.900,176.934 177.194,176.801 177.061 C 176.668 176.929,176.826 176.414,177.151 175.919 C 178.011 174.605,178.323 171.253,177.610 170.980 C 176.307 170.480,173.586 170.332,172.935 170.726 M210.380 177.863 C 210.934 177.865,211.071 180.848,210.576 182.149 C 210.328 182.803,210.322 183.260,210.562 183.408 C 210.768 183.535,210.938 184.145,210.938 184.763 C 210.938 185.381,211.130 186.381,211.366 186.986 C 211.602 187.591,211.934 188.965,212.105 190.039 C 212.276 191.113,212.696 193.003,213.039 194.237 C 213.381 195.472,213.753 197.404,213.865 198.530 C 214.097 200.861,214.386 201.952,214.772 201.956 C 215.244 201.962,215.296 210.627,214.846 214.258 C 214.366 218.137,212.617 223.645,211.357 225.247 C 210.912 225.814,210.547 226.450,210.547 226.661 C 210.547 226.872,210.020 227.646,209.375 228.380 C 208.730 229.114,208.203 229.884,208.203 230.092 C 208.203 230.299,208.037 230.469,207.833 230.469 C 207.323 230.469,202.225 234.344,201.820 235.039 C 201.378 235.799,202.679 237.215,203.598 236.975 C 203.982 236.874,204.411 236.979,204.552 237.206 C 204.696 237.440,204.624 237.507,204.386 237.360 C 204.113 237.191,203.869 237.861,203.695 239.253 C 203.528 240.584,203.237 241.406,202.933 241.406 C 202.050 241.406,201.368 242.662,201.368 244.289 C 201.367 245.509,201.203 245.913,200.665 246.019 C 199.468 246.256,198.727 245.306,198.965 243.841 C 199.155 242.667,199.038 242.445,197.866 241.754 C 196.392 240.884,196.007 240.225,196.504 239.421 C 196.690 239.120,196.743 238.477,196.621 237.992 C 196.486 237.453,196.577 237.109,196.856 237.109 C 197.107 237.109,197.192 236.916,197.046 236.680 C 196.870 236.395,197.077 236.409,197.656 236.719 C 198.138 236.976,198.422 237.009,198.287 236.791 C 198.152 236.573,198.256 236.323,198.518 236.236 C 199.230 235.999,197.626 234.134,195.494 232.722 C 186.736 226.921,183.165 211.335,186.931 195.340 C 189.516 184.362,189.723 182.945,189.141 180.231 C 188.846 178.853,188.902 178.560,189.539 178.162 C 190.182 177.760,194.380 177.626,193.986 178.019 C 193.906 178.099,193.978 178.770,194.145 179.511 C 194.384 180.570,194.286 181.066,193.691 181.822 C 193.006 182.693,191.936 186.020,191.865 187.500 C 191.850 187.822,191.491 189.492,191.069 191.211 C 190.646 192.930,190.214 194.896,190.110 195.582 C 190.005 196.267,189.827 196.977,189.713 197.161 C 189.600 197.344,189.411 198.190,189.294 199.040 C 189.176 199.890,188.850 201.553,188.569 202.734 C 187.946 205.348,188.007 212.796,188.671 215.234 C 188.934 216.201,189.203 217.344,189.268 217.773 C 189.446 218.941,191.050 223.157,191.571 223.828 C 191.821 224.150,192.273 224.907,192.575 225.510 C 192.877 226.113,193.876 227.300,194.796 228.147 C 195.715 228.994,196.352 229.688,196.212 229.688 C 196.072 229.688,196.365 230.122,196.864 230.652 C 197.362 231.183,197.902 231.535,198.063 231.436 C 198.224 231.336,198.456 231.517,198.580 231.838 C 199.017 232.978,199.846 232.656,203.320 229.998 C 206.353 227.678,208.418 225.361,208.654 224.015 C 208.728 223.590,209.001 223.066,209.260 222.852 C 209.902 222.319,211.505 216.536,212.107 212.586 C 212.545 209.709,212.509 208.343,211.901 204.688 C 211.812 204.150,211.549 202.311,211.317 200.600 C 211.085 198.889,210.753 197.307,210.580 197.085 C 210.406 196.862,210.151 195.801,210.013 194.727 C 209.476 190.552,207.631 183.357,206.759 182.038 C 205.074 179.490,206.017 177.117,208.527 177.591 C 209.315 177.739,210.149 177.862,210.380 177.863 "
              stroke="none" fill="#607454" fill-rule="evenodd"></path>
        <path id="path4"
              d="M187.655 130.781 C 187.204 130.846,186.295 131.461,185.637 132.149 L 184.439 133.398 185.393 137.891 C 185.917 140.361,186.595 143.350,186.899 144.531 C 188.077 149.114,188.672 151.963,188.672 153.029 C 188.672 153.641,188.828 154.308,189.019 154.512 C 189.435 154.956,190.200 159.279,189.914 159.565 C 188.562 160.917,187.347 159.361,186.527 155.228 C 186.191 153.534,185.714 151.709,185.468 151.172 C 185.222 150.635,185.058 149.979,185.104 149.714 C 185.150 149.450,184.679 147.252,184.057 144.831 C 183.436 142.410,182.697 139.375,182.415 138.086 C 181.839 135.445,180.928 133.594,180.206 133.594 C 177.041 133.594,165.009 137.692,164.154 139.062 C 163.512 140.089,163.419 143.743,164.025 144.117 C 164.297 144.286,164.498 144.539,164.471 144.679 C 164.444 144.820,164.795 145.767,165.251 146.784 C 165.706 147.801,166.759 150.654,167.591 153.125 C 168.423 155.596,169.658 159.111,170.335 160.938 C 171.012 162.764,171.661 164.609,171.777 165.039 C 172.143 166.398,172.709 166.797,174.267 166.797 C 175.100 166.797,175.781 166.943,175.781 167.122 C 175.781 167.583,177.271 167.417,177.790 166.898 C 178.062 166.626,178.109 166.052,177.916 165.361 C 177.746 164.754,177.642 164.042,177.686 163.779 C 177.729 163.516,177.494 162.777,177.163 162.138 C 176.833 161.499,176.563 160.523,176.563 159.969 C 176.563 159.414,176.113 157.893,175.564 156.589 C 174.415 153.858,174.444 152.756,175.679 152.303 C 176.160 152.126,176.524 152.107,176.489 152.260 C 176.364 152.800,178.216 158.238,178.684 158.706 C 178.944 158.967,179.161 159.268,179.165 159.375 C 179.222 160.770,179.809 162.471,180.158 162.255 C 180.411 162.099,180.479 162.167,180.323 162.420 C 180.028 162.897,180.771 166.343,181.321 167.050 C 181.994 167.915,185.080 168.083,200.000 168.069 C 219.332 168.050,219.614 168.012,220.104 165.318 C 220.374 163.832,222.468 157.445,223.717 154.297 C 224.217 153.037,224.663 152.504,225.293 152.417 C 226.459 152.255,226.646 151.199,223.638 161.802 C 222.335 166.395,222.430 166.797,224.818 166.797 C 226.764 166.797,228.288 166.205,227.912 165.596 C 227.782 165.386,227.875 165.263,228.118 165.322 C 228.584 165.436,229.095 164.099,232.784 153.125 C 235.391 145.368,235.914 144.073,236.613 143.633 C 237.389 143.145,237.250 139.696,236.426 138.980 C 234.546 137.347,218.055 133.500,217.256 134.508 C 217.059 134.757,215.635 139.971,214.091 146.094 C 210.485 160.401,210.696 159.766,209.547 159.766 C 208.155 159.766,207.989 158.352,208.918 154.392 C 209.359 152.513,210.019 149.658,210.385 148.047 C 210.752 146.436,211.379 144.078,211.780 142.807 C 212.181 141.536,212.587 139.954,212.682 139.291 C 212.778 138.628,213.129 137.218,213.463 136.158 C 214.202 133.806,214.058 133.346,212.088 131.771 L 210.540 130.533 199.508 130.599 C 193.441 130.635,188.107 130.717,187.655 130.781 M172.935 170.726 C 172.229 171.154,171.062 173.447,167.781 180.859 C 163.174 191.269,160.122 197.966,156.922 204.688 C 148.934 221.472,145.944 231.239,144.881 244.019 C 144.116 253.210,146.418 263.605,150.013 267.201 C 150.436 267.623,150.821 268.101,150.869 268.262 C 151.008 268.728,152.101 269.922,152.389 269.922 C 152.534 269.922,153.193 270.428,153.856 271.046 C 156.399 273.422,158.433 273.532,199.805 273.535 C 242.591 273.538,243.180 273.497,246.703 270.249 C 247.725 269.307,248.590 268.798,248.871 268.972 C 249.167 269.155,249.237 269.096,249.061 268.810 C 248.907 268.562,248.926 268.359,249.103 268.359 C 249.280 268.359,249.598 268.021,249.810 267.608 C 250.022 267.194,250.767 265.898,251.465 264.727 C 255.614 257.773,256.157 247.130,253.152 231.641 C 252.739 229.515,249.853 220.261,249.079 218.584 C 248.775 217.923,247.897 215.801,247.129 213.867 C 246.361 211.934,243.816 206.477,241.473 201.742 C 239.131 197.006,237.085 192.727,236.928 192.233 C 236.772 191.739,236.133 190.306,235.509 189.048 C 234.885 187.791,234.375 186.665,234.375 186.546 C 234.375 186.427,233.857 185.231,233.224 183.888 C 232.097 181.497,229.746 175.969,229.528 175.195 C 229.467 174.980,229.202 174.004,228.940 173.026 C 228.677 172.048,228.138 171.046,227.742 170.798 C 226.371 169.942,221.220 171.295,222.464 172.184 C 222.677 172.336,222.887 172.959,222.930 173.569 C 223.026 174.929,224.228 178.165,224.562 177.960 C 224.695 177.878,224.823 178.277,224.844 178.847 C 224.888 179.981,226.438 183.646,227.036 184.028 C 227.242 184.159,227.367 184.335,227.313 184.419 C 227.078 184.786,228.621 188.672,229.003 188.672 C 229.236 188.672,229.323 188.776,229.196 188.903 C 229.070 189.029,229.214 189.836,229.517 190.695 C 229.911 191.811,229.954 192.471,229.669 193.004 C 228.910 194.422,228.064 193.722,227.361 191.093 C 227.114 190.169,226.648 189.311,226.324 189.187 C 226.001 189.063,225.831 188.714,225.947 188.412 C 226.063 188.110,225.810 187.212,225.384 186.417 C 224.958 185.623,224.609 184.745,224.609 184.466 C 224.609 184.188,224.347 183.859,224.026 183.736 C 223.705 183.613,223.544 183.347,223.669 183.145 C 223.793 182.943,223.580 182.302,223.193 181.721 C 222.807 181.140,222.456 180.444,222.413 180.175 C 222.370 179.906,221.985 178.939,221.558 178.027 C 221.131 177.114,220.661 175.670,220.514 174.818 C 220.366 173.966,219.993 172.780,219.684 172.182 L 219.121 171.096 211.612 171.330 C 207.481 171.458,203.982 171.636,203.836 171.726 C 203.689 171.815,203.459 171.709,203.324 171.491 C 203.000 170.967,199.337 170.977,199.012 171.503 C 198.852 171.762,198.592 171.778,198.305 171.546 C 198.049 171.339,194.408 171.212,189.936 171.254 C 180.922 171.338,181.387 171.167,180.301 174.805 C 179.559 177.288,178.386 180.036,176.525 183.648 C 175.901 184.860,175.391 186.065,175.391 186.327 C 175.391 186.588,174.845 187.946,174.178 189.344 C 173.511 190.742,172.927 192.143,172.881 192.458 C 172.780 193.141,171.928 193.736,171.037 193.744 C 170.065 193.753,172.298 187.244,175.174 181.682 C 175.540 180.975,175.740 180.298,175.620 180.177 C 175.500 180.057,175.770 179.361,176.222 178.630 C 176.673 177.900,176.934 177.194,176.801 177.061 C 176.668 176.929,176.826 176.414,177.151 175.919 C 178.011 174.605,178.323 171.253,177.610 170.980 C 176.307 170.480,173.586 170.332,172.935 170.726 M210.380 177.863 C 210.934 177.865,211.071 180.848,210.576 182.149 C 210.328 182.803,210.322 183.260,210.562 183.408 C 210.768 183.535,210.938 184.145,210.938 184.763 C 210.938 185.381,211.130 186.381,211.366 186.986 C 211.602 187.591,211.934 188.965,212.105 190.039 C 212.276 191.113,212.696 193.003,213.039 194.237 C 213.381 195.472,213.753 197.404,213.865 198.530 C 214.097 200.861,214.386 201.952,214.772 201.956 C 215.244 201.962,215.296 210.627,214.846 214.258 C 214.366 218.137,212.617 223.645,211.357 225.247 C 210.912 225.814,210.547 226.450,210.547 226.661 C 210.547 226.872,210.020 227.646,209.375 228.380 C 208.730 229.114,208.203 229.884,208.203 230.092 C 208.203 230.299,208.037 230.469,207.833 230.469 C 207.323 230.469,202.225 234.344,201.820 235.039 C 201.378 235.799,202.679 237.215,203.598 236.975 C 203.982 236.874,204.411 236.979,204.552 237.206 C 204.696 237.440,204.624 237.507,204.386 237.360 C 204.113 237.191,203.869 237.861,203.695 239.253 C 203.528 240.584,203.237 241.406,202.933 241.406 C 202.050 241.406,201.368 242.662,201.368 244.289 C 201.367 245.509,201.203 245.913,200.665 246.019 C 199.468 246.256,198.727 245.306,198.965 243.841 C 199.155 242.667,199.038 242.445,197.866 241.754 C 196.392 240.884,196.007 240.225,196.504 239.421 C 196.690 239.120,196.743 238.477,196.621 237.992 C 196.486 237.453,196.577 237.109,196.856 237.109 C 197.107 237.109,197.192 236.916,197.046 236.680 C 196.870 236.395,197.077 236.409,197.656 236.719 C 198.138 236.976,198.422 237.009,198.287 236.791 C 198.152 236.573,198.256 236.323,198.518 236.236 C 199.230 235.999,197.626 234.134,195.494 232.722 C 186.736 226.921,183.165 211.335,186.931 195.340 C 189.516 184.362,189.723 182.945,189.141 180.231 C 188.846 178.853,188.902 178.560,189.539 178.162 C 190.182 177.760,194.380 177.626,193.986 178.019 C 193.906 178.099,193.978 178.770,194.145 179.511 C 194.384 180.570,194.286 181.066,193.691 181.822 C 193.006 182.693,191.936 186.020,191.865 187.500 C 191.850 187.822,191.491 189.492,191.069 191.211 C 190.646 192.930,190.214 194.896,190.110 195.582 C 190.005 196.267,189.827 196.977,189.713 197.161 C 189.600 197.344,189.411 198.190,189.294 199.040 C 189.176 199.890,188.850 201.553,188.569 202.734 C 187.946 205.348,188.007 212.796,188.671 215.234 C 188.934 216.201,189.203 217.344,189.268 217.773 C 189.446 218.941,191.050 223.157,191.571 223.828 C 191.821 224.150,192.273 224.907,192.575 225.510 C 192.877 226.113,193.876 227.300,194.796 228.147 C 195.715 228.994,196.352 229.688,196.212 229.688 C 196.072 229.688,196.365 230.122,196.864 230.652 C 197.362 231.183,197.902 231.535,198.063 231.436 C 198.224 231.336,198.456 231.517,198.580 231.838 C 199.017 232.978,199.846 232.656,203.320 229.998 C 206.353 227.678,208.418 225.361,208.654 224.015 C 208.728 223.590,209.001 223.066,209.260 222.852 C 209.902 222.319,211.505 216.536,212.107 212.586 C 212.545 209.709,212.509 208.343,211.901 204.688 C 211.812 204.150,211.549 202.311,211.317 200.600 C 211.085 198.889,210.753 197.307,210.580 197.085 C 210.406 196.862,210.151 195.801,210.013 194.727 C 209.476 190.552,207.631 183.357,206.759 182.038 C 205.074 179.490,206.017 177.117,208.527 177.591 C 209.315 177.739,210.149 177.862,210.380 177.863 "
              stroke="none" fill="#607454" fill-rule="evenodd"></path>
    </g>
</svg>