<svg id="svg" version="1.1" xmlns="http://www.w3.org/2000/svg" width="400" height="400" viewBox="0, 0, 400,400">
    <g id="svgg">
        <path id="path0"
              d="M169.821 125.963 C 169.443 126.486,168.652 127.154,168.063 127.448 C 167.474 127.742,167.029 128.168,167.073 128.395 C 167.118 128.622,166.204 129.489,165.041 130.322 C 163.879 131.155,162.920 132.035,162.909 132.279 C 162.899 132.523,162.491 132.985,162.002 133.305 C 161.513 133.625,159.799 135.137,158.193 136.663 C 156.587 138.190,155.054 139.442,154.785 139.446 C 154.517 139.450,154.297 139.684,154.297 139.966 C 154.297 140.490,151.962 142.435,151.504 142.292 C 151.364 142.249,151.139 142.654,151.004 143.193 C 150.869 143.732,150.588 144.067,150.379 143.938 C 149.774 143.564,149.916 143.916,151.352 146.345 C 152.095 147.603,152.993 149.292,153.347 150.098 C 153.701 150.903,154.124 151.563,154.286 151.563 C 154.449 151.563,154.883 152.354,155.253 153.320 C 155.622 154.287,156.072 155.078,156.252 155.078 C 156.432 155.078,156.784 155.695,157.032 156.449 C 157.281 157.203,157.710 158.044,157.984 158.319 C 158.259 158.594,158.861 159.603,159.321 160.562 C 159.782 161.520,160.579 163.008,161.094 163.867 C 161.608 164.727,162.414 166.177,162.885 167.090 C 163.823 168.908,165.976 169.573,166.048 168.066 C 166.066 167.690,166.195 165.713,166.334 163.672 C 166.473 161.631,166.574 158.682,166.559 157.120 L 166.532 154.279 167.541 155.167 C 168.095 155.655,169.166 156.670,169.920 157.422 C 170.674 158.174,172.495 159.844,173.966 161.133 C 180.228 166.620,180.783 167.198,180.571 168.010 C 180.428 168.559,180.176 168.711,179.734 168.517 C 179.386 168.365,178.342 168.213,177.413 168.179 C 176.484 168.145,175.583 167.889,175.410 167.610 C 175.082 167.079,172.579 167.292,171.531 167.940 C 170.610 168.509,174.420 171.674,176.054 171.698 C 177.735 171.722,177.922 171.430,176.945 170.303 C 176.022 169.238,175.963 168.750,176.758 168.750 C 177.080 168.750,177.344 168.907,177.344 169.099 C 177.344 170.005,179.718 171.915,181.056 172.086 C 182.455 172.265,182.797 171.069,181.573 170.280 C 180.716 169.727,181.036 167.833,182.031 167.571 C 182.991 167.318,182.975 167.284,181.079 165.591 C 180.018 164.643,178.512 163.252,177.732 162.500 C 176.951 161.748,175.111 160.078,173.641 158.789 C 172.171 157.500,170.285 155.764,169.450 154.930 L 167.930 153.415 171.055 150.438 C 172.773 148.801,176.070 145.703,178.381 143.555 C 180.692 141.406,183.911 138.330,185.533 136.719 C 192.716 129.586,193.380 129.232,193.856 132.288 C 193.918 132.684,194.105 133.228,194.273 133.496 C 194.440 133.765,194.482 133.984,194.365 133.984 C 194.248 133.984,194.498 134.863,194.922 135.938 C 195.345 137.012,195.585 137.891,195.454 137.891 C 195.324 137.891,195.436 138.154,195.703 138.477 C 195.971 138.799,196.058 139.063,195.898 139.063 C 195.738 139.063,195.826 139.326,196.094 139.648 C 196.361 139.971,196.449 140.234,196.289 140.234 C 196.129 140.234,196.217 140.498,196.484 140.820 C 196.752 141.143,196.866 141.406,196.737 141.406 C 196.609 141.406,197.023 142.814,197.657 144.534 C 198.292 146.255,198.815 147.749,198.819 147.855 C 198.824 147.960,198.842 148.091,198.858 148.145 C 198.874 148.198,198.949 148.564,199.023 148.956 C 199.098 149.349,199.289 149.964,199.448 150.323 C 199.607 150.683,199.774 151.108,199.820 151.270 C 199.865 151.431,199.946 151.650,200.000 151.758 C 200.054 151.865,200.126 152.085,200.160 152.246 C 200.195 152.407,200.466 152.979,200.764 153.516 C 201.144 154.203,201.314 156.056,201.336 159.766 C 201.361 163.941,201.478 165.039,201.899 165.039 C 202.435 165.039,202.555 163.955,202.683 157.958 C 202.731 155.716,202.803 155.540,203.809 155.191 C 207.468 153.921,212.532 152.270,212.966 152.204 C 213.247 152.161,213.696 151.989,213.965 151.821 C 214.233 151.654,214.453 151.636,214.453 151.783 C 214.453 151.929,214.717 151.830,215.039 151.563 C 215.361 151.295,215.625 151.207,215.625 151.367 C 215.625 151.527,215.889 151.439,216.211 151.172 C 216.533 150.904,216.797 150.789,216.797 150.916 C 216.797 151.043,219.653 150.164,223.145 148.964 C 226.636 147.763,229.756 146.728,230.078 146.663 C 230.400 146.597,230.708 146.509,230.762 146.465 C 230.815 146.422,231.035 146.343,231.250 146.289 C 231.465 146.235,231.729 146.147,231.836 146.094 C 231.943 146.040,232.207 145.952,232.422 145.898 C 232.637 145.845,232.900 145.757,233.008 145.703 C 233.115 145.649,233.379 145.562,233.594 145.508 C 233.809 145.454,234.028 145.375,234.082 145.332 C 234.136 145.289,234.615 145.175,235.148 145.077 C 235.680 144.979,236.287 144.729,236.496 144.520 C 236.943 144.073,237.911 144.011,237.844 144.434 C 237.819 144.595,237.841 144.858,237.893 145.020 C 237.945 145.181,238.025 145.444,238.071 145.605 C 238.289 146.379,238.785 147.558,239.288 148.498 C 240.073 149.962,239.983 150.600,238.893 151.315 C 238.369 151.657,237.527 152.337,237.020 152.824 C 236.513 153.312,234.651 155.027,232.884 156.635 C 226.765 162.201,221.877 167.059,222.136 167.318 C 222.768 167.950,223.639 167.349,227.277 163.770 C 230.284 160.810,235.370 155.975,239.657 151.998 C 239.987 151.692,239.107 154.299,238.524 155.354 C 238.193 155.954,237.384 157.676,236.728 159.180 C 236.071 160.684,235.101 162.724,234.573 163.713 C 234.044 164.703,233.725 165.626,233.863 165.764 C 234.001 165.902,233.899 166.016,233.636 166.016 C 233.372 166.016,233.266 166.191,233.398 166.406 C 233.531 166.621,233.443 166.797,233.203 166.797 C 232.963 166.797,232.875 166.973,233.008 167.188 C 233.141 167.402,233.053 167.578,232.813 167.578 C 232.572 167.578,232.484 167.754,232.617 167.969 C 232.750 168.184,232.672 168.359,232.445 168.359 C 232.217 168.359,232.052 168.491,232.078 168.652 C 232.103 168.813,232.085 169.121,232.038 169.336 C 231.825 170.304,232.151 172.500,232.603 173.145 C 233.057 173.794,233.121 173.748,233.348 172.614 C 233.491 171.901,233.412 171.150,233.162 170.849 C 232.824 170.441,232.955 170.239,233.757 169.934 C 234.323 169.719,234.878 169.303,234.990 169.010 C 235.103 168.716,238.638 164.978,242.847 160.703 L 250.499 152.930 250.615 150.586 C 250.679 149.297,250.820 147.849,250.928 147.368 C 251.037 146.883,250.875 146.243,250.563 145.931 C 250.253 145.621,250.000 145.180,250.000 144.950 C 250.000 144.720,249.824 144.531,249.609 144.531 C 249.395 144.531,249.219 144.268,249.219 143.945 C 249.219 143.623,249.043 143.359,248.828 143.359 C 248.613 143.359,248.438 143.138,248.438 142.867 C 248.438 142.596,247.998 141.901,247.461 141.322 C 246.924 140.742,246.484 140.085,246.484 139.861 C 246.484 139.637,246.303 139.453,246.081 139.453 C 245.860 139.453,245.561 139.146,245.418 138.770 C 245.274 138.394,245.013 137.910,244.837 137.695 C 244.661 137.480,244.168 136.882,243.743 136.366 C 243.317 135.850,242.969 135.161,242.969 134.836 C 242.969 134.511,242.857 134.356,242.721 134.493 C 242.584 134.629,241.954 134.087,241.321 133.288 C 239.501 130.995,238.600 130.877,233.203 132.227 C 231.282 132.707,230.601 132.865,229.688 133.042 C 229.150 133.146,228.184 133.394,227.539 133.594 C 226.895 133.793,225.928 134.041,225.391 134.146 C 224.854 134.250,223.975 134.448,223.438 134.586 C 222.900 134.724,222.021 134.885,221.484 134.944 C 220.947 135.003,220.200 135.182,219.824 135.341 C 219.448 135.500,218.875 135.529,218.551 135.404 C 218.226 135.280,217.831 135.158,217.672 135.134 C 217.513 135.110,217.163 134.907,216.895 134.685 C 216.626 134.462,216.406 134.380,216.406 134.503 C 216.406 134.625,215.792 134.469,215.041 134.155 C 214.290 133.842,213.587 133.587,213.478 133.589 C 213.370 133.592,213.237 133.580,213.184 133.564 C 213.130 133.547,212.822 133.474,212.500 133.400 C 212.178 133.326,210.903 132.910,209.668 132.474 C 208.433 132.039,207.422 131.783,207.422 131.905 C 207.422 132.027,207.158 131.908,206.836 131.641 C 206.514 131.373,206.250 131.285,206.250 131.445 C 206.250 131.605,205.986 131.517,205.664 131.250 C 205.342 130.983,205.078 130.879,205.078 131.021 C 205.078 131.162,204.751 131.102,204.351 130.888 C 203.951 130.674,203.047 130.397,202.344 130.273 C 201.640 130.149,200.737 129.873,200.337 129.659 C 199.937 129.445,199.609 129.366,199.609 129.484 C 199.609 129.602,198.994 129.441,198.242 129.127 C 197.490 128.813,196.875 128.656,196.875 128.779 C 196.875 128.901,196.655 128.826,196.387 128.611 C 196.118 128.397,194.932 128.214,193.750 128.205 C 192.568 128.197,190.986 128.076,190.234 127.936 C 189.482 127.797,188.384 127.668,187.793 127.649 C 187.202 127.631,186.719 127.510,186.719 127.382 C 186.718 127.254,186.147 127.128,185.449 127.103 C 184.751 127.077,183.477 126.947,182.617 126.813 C 181.758 126.679,180.264 126.458,179.297 126.321 C 176.158 125.878,175.977 125.847,175.977 125.762 C 175.977 125.715,175.273 125.642,174.414 125.599 C 173.555 125.556,172.324 125.406,171.680 125.266 C 170.722 125.058,170.382 125.185,169.821 125.963 M174.805 127.508 C 175.664 127.631,177.246 127.839,178.320 127.970 C 179.395 128.101,180.625 128.265,181.055 128.334 C 181.484 128.404,182.627 128.569,183.594 128.702 C 184.561 128.835,185.791 129.028,186.328 129.131 C 186.865 129.235,187.908 129.405,188.646 129.510 C 189.384 129.615,190.058 129.772,190.145 129.859 C 190.357 130.071,183.783 136.372,182.588 137.102 C 182.067 137.421,181.641 137.875,181.641 138.112 C 181.641 138.519,175.735 143.798,174.969 144.076 C 174.771 144.147,174.609 144.392,174.609 144.619 C 174.609 144.847,174.038 145.558,173.340 146.201 C 172.642 146.843,170.798 148.591,169.244 150.085 C 166.664 152.565,166.363 152.747,165.798 152.182 C 165.457 151.841,164.927 151.563,164.621 151.563 C 164.314 151.563,164.063 151.404,164.063 151.210 C 164.063 151.016,163.579 150.667,162.988 150.434 C 161.811 149.971,160.467 149.176,160.148 148.755 C 160.037 148.607,159.509 148.291,158.976 148.051 C 158.444 147.812,157.305 147.189,156.445 146.667 C 155.586 146.146,154.619 145.592,154.297 145.438 C 152.491 144.571,152.209 143.855,153.380 143.107 C 153.992 142.716,154.957 141.954,155.526 141.413 C 156.095 140.872,157.662 139.463,159.009 138.281 C 162.826 134.934,165.624 132.361,167.214 130.739 C 169.428 128.480,171.502 127.061,172.418 127.178 C 172.871 127.235,173.945 127.384,174.805 127.508 M195.703 129.883 C 195.703 129.723,195.967 129.811,196.289 130.078 C 196.611 130.346,196.875 130.457,196.875 130.325 C 196.875 130.193,198.062 130.531,199.512 131.077 C 200.962 131.623,202.148 132.033,202.148 131.988 C 202.148 131.943,202.818 132.127,203.637 132.397 C 204.455 132.667,205.422 132.946,205.785 133.016 C 206.148 133.086,206.445 133.170,206.445 133.203 C 206.445 133.236,206.709 133.322,207.031 133.395 C 207.354 133.467,208.364 133.797,209.277 134.129 C 210.190 134.460,210.938 134.629,210.938 134.505 C 210.938 134.381,211.201 134.498,211.523 134.766 C 211.846 135.033,212.109 135.151,212.109 135.029 C 212.109 134.906,212.724 135.062,213.475 135.376 C 214.226 135.690,214.930 135.937,215.040 135.925 C 215.651 135.859,217.969 136.455,217.969 136.678 C 217.969 136.822,216.167 138.785,213.965 141.039 C 211.763 143.294,208.263 146.935,206.188 149.132 C 204.113 151.328,202.179 153.122,201.891 153.119 C 201.458 153.114,201.459 153.055,201.897 152.777 C 202.235 152.563,202.281 152.351,202.026 152.193 C 201.679 151.979,199.604 146.379,199.374 145.037 C 199.284 144.514,198.116 140.763,197.757 139.844 C 197.631 139.521,197.491 139.126,197.446 138.965 C 197.400 138.804,197.319 138.584,197.266 138.477 C 197.212 138.369,197.124 138.105,197.070 137.891 C 197.017 137.676,196.929 137.412,196.875 137.305 C 196.821 137.197,196.733 136.934,196.680 136.719 C 196.626 136.504,196.539 136.196,196.487 136.035 C 196.435 135.874,196.411 135.616,196.434 135.463 C 196.457 135.309,196.323 134.782,196.136 134.291 C 195.949 133.800,195.761 133.223,195.717 133.008 C 195.673 132.793,195.496 132.441,195.324 132.227 C 194.608 131.330,194.383 129.078,195.066 129.645 C 195.417 129.936,195.703 130.043,195.703 129.883 M238.073 134.902 C 237.931 136.009,237.747 137.441,237.665 138.086 C 237.489 139.454,237.164 142.252,237.132 142.676 C 237.120 142.837,236.857 142.969,236.549 142.969 C 236.241 142.969,235.494 143.157,234.889 143.387 C 234.284 143.617,233.701 143.819,233.594 143.836 C 233.486 143.853,231.509 144.541,229.199 145.364 C 226.890 146.188,225.000 146.767,225.000 146.650 C 225.000 146.534,224.780 146.578,224.512 146.748 C 224.243 146.919,223.892 147.083,223.730 147.113 C 223.569 147.143,223.350 147.212,223.242 147.266 C 223.135 147.319,222.871 147.407,222.656 147.461 C 222.441 147.515,222.222 147.594,222.168 147.636 C 222.114 147.679,221.699 147.784,221.245 147.870 C 220.791 147.956,219.912 148.235,219.292 148.492 C 218.671 148.748,218.032 148.995,217.871 149.040 C 217.710 149.084,217.534 149.156,217.480 149.199 C 217.427 149.242,216.957 149.355,216.437 149.451 C 215.917 149.547,215.288 149.794,215.039 150.000 C 214.790 150.206,214.249 150.440,213.837 150.519 C 213.424 150.599,212.792 150.792,212.433 150.948 C 212.074 151.104,211.458 151.293,211.066 151.367 C 210.673 151.442,210.308 151.538,210.254 151.581 C 210.200 151.625,209.980 151.704,209.766 151.758 C 209.551 151.812,209.287 151.899,209.180 151.953 C 209.072 152.007,208.809 152.095,208.594 152.148 C 208.379 152.202,208.159 152.282,208.105 152.325 C 208.052 152.368,207.744 152.460,207.422 152.528 C 207.100 152.597,206.353 152.778,205.762 152.931 C 204.143 153.351,204.412 152.895,207.715 149.622 C 209.380 147.972,212.869 144.433,215.468 141.759 C 220.622 136.456,220.312 136.631,226.953 135.313 C 227.490 135.207,228.632 134.933,229.491 134.706 C 230.349 134.479,231.360 134.224,231.737 134.139 C 232.114 134.054,232.773 133.896,233.203 133.789 C 233.633 133.682,234.336 133.506,234.766 133.398 C 235.195 133.291,235.922 133.121,236.381 133.020 C 236.840 132.919,237.304 132.748,237.412 132.640 C 237.991 132.061,238.301 133.122,238.073 134.902 M240.636 134.821 C 240.952 135.282,241.604 136.117,242.084 136.677 C 243.400 138.212,243.508 138.360,244.484 139.952 C 244.982 140.763,245.601 141.642,245.861 141.905 C 246.121 142.168,246.669 142.954,247.079 143.652 C 247.489 144.351,247.963 144.922,248.131 144.922 C 248.300 144.922,248.438 145.171,248.438 145.475 C 248.438 145.780,248.635 146.094,248.875 146.175 C 249.638 146.429,249.183 152.665,248.364 153.170 C 248.066 153.355,247.329 153.169,246.563 152.717 C 245.849 152.296,245.382 152.141,245.525 152.372 C 245.704 152.662,245.561 152.677,245.060 152.420 C 244.662 152.216,243.676 151.766,242.869 151.420 C 242.063 151.075,241.441 150.658,241.487 150.494 C 241.534 150.330,241.353 149.800,241.085 149.316 C 240.817 148.833,240.712 148.438,240.851 148.438 C 240.991 148.438,240.818 147.998,240.466 147.461 C 240.114 146.924,239.924 146.484,240.044 146.484 C 240.164 146.484,240.044 146.089,239.779 145.605 C 238.855 143.926,238.698 141.544,239.270 137.891 C 239.421 136.924,239.568 135.649,239.597 135.059 C 239.659 133.766,239.877 133.716,240.636 134.821 M155.664 148.051 C 156.309 148.362,156.924 148.712,157.031 148.828 C 157.139 148.944,157.666 149.254,158.203 149.517 C 159.440 150.121,160.559 150.839,161.242 151.465 C 161.535 151.733,161.985 151.953,162.242 151.953 C 164.970 151.953,165.715 154.158,164.682 159.180 C 164.484 160.144,164.512 160.213,164.841 159.570 C 165.141 158.985,165.181 159.278,165.004 160.742 C 164.676 163.442,164.102 164.511,163.513 163.518 C 163.278 163.122,162.606 162.071,162.019 161.184 C 161.432 160.296,160.949 159.363,160.945 159.110 C 160.941 158.857,160.672 158.384,160.348 158.060 C 160.024 157.736,159.406 156.713,158.975 155.786 C 158.544 154.860,157.767 153.398,157.248 152.539 C 156.729 151.680,156.052 150.442,155.745 149.789 C 155.438 149.136,154.858 148.273,154.456 147.871 C 154.054 147.469,153.898 147.218,154.109 147.313 C 154.320 147.408,155.020 147.740,155.664 148.051 M242.908 152.902 C 243.479 153.209,244.517 153.691,245.215 153.974 C 246.914 154.661,247.224 154.193,240.639 160.884 C 235.845 165.757,234.904 166.561,235.406 165.359 C 235.743 164.554,236.308 163.655,236.661 163.363 C 237.015 163.072,237.066 162.956,236.774 163.106 C 236.476 163.260,236.756 162.374,237.414 161.085 C 238.567 158.824,239.563 156.691,240.809 153.809 C 241.530 152.142,241.512 152.150,242.908 152.902 M203.027 165.937 C 201.167 166.097,201.189 166.385,203.223 168.465 C 205.054 170.337,208.854 171.206,208.854 169.752 C 208.854 169.416,208.664 169.140,208.431 169.140 C 208.198 169.139,207.663 168.624,207.242 167.995 C 206.821 167.367,206.336 166.939,206.165 167.045 C 205.994 167.150,205.754 166.976,205.631 166.657 C 205.348 165.919,204.848 165.781,203.027 165.937 M207.031 166.433 C 207.031 166.556,207.427 167.017,207.910 167.459 C 208.394 167.901,209.261 168.784,209.838 169.421 C 210.717 170.392,213.345 170.995,213.903 170.353 C 213.922 170.331,213.063 169.390,211.994 168.262 C 210.227 166.397,207.032 165.220,207.031 166.433 M212.562 167.253 C 213.200 167.937,213.979 168.993,214.293 169.600 C 214.627 170.245,215.184 170.703,215.635 170.703 C 216.741 170.703,216.918 170.741,217.637 171.125 C 218.084 171.365,218.349 171.295,218.502 170.896 C 218.624 170.576,218.521 170.363,218.269 170.415 C 218.020 170.466,217.719 170.043,217.600 169.476 C 217.138 167.280,215.841 166.207,213.524 166.105 L 211.400 166.010 212.562 167.253 M198.672 166.926 C 197.310 167.337,197.217 167.442,197.793 167.920 C 198.148 168.214,198.438 168.687,198.438 168.970 C 198.438 169.710,198.992 169.957,201.185 170.192 C 203.356 170.426,203.597 170.083,202.148 168.823 C 201.611 168.356,201.172 167.797,201.172 167.581 C 201.172 167.364,200.952 167.231,200.684 167.285 C 200.415 167.339,200.239 167.163,200.293 166.895 C 200.347 166.626,200.347 166.420,200.293 166.436 C 200.239 166.453,199.510 166.673,198.672 166.926 M218.840 169.138 C 219.621 170.765,220.199 171.469,220.899 171.645 C 221.956 171.910,222.510 171.827,222.375 171.423 C 222.328 171.282,222.592 171.217,222.961 171.280 C 223.331 171.342,223.590 171.585,223.538 171.821 C 223.457 172.186,225.380 173.469,225.972 173.445 C 226.082 173.441,226.216 173.451,226.270 173.467 C 227.661 173.893,227.888 173.324,226.859 171.990 C 226.659 171.731,226.625 171.308,226.785 171.051 C 226.961 170.765,226.908 170.685,226.651 170.844 C 226.418 170.987,226.117 170.755,225.981 170.326 C 225.845 169.898,225.613 169.564,225.464 169.585 C 225.316 169.607,225.107 169.590,225.000 169.548 C 224.893 169.507,224.365 169.396,223.828 169.302 C 223.291 169.208,222.588 169.017,222.266 168.877 C 221.943 168.737,221.504 168.599,221.289 168.571 C 221.074 168.542,220.950 168.286,221.012 168.001 C 221.080 167.692,220.901 167.568,220.571 167.695 C 220.267 167.812,219.851 167.742,219.648 167.538 C 218.195 166.086,217.775 166.918,218.840 169.138 M186.914 167.857 C 185.554 168.184,185.353 168.687,186.210 169.624 C 186.655 170.110,187.140 170.903,187.286 171.387 C 187.495 172.076,187.842 172.266,188.894 172.266 C 190.416 172.266,190.548 171.856,189.504 170.373 C 189.103 169.803,188.652 168.940,188.501 168.457 C 188.351 167.974,188.109 167.599,187.962 167.623 C 187.815 167.648,187.344 167.753,186.914 167.857 M189.453 168.086 C 189.453 168.365,189.608 168.761,189.797 168.965 C 189.985 169.169,190.351 169.995,190.608 170.801 C 191.043 172.161,191.412 172.472,192.368 172.284 C 192.575 172.244,192.926 172.443,193.149 172.726 C 193.638 173.349,194.922 173.511,194.922 172.951 C 194.922 172.161,193.965 169.328,193.569 168.945 C 192.511 167.925,189.453 167.286,189.453 168.086 M194.922 168.346 C 194.922 168.694,196.145 169.531,196.654 169.531 C 196.776 169.531,196.875 169.180,196.875 168.750 C 196.875 168.177,196.615 167.969,195.898 167.969 C 195.361 167.969,194.922 168.138,194.922 168.346 M182.031 168.988 C 182.031 169.648,183.422 172.315,183.751 172.286 C 183.879 172.275,184.154 172.266,184.362 172.266 C 184.569 172.266,183.207 173.699,181.334 175.450 C 179.462 177.202,176.611 179.915,175.000 181.479 C 168.161 188.119,166.696 189.482,166.554 189.341 C 166.472 189.258,166.304 186.657,166.181 183.560 C 165.983 178.607,165.763 175.065,165.559 173.552 C 165.523 173.293,165.269 172.994,164.994 172.888 C 164.445 172.678,164.061 173.531,163.499 176.218 C 163.381 176.780,163.018 177.878,162.692 178.659 C 162.366 179.439,162.195 180.078,162.313 180.078 C 162.431 180.078,162.354 180.402,162.142 180.799 C 161.930 181.195,161.663 181.942,161.550 182.459 C 160.956 185.167,160.205 187.886,159.928 188.335 C 159.755 188.614,159.584 189.287,159.546 189.831 C 159.509 190.375,159.301 191.260,159.083 191.797 C 158.865 192.334,158.661 192.949,158.629 193.164 C 158.597 193.379,158.382 194.257,158.151 195.116 C 157.750 196.603,157.648 197.024,157.249 198.830 C 157.153 199.260,156.985 199.758,156.875 199.937 C 156.765 200.115,156.570 200.862,156.442 201.595 C 156.314 202.329,155.960 203.668,155.655 204.571 C 155.350 205.473,155.016 206.616,154.914 207.110 C 154.811 207.604,154.631 208.403,154.512 208.887 C 154.394 209.370,154.219 210.118,154.124 210.548 C 154.028 210.979,153.862 211.475,153.753 211.650 C 153.645 211.825,153.450 212.484,153.320 213.113 C 152.999 214.668,152.953 214.840,152.434 216.406 C 152.185 217.158,151.896 218.213,151.792 218.750 C 151.614 219.668,151.488 220.211,150.954 222.363 C 150.834 222.847,150.697 223.418,150.650 223.633 C 150.603 223.848,150.460 224.199,150.333 224.414 C 150.206 224.629,149.963 225.508,149.793 226.367 C 149.341 228.653,149.170 229.312,148.528 231.250 C 148.279 232.002,147.990 233.057,147.886 233.594 C 147.708 234.512,147.582 235.054,147.047 237.207 C 146.927 237.690,146.765 238.350,146.687 238.672 C 146.608 238.994,146.517 239.258,146.484 239.258 C 146.451 239.258,146.360 239.521,146.282 239.844 C 146.204 240.166,146.031 240.869,145.898 241.406 C 145.268 243.959,145.160 244.973,145.170 248.242 C 145.182 251.920,145.607 263.223,145.897 267.573 C 146.008 269.245,146.270 270.256,146.666 270.546 C 146.996 270.787,147.266 271.110,147.266 271.262 C 147.266 271.415,147.485 271.785,147.754 272.085 C 148.899 273.362,149.219 273.817,149.219 274.170 C 149.219 274.376,149.354 274.603,149.519 274.674 C 149.684 274.746,150.219 275.332,150.709 275.977 C 151.605 277.158,154.619 278.871,165.820 284.568 C 169.043 286.208,173.989 288.724,176.811 290.161 C 179.634 291.598,182.096 292.803,182.282 292.839 C 182.469 292.875,183.939 293.013,185.549 293.145 C 191.722 293.650,193.207 293.780,194.531 293.933 C 195.283 294.019,197.041 294.199,198.438 294.331 C 199.834 294.464,201.460 294.654,202.051 294.753 C 202.718 294.865,203.125 294.758,203.125 294.472 C 203.125 294.218,203.225 294.110,203.347 294.232 C 203.469 294.354,204.194 294.281,204.958 294.070 C 206.431 293.663,207.398 293.438,208.984 293.130 C 209.521 293.026,210.543 292.754,211.254 292.526 C 211.965 292.298,212.756 292.068,213.012 292.014 C 213.267 291.961,213.971 291.714,214.576 291.466 C 215.181 291.218,215.918 291.016,216.213 291.016 C 216.509 291.016,216.859 290.840,216.992 290.625 C 217.125 290.410,217.475 290.234,217.771 290.234 C 218.067 290.234,218.803 290.029,219.408 289.779 C 220.013 289.528,220.596 289.293,220.703 289.257 C 221.663 288.930,222.573 288.555,223.139 288.253 C 223.512 288.054,224.040 287.885,224.311 287.877 C 224.583 287.870,225.508 287.524,226.367 287.109 C 227.227 286.694,228.129 286.349,228.373 286.341 C 228.617 286.334,229.320 286.066,229.936 285.745 C 230.551 285.424,231.352 285.160,231.715 285.159 C 232.079 285.157,232.470 285.005,232.584 284.819 C 232.699 284.634,233.632 284.248,234.658 283.962 C 235.684 283.676,236.963 283.213,237.500 282.934 C 238.037 282.655,238.774 282.426,239.137 282.424 C 239.500 282.423,239.908 282.243,240.043 282.025 C 240.178 281.807,240.440 281.722,240.625 281.836 C 240.810 281.950,241.072 281.865,241.207 281.647 C 241.342 281.429,241.723 281.250,242.054 281.250 C 242.385 281.250,243.209 281.005,243.886 280.706 C 244.966 280.229,246.276 279.697,246.875 279.493 C 246.982 279.457,247.565 279.222,248.170 278.971 C 248.775 278.721,249.447 278.516,249.664 278.516 C 249.880 278.516,250.889 277.681,251.905 276.660 C 252.921 275.640,254.739 273.926,255.945 272.852 C 257.905 271.105,258.165 270.692,258.398 268.945 C 258.906 265.153,258.981 264.639,259.176 263.672 C 259.388 262.616,259.848 259.095,259.878 258.301 C 259.888 258.032,259.998 257.813,260.124 257.813 C 260.249 257.813,260.341 257.241,260.328 256.543 C 260.315 255.845,260.441 254.881,260.609 254.401 C 260.826 253.779,260.641 253.050,259.963 251.862 C 259.440 250.945,258.813 249.712,258.570 249.121 C 258.326 248.530,258.003 248.047,257.853 248.047 C 257.702 248.047,257.356 247.432,257.084 246.680 C 256.813 245.928,256.439 245.313,256.255 245.313 C 256.071 245.313,255.717 244.697,255.469 243.945 C 255.221 243.193,254.855 242.578,254.657 242.578 C 254.459 242.578,254.297 242.329,254.297 242.025 C 254.297 241.720,254.117 241.411,253.898 241.338 C 253.678 241.265,253.424 240.767,253.334 240.231 C 253.040 238.489,252.054 229.247,251.750 225.391 C 251.523 222.516,251.211 221.026,250.710 220.422 C 250.482 220.147,250.426 219.922,250.586 219.922 C 250.746 219.922,250.636 219.631,250.341 219.276 C 250.046 218.921,249.877 218.613,249.965 218.592 C 250.203 218.536,249.178 215.507,248.729 214.941 C 248.516 214.673,248.486 214.453,248.663 214.453 C 248.840 214.453,248.773 214.242,248.516 213.984 C 248.258 213.727,248.047 213.299,248.047 213.033 C 248.047 212.768,247.842 212.056,247.591 211.451 C 247.341 210.846,247.099 210.220,247.054 210.059 C 247.009 209.897,246.937 209.722,246.894 209.668 C 246.851 209.614,246.750 209.307,246.670 208.984 C 246.508 208.333,245.421 205.209,245.039 204.297 C 244.904 203.975,244.779 203.594,244.760 203.451 C 244.742 203.307,244.595 203.058,244.434 202.897 C 244.272 202.736,244.141 202.381,244.141 202.109 C 244.141 201.836,243.936 201.119,243.685 200.514 C 243.435 199.909,243.193 199.282,243.148 199.121 C 243.103 198.960,243.022 198.740,242.969 198.633 C 242.915 198.525,242.827 198.262,242.773 198.047 C 242.720 197.832,242.632 197.568,242.578 197.461 C 242.524 197.354,242.451 197.134,242.415 196.973 C 242.261 196.286,241.284 193.522,241.068 193.164 C 240.938 192.949,240.822 192.686,240.810 192.578 C 240.766 192.185,239.342 188.074,239.119 187.695 C 238.993 187.480,238.858 187.129,238.819 186.914 C 238.781 186.699,238.527 185.996,238.255 185.352 C 237.983 184.707,237.743 184.092,237.722 183.984 C 237.701 183.877,237.544 183.569,237.373 183.301 C 237.203 183.032,237.152 182.813,237.260 182.813 C 237.368 182.813,236.954 181.421,236.340 179.719 C 235.725 178.018,235.340 176.496,235.482 176.336 C 235.625 176.177,235.522 176.173,235.254 176.328 C 234.940 176.508,234.763 176.356,234.760 175.902 C 234.746 174.294,234.090 173.991,233.049 175.114 L 232.067 176.173 232.261 183.106 C 232.368 186.919,232.530 192.236,232.621 194.922 C 232.960 204.880,233.231 212.418,233.395 216.406 C 233.488 218.662,233.655 222.793,233.766 225.586 C 233.877 228.379,234.067 233.125,234.189 236.133 C 234.866 252.790,234.955 252.092,231.738 255.162 C 231.255 255.623,230.859 256.226,230.859 256.502 C 230.859 256.778,230.508 257.192,230.078 257.422 C 229.648 257.652,229.297 258.079,229.297 258.370 C 229.297 258.662,229.071 258.987,228.795 259.093 C 228.519 259.199,227.772 260.047,227.135 260.978 C 226.498 261.908,225.713 262.962,225.391 263.319 C 225.068 263.677,224.453 264.427,224.023 264.985 C 223.594 265.543,222.585 266.751,221.783 267.668 C 220.980 268.585,220.321 269.442,220.318 269.572 C 220.315 269.702,219.917 270.256,219.434 270.804 C 218.950 271.351,218.203 272.263,217.773 272.829 C 217.344 273.395,216.623 274.247,216.173 274.722 C 215.722 275.197,214.843 276.289,214.220 277.148 C 213.596 278.008,212.910 278.902,212.695 279.135 C 212.480 279.368,211.953 280.040,211.523 280.628 C 210.721 281.726,209.139 283.569,207.793 284.975 C 207.374 285.412,207.031 285.887,207.031 286.031 C 207.031 286.175,206.636 286.715,206.152 287.231 C 204.635 288.851,203.125 290.781,203.125 291.100 C 203.125 291.268,202.993 291.406,202.832 291.406 C 202.671 291.406,202.492 265.792,202.434 234.485 C 202.376 202.946,202.178 177.413,201.990 177.224 C 201.293 176.527,201.179 177.914,201.001 189.309 C 200.901 195.726,200.810 201.008,200.800 201.047 C 200.790 201.086,200.210 200.939,199.512 200.722 C 198.391 200.372,197.640 200.161,194.824 199.403 C 193.810 199.130,192.677 198.850,191.795 198.655 C 191.365 198.560,190.869 198.393,190.694 198.285 C 190.518 198.176,189.948 198.000,189.426 197.892 C 187.261 197.446,186.699 197.299,186.371 197.097 C 186.181 196.980,185.938 197.220,185.831 197.632 C 185.636 198.376,186.500 198.955,188.477 199.408 C 189.166 199.566,189.895 199.754,193.164 200.620 C 194.285 200.917,194.531 200.985,196.483 201.538 C 198.216 202.028,199.244 202.282,200.391 202.502 C 200.972 202.613,201.166 226.925,200.588 227.276 C 200.472 227.346,199.897 227.305,199.310 227.185 C 198.723 227.065,197.715 226.877,197.070 226.769 C 195.736 226.543,195.016 226.393,192.676 225.855 C 191.763 225.645,191.016 225.549,191.016 225.641 C 191.016 225.733,190.678 225.628,190.265 225.407 C 188.972 224.715,186.772 224.503,186.859 225.079 C 187.024 226.164,187.583 226.490,190.132 226.988 C 191.585 227.272,192.861 227.523,192.969 227.545 C 193.076 227.567,194.922 227.915,197.070 228.319 L 200.977 229.052 200.890 239.428 C 200.842 245.135,200.781 259.209,200.755 270.703 C 200.724 284.435,200.578 291.329,200.331 290.805 C 200.124 290.368,199.569 289.840,199.098 289.634 C 198.627 289.427,198.299 289.112,198.369 288.934 C 198.439 288.756,197.648 287.764,196.611 286.729 C 195.575 285.694,194.023 284.014,193.164 282.997 C 192.305 281.979,191.074 280.571,190.430 279.868 C 189.785 279.164,188.379 277.575,187.305 276.335 C 186.230 275.096,184.824 273.504,184.180 272.798 C 183.535 272.092,182.217 270.601,181.250 269.485 C 180.283 268.369,178.877 266.801,178.125 266.002 C 177.373 265.202,175.879 263.527,174.805 262.279 C 173.730 261.032,172.311 259.469,171.651 258.807 C 169.295 256.446,169.145 255.981,168.927 250.353 C 168.655 243.328,168.410 237.378,168.190 232.422 C 168.090 230.166,167.921 225.767,167.815 222.646 C 167.708 219.525,167.504 216.669,167.362 216.298 C 167.009 215.379,167.541 215.452,169.567 216.602 C 170.514 217.139,171.816 217.849,172.461 218.180 C 173.105 218.511,174.284 219.170,175.080 219.645 C 180.780 223.044,180.648 222.990,180.995 222.085 C 181.232 221.468,179.561 219.922,178.658 219.922 C 178.365 219.922,178.125 219.760,178.125 219.562 C 178.125 219.363,177.510 218.998,176.758 218.750 C 176.006 218.502,175.391 218.158,175.391 217.986 C 175.391 217.814,174.819 217.442,174.121 217.159 C 173.423 216.877,172.764 216.531,172.656 216.391 C 172.549 216.251,171.934 215.854,171.289 215.510 C 166.807 213.113,167.318 215.350,166.656 195.215 C 166.609 193.765,166.632 192.578,166.709 192.578 C 166.786 192.578,167.161 192.746,167.543 192.950 C 167.926 193.155,168.661 193.405,169.178 193.505 C 169.694 193.606,170.864 193.958,171.777 194.288 C 172.690 194.617,173.438 194.816,173.438 194.729 C 173.438 194.642,174.052 194.828,174.803 195.142 C 175.554 195.455,176.257 195.710,176.365 195.708 C 176.474 195.705,176.606 195.717,176.660 195.733 C 176.714 195.749,177.021 195.829,177.344 195.909 C 177.666 195.989,178.325 196.172,178.809 196.315 C 179.519 196.526,179.688 196.422,179.688 195.775 C 179.688 195.079,179.076 194.640,177.637 194.306 C 177.476 194.269,177.256 194.194,177.148 194.141 C 177.041 194.087,176.821 194.013,176.660 193.977 C 176.499 193.941,175.734 193.695,174.960 193.429 C 174.185 193.163,173.219 192.868,172.811 192.773 C 172.404 192.678,171.367 192.405,170.508 192.167 C 169.648 191.928,168.462 191.639,167.871 191.525 C 166.870 191.332,166.327 190.625,167.180 190.625 C 167.391 190.625,168.169 190.054,168.909 189.355 C 169.650 188.657,172.322 186.152,174.848 183.789 C 182.909 176.246,185.993 173.062,185.699 172.586 C 185.512 172.283,185.634 172.216,186.069 172.382 C 186.929 172.712,186.889 172.208,185.925 170.575 C 185.048 169.087,182.031 167.858,182.031 168.988 M168.415 169.289 L 167.493 169.800 169.043 171.429 C 170.571 173.036,171.112 173.188,172.764 172.474 C 173.258 172.260,173.343 172.037,173.060 171.696 C 172.842 171.433,172.754 171.127,172.864 171.016 C 172.975 170.905,172.764 170.570,172.395 170.271 C 171.952 169.911,171.824 169.892,172.018 170.215 C 172.582 171.153,171.497 170.695,170.863 169.727 C 170.142 168.627,169.737 168.555,168.415 169.289 M164.494 170.392 C 164.001 171.181,164.059 171.339,165.181 172.276 C 165.855 172.839,166.406 173.492,166.406 173.727 C 166.406 174.032,166.829 174.042,167.871 173.760 C 169.786 173.243,170.102 172.899,169.278 172.230 C 168.838 171.873,168.703 171.851,168.893 172.168 C 169.055 172.437,169.007 172.656,168.787 172.656 C 168.567 172.656,168.205 172.317,167.983 171.901 C 167.761 171.486,167.225 171.034,166.792 170.897 C 166.359 170.759,166.104 170.486,166.226 170.289 C 166.348 170.092,166.146 170.046,165.777 170.188 C 165.322 170.363,165.197 170.298,165.389 169.988 C 165.544 169.737,165.527 169.531,165.351 169.531 C 165.176 169.531,164.790 169.919,164.494 170.392 M223.076 170.029 C 223.028 170.496,222.492 170.406,222.324 169.902 C 222.238 169.645,222.379 169.504,222.637 169.590 C 222.895 169.676,223.092 169.874,223.076 170.029 M227.344 170.334 C 227.344 171.302,229.130 174.187,229.849 174.380 C 231.678 174.871,231.837 174.434,230.956 171.346 C 230.644 170.251,227.344 169.326,227.344 170.334 M195.071 170.778 C 194.913 171.034,194.990 171.312,195.243 171.396 C 195.496 171.481,195.703 171.934,195.703 172.404 C 195.703 173.306,198.917 175.432,199.459 174.890 C 199.724 174.625,198.657 171.783,197.925 170.801 C 197.462 170.180,195.451 170.164,195.071 170.778 M200.209 173.521 C 200.389 174.585,200.882 175.537,201.603 176.210 C 202.217 176.783,202.894 177.712,203.108 178.274 C 203.644 179.684,204.287 179.556,204.346 178.027 C 204.511 173.815,204.671 174.226,202.387 173.002 C 199.757 171.593,199.879 171.564,200.209 173.521 M191.601 174.471 C 190.765 175.307,191.420 175.767,193.457 175.775 C 195.216 175.782,195.342 175.237,193.769 174.424 C 192.347 173.689,192.383 173.688,191.601 174.471 M205.537 177.981 C 205.462 180.697,206.738 183.634,207.442 182.368 C 208.439 180.576,208.221 178.335,206.908 176.871 L 205.608 175.421 205.537 177.981 M191.016 176.563 C 191.016 176.777,190.783 176.953,190.498 176.953 C 189.919 176.953,188.281 178.559,188.281 179.127 C 188.280 179.943,192.359 179.254,193.282 178.282 C 194.368 177.138,194.148 176.607,192.685 176.841 C 191.839 176.976,191.730 176.923,192.188 176.599 C 192.673 176.255,192.623 176.183,191.895 176.178 C 191.411 176.175,191.016 176.348,191.016 176.563 M234.570 179.297 C 234.696 180.013,234.921 180.789,235.070 181.022 C 235.218 181.255,235.364 181.577,235.394 181.738 C 235.425 181.899,235.493 182.119,235.547 182.227 C 235.601 182.334,235.688 182.598,235.742 182.813 C 235.796 183.027,235.875 183.247,235.919 183.301 C 235.962 183.354,236.054 183.662,236.124 183.984 C 236.194 184.307,236.473 185.098,236.745 185.742 C 237.017 186.387,237.276 187.046,237.321 187.207 C 237.366 187.368,237.438 187.544,237.481 187.598 C 237.524 187.651,237.627 187.959,237.710 188.281 C 238.099 189.796,239.863 194.801,240.222 195.405 C 240.444 195.778,240.625 196.250,240.625 196.454 C 240.625 196.657,240.780 197.231,240.969 197.728 C 241.158 198.226,241.349 198.809,241.393 199.023 C 241.437 199.238,241.609 199.590,241.776 199.805 C 241.943 200.020,242.193 200.671,242.332 201.252 C 242.471 201.834,242.788 202.800,243.037 203.401 C 243.286 204.001,243.526 204.624,243.571 204.785 C 243.616 204.946,243.688 205.122,243.731 205.176 C 243.774 205.229,243.867 205.537,243.936 205.859 C 244.006 206.182,244.286 206.973,244.557 207.617 C 244.829 208.262,245.088 208.921,245.133 209.082 C 245.178 209.243,245.259 209.463,245.313 209.570 C 245.366 209.678,245.454 209.941,245.508 210.156 C 245.562 210.371,245.649 210.635,245.703 210.742 C 245.757 210.850,245.845 211.113,245.898 211.328 C 245.952 211.543,246.032 211.763,246.075 211.816 C 246.118 211.870,246.211 212.178,246.280 212.500 C 246.350 212.822,246.629 213.613,246.901 214.258 C 247.173 214.902,247.432 215.562,247.477 215.723 C 247.522 215.884,247.594 216.060,247.637 216.113 C 247.681 216.167,247.773 216.475,247.843 216.797 C 247.912 217.119,248.192 217.910,248.464 218.555 C 248.736 219.199,248.995 219.858,249.040 220.020 C 249.084 220.181,249.165 220.400,249.219 220.508 C 249.272 220.615,249.348 220.835,249.387 220.996 C 249.859 222.946,250.036 223.930,250.214 225.586 C 250.329 226.660,250.495 228.154,250.582 228.906 C 250.670 229.658,250.839 231.227,250.958 232.391 C 251.078 233.556,251.290 235.490,251.430 236.688 C 251.570 237.887,251.718 239.307,251.758 239.844 C 251.881 241.480,251.930 241.624,252.637 242.407 C 253.013 242.823,253.635 243.779,254.020 244.531 C 254.931 246.311,255.728 247.708,256.250 248.438 C 257.419 250.072,259.134 253.594,259.008 254.102 C 258.955 254.316,258.850 255.020,258.775 255.664 C 258.628 256.928,258.243 259.751,258.003 261.328 C 257.921 261.865,257.740 263.096,257.601 264.063 C 257.461 265.029,257.291 266.172,257.222 266.602 C 257.153 267.031,257.082 267.690,257.064 268.066 C 257.025 268.876,256.032 268.978,255.586 268.217 C 255.302 267.733,254.277 266.824,249.882 263.154 C 249.065 262.472,247.907 261.475,247.308 260.938 C 246.710 260.400,245.555 259.434,244.742 258.789 C 243.928 258.145,242.786 257.178,242.203 256.641 C 241.619 256.104,240.477 255.137,239.664 254.492 C 236.109 251.675,235.980 251.471,236.039 248.767 C 236.070 247.404,235.964 243.213,235.804 239.453 C 235.645 235.693,235.440 230.596,235.350 228.125 C 235.195 223.908,234.956 217.760,234.575 208.203 C 234.387 203.468,234.021 192.788,233.787 185.156 C 233.698 182.256,233.591 179.619,233.548 179.297 C 233.192 176.602,234.096 176.602,234.570 179.297 M164.757 180.176 C 164.721 181.304,164.823 185.391,164.983 189.258 C 165.144 193.125,165.345 198.574,165.431 201.367 C 165.517 204.160,165.702 209.082,165.843 212.305 C 165.983 215.527,166.148 219.395,166.210 220.898 C 166.469 227.205,166.805 235.254,166.985 239.453 C 167.091 241.924,167.268 246.555,167.378 249.745 C 167.488 252.935,167.663 255.681,167.766 255.847 C 167.869 256.014,167.473 256.667,166.887 257.299 C 166.300 257.930,165.293 259.107,164.648 259.913 C 164.004 260.719,163.037 261.882,162.500 262.499 C 161.590 263.543,160.331 265.047,158.692 267.046 C 158.316 267.506,157.393 268.633,156.641 269.550 C 155.889 270.468,154.794 271.656,154.207 272.190 C 153.621 272.724,153.038 273.487,152.911 273.885 C 152.528 275.093,150.391 274.047,150.391 272.652 C 150.391 272.439,150.215 272.266,150.000 272.266 C 149.785 272.266,149.609 272.041,149.609 271.767 C 149.609 271.492,149.126 270.724,148.535 270.059 C 147.944 269.394,147.419 268.657,147.367 268.422 C 146.967 266.589,146.690 244.907,147.048 243.457 C 147.168 242.974,147.354 242.227,147.461 241.797 C 147.568 241.367,147.729 240.708,147.817 240.332 C 147.905 239.956,148.165 239.165,148.393 238.574 C 148.622 237.983,148.704 237.500,148.575 237.500 C 148.447 237.500,148.554 237.244,148.814 236.931 C 149.074 236.618,149.180 236.191,149.051 235.982 C 148.921 235.772,149.006 235.483,149.239 235.339 C 149.472 235.195,149.570 234.837,149.458 234.543 C 149.345 234.250,149.401 233.918,149.582 233.806 C 149.763 233.694,150.020 233.029,150.153 232.329 C 150.285 231.628,150.491 230.615,150.610 230.078 C 150.729 229.541,150.866 228.926,150.913 228.711 C 150.960 228.496,151.143 228.089,151.320 227.806 C 151.496 227.523,151.537 227.188,151.410 227.061 C 151.283 226.934,151.378 226.590,151.622 226.296 C 151.865 226.003,151.958 225.656,151.827 225.525 C 151.697 225.395,151.751 224.987,151.948 224.618 C 152.145 224.250,152.412 223.438,152.541 222.814 C 152.837 221.382,152.850 221.333,153.616 218.750 C 153.967 217.568,154.342 216.162,154.451 215.625 C 154.869 213.550,155.041 212.876,155.231 212.569 C 155.339 212.393,155.534 211.735,155.664 211.105 C 155.962 209.663,155.974 209.617,156.741 207.031 C 157.092 205.850,157.467 204.443,157.576 203.906 C 157.994 201.832,158.166 201.158,158.356 200.850 C 158.464 200.675,158.641 200.104,158.749 199.582 C 159.191 197.438,159.340 196.857,159.528 196.553 C 159.636 196.378,159.813 195.807,159.921 195.285 C 160.308 193.406,160.484 192.756,160.893 191.699 C 161.122 191.108,161.234 190.625,161.143 190.625 C 161.052 190.625,161.242 189.991,161.566 189.216 C 161.890 188.440,162.058 187.710,161.940 187.591 C 161.822 187.473,161.921 187.141,162.161 186.852 C 162.400 186.564,162.495 186.328,162.372 186.328 C 162.250 186.328,162.406 185.713,162.720 184.961 C 163.035 184.209,163.195 183.594,163.077 183.594 C 162.960 183.594,163.041 183.261,163.259 182.855 C 163.599 182.218,164.015 180.243,164.152 178.613 C 164.280 177.088,164.811 178.462,164.757 180.176 M189.453 180.767 C 187.361 181.015,186.882 181.260,186.188 182.433 C 185.794 183.101,185.576 183.753,185.704 183.881 C 185.832 184.010,185.938 183.922,185.938 183.686 C 185.938 183.423,186.664 183.291,187.828 183.345 C 189.603 183.426,189.782 183.343,190.766 181.974 C 191.888 180.412,191.953 180.471,189.453 180.767 M208.984 181.813 C 208.984 182.337,208.797 182.882,208.567 183.024 C 208.328 183.172,208.239 183.891,208.357 184.707 C 208.471 185.491,208.571 186.208,208.579 186.300 C 208.587 186.392,209.116 185.777,209.755 184.933 C 210.928 183.382,211.241 182.422,210.573 182.422 C 210.373 182.422,210.097 182.070,209.961 181.641 C 209.615 180.552,208.984 180.663,208.984 181.813 M184.457 185.717 C 184.036 186.643,184.068 186.669,185.613 186.647 C 187.115 186.627,188.928 185.543,188.379 184.993 C 187.669 184.284,184.876 184.800,184.457 185.717 M210.483 186.249 C 209.194 187.553,208.569 191.406,209.647 191.406 C 211.501 191.406,213.826 187.734,212.494 186.910 C 212.275 186.775,212.165 186.545,212.249 186.399 C 213.021 185.057,211.768 184.951,210.483 186.249 M185.742 188.280 C 185.313 188.465,184.407 188.524,183.729 188.412 C 182.719 188.245,182.456 188.356,182.264 189.026 C 182.136 189.476,181.926 190.213,181.797 190.664 C 181.596 191.368,181.686 191.445,182.432 191.208 C 182.909 191.056,183.498 190.896,183.740 190.852 C 184.997 190.624,185.896 190.134,186.156 189.536 C 186.440 188.880,186.711 187.864,186.587 187.918 C 186.552 187.933,186.172 188.096,185.742 188.280 M210.840 192.829 C 209.675 193.661,209.375 194.128,209.375 195.114 C 209.375 196.553,209.666 196.978,210.296 196.461 C 210.541 196.259,211.151 195.783,211.650 195.403 C 212.371 194.854,212.532 194.409,212.431 193.247 L 212.305 191.783 210.840 192.829 M183.105 193.000 C 182.729 193.219,182.422 193.295,182.422 193.170 C 182.422 193.044,182.055 193.137,181.607 193.377 C 181.159 193.617,180.889 193.910,181.007 194.028 C 181.126 194.147,181.057 194.553,180.854 194.932 C 180.378 195.821,181.087 196.437,182.487 196.352 C 183.059 196.317,183.456 196.217,183.368 196.129 C 183.280 196.041,183.538 195.737,183.941 195.455 C 185.743 194.193,184.967 191.916,183.105 193.000 M210.996 197.659 C 209.919 198.439,209.377 199.127,209.380 199.709 C 209.406 203.864,212.455 202.901,212.810 198.627 C 213.018 196.119,213.078 196.151,210.996 197.659 M183.361 197.949 C 180.788 199.420,180.798 199.406,180.929 200.984 C 181.040 202.312,181.124 202.425,181.641 201.929 C 181.963 201.620,182.693 201.127,183.264 200.832 C 184.053 200.426,185.214 197.266,184.575 197.266 C 184.566 197.266,184.020 197.573,183.361 197.949 M182.993 202.320 C 183.093 202.482,182.654 203.114,182.017 203.725 C 181.198 204.510,180.883 205.156,180.942 205.933 C 181.036 207.173,181.323 207.293,182.171 206.445 C 182.493 206.123,182.870 205.859,183.008 205.859 C 184.237 205.859,184.720 202.525,183.536 202.215 C 183.137 202.111,182.893 202.158,182.993 202.320 M211.914 203.340 C 210.075 204.282,208.723 207.422,210.156 207.422 C 210.371 207.422,210.547 207.246,210.547 207.031 C 210.547 206.816,210.733 206.641,210.961 206.641 C 211.188 206.641,211.249 206.844,211.096 207.092 C 210.921 207.373,210.989 207.436,211.274 207.260 C 211.526 207.104,211.636 206.822,211.519 206.633 C 211.402 206.444,211.643 206.109,212.055 205.889 C 212.583 205.606,213.558 202.680,213.105 202.737 C 213.095 202.738,212.559 203.009,211.914 203.340 M183.104 207.631 C 182.533 208.160,181.875 208.594,181.643 208.594 C 181.168 208.594,181.456 212.081,181.974 212.599 C 182.145 212.770,182.606 212.553,182.999 212.119 C 183.393 211.684,183.925 211.328,184.182 211.328 C 184.573 211.328,184.618 207.144,184.231 206.757 C 184.182 206.708,183.675 207.101,183.104 207.631 M211.936 207.848 C 212.036 208.010,211.625 208.495,211.021 208.925 C 209.946 209.690,209.898 209.882,210.106 212.563 C 210.184 213.566,211.347 213.166,212.552 211.723 C 213.460 210.635,213.564 210.294,213.197 209.607 C 212.956 209.157,212.788 208.745,212.825 208.691 C 213.104 208.278,212.784 207.552,212.322 207.552 C 212.009 207.552,211.835 207.685,211.936 207.848 M184.520 212.376 C 184.672 212.648,184.293 213.126,183.601 213.535 C 182.952 213.918,182.404 214.325,182.383 214.440 C 182.316 214.791,182.308 216.541,182.366 217.711 L 182.422 218.819 183.624 217.808 C 184.285 217.252,184.957 216.797,185.117 216.797 C 185.576 216.797,185.211 212.785,184.710 212.326 C 184.389 212.032,184.335 212.046,184.520 212.376 M212.514 213.255 C 212.292 213.670,211.796 214.109,211.412 214.231 C 210.908 214.391,210.695 214.894,210.650 216.036 C 210.568 218.089,211.471 218.531,212.738 217.058 C 213.231 216.485,213.841 216.016,214.093 216.016 C 214.397 216.016,214.469 215.607,214.307 214.795 C 214.172 214.124,214.063 213.333,214.063 213.037 C 214.063 212.236,212.978 212.389,212.514 213.255 M213.400 218.493 C 213.004 218.996,212.273 219.625,211.776 219.891 C 211.278 220.158,210.967 220.473,211.086 220.591 C 211.204 220.709,211.125 221.134,210.910 221.536 C 210.639 222.042,210.650 222.266,210.947 222.266 C 211.182 222.266,211.272 222.431,211.147 222.633 C 211.023 222.834,211.264 222.974,211.683 222.942 C 212.103 222.911,212.341 222.716,212.214 222.509 C 212.079 222.291,212.263 222.241,212.652 222.390 C 213.025 222.534,213.223 222.487,213.098 222.285 C 212.975 222.086,213.186 221.749,213.566 221.536 C 214.068 221.255,214.260 220.659,214.267 219.363 C 214.278 217.279,214.321 217.322,213.400 218.493 M184.689 219.327 C 184.110 219.828,183.299 220.475,182.887 220.764 C 182.335 221.150,182.185 221.612,182.317 222.511 L 182.497 223.733 184.034 222.727 C 185.576 221.717,186.115 220.686,185.872 219.208 C 185.745 218.433,185.719 218.435,184.689 219.327 M213.382 223.337 C 212.971 223.747,212.341 224.196,211.982 224.334 C 211.237 224.620,211.015 228.125,211.742 228.125 C 211.969 228.125,212.054 228.289,211.931 228.489 C 211.807 228.689,211.929 228.980,212.201 229.137 C 212.473 229.294,212.575 229.288,212.427 229.124 C 212.280 228.960,212.552 228.448,213.032 227.987 C 213.513 227.526,213.589 227.395,213.203 227.697 C 212.816 227.999,212.501 228.087,212.501 227.893 C 212.502 227.698,213.014 227.196,213.639 226.778 C 214.634 226.111,214.756 225.824,214.622 224.474 C 214.429 222.534,214.301 222.417,213.382 223.337 M184.304 224.581 C 183.738 225.026,183.085 225.391,182.853 225.391 C 182.621 225.391,182.322 226.074,182.188 226.910 C 182.015 227.992,181.679 228.551,181.019 228.851 C 180.202 229.224,180.020 230.513,180.799 230.410 C 181.920 230.262,183.208 230.536,182.996 230.878 C 182.857 231.103,182.451 231.259,182.094 231.224 C 180.934 231.110,180.469 231.242,180.469 231.684 C 180.469 231.986,181.211 232.032,182.910 231.836 C 184.253 231.681,185.571 231.544,185.840 231.532 C 186.542 231.501,186.441 230.964,185.645 230.500 C 184.993 230.121,184.993 230.101,185.645 230.090 C 186.415 230.077,186.569 228.913,185.890 228.234 C 185.649 227.993,185.214 227.887,184.924 227.998 C 184.500 228.160,184.517 227.849,185.006 226.411 C 185.799 224.084,185.599 223.563,184.304 224.581 M213.109 228.906 C 212.477 229.525,211.840 229.958,211.694 229.868 C 211.461 229.723,210.954 231.864,210.942 233.043 C 210.939 233.277,211.407 233.682,211.980 233.943 C 212.863 234.346,212.953 234.335,212.569 233.872 C 212.010 233.199,212.356 232.788,213.222 233.097 C 213.577 233.224,213.736 233.184,213.577 233.007 C 213.417 232.831,213.637 232.442,214.065 232.142 C 214.664 231.722,214.844 231.151,214.844 229.665 C 214.844 227.441,214.677 227.368,213.109 228.906 M185.239 228.576 C 184.687 229.102,182.813 229.109,182.813 228.586 C 182.813 228.409,183.421 228.275,184.165 228.288 C 184.909 228.301,185.392 228.430,185.239 228.576 M181.041 233.203 C 181.201 234.317,187.109 234.160,187.109 233.042 C 187.109 232.653,186.346 232.537,184.033 232.571 C 181.539 232.609,180.973 232.728,181.041 233.203 M212.945 234.388 C 212.438 234.811,211.768 235.156,211.457 235.156 C 211.146 235.156,210.998 235.328,211.128 235.539 C 211.258 235.749,211.169 236.286,210.930 236.732 C 210.280 237.948,210.616 238.337,211.789 237.728 C 212.364 237.429,212.936 237.285,213.058 237.407 C 213.181 237.530,213.281 237.415,213.281 237.151 C 213.281 236.888,213.484 236.798,213.732 236.951 C 213.994 237.113,214.078 237.060,213.932 236.823 C 213.794 236.600,213.942 236.199,214.262 235.934 C 214.967 235.349,215.038 233.589,214.355 233.607 C 214.087 233.614,213.452 233.965,212.945 234.388 M212.981 238.851 C 212.332 239.397,211.626 239.844,211.411 239.844 C 210.900 239.844,210.649 240.572,210.713 241.864 C 210.742 242.439,210.628 242.824,210.461 242.720 C 210.293 242.617,210.156 242.718,210.156 242.946 C 210.156 243.173,210.771 243.359,211.523 243.359 C 212.305 243.359,212.891 243.164,212.891 242.904 C 212.891 242.653,213.002 242.559,213.137 242.695 C 213.874 243.431,214.651 242.167,214.623 240.277 C 214.587 237.771,214.428 237.633,212.981 238.851 M211.763 243.648 C 209.577 243.842,208.711 244.593,209.623 245.505 C 210.100 245.982,210.150 246.257,209.819 246.588 C 208.877 247.529,209.405 247.851,211.816 247.808 C 213.159 247.785,214.594 247.623,215.005 247.449 C 215.589 247.202,215.683 247.255,215.431 247.688 C 215.254 247.993,215.259 248.106,215.443 247.938 C 216.009 247.423,215.978 246.484,215.395 246.484 C 215.092 246.484,214.844 246.314,214.844 246.106 C 214.844 245.898,214.536 245.829,214.160 245.952 C 213.784 246.075,213.946 245.847,214.519 245.445 C 215.670 244.638,215.418 243.296,214.141 243.428 C 213.775 243.465,212.706 243.564,211.763 243.648 M215.616 248.419 C 215.289 248.611,213.727 248.725,212.145 248.673 C 209.308 248.580,209.281 248.588,210.146 249.289 C 211.644 250.502,215.781 250.159,216.138 248.792 C 216.245 248.382,216.306 248.052,216.272 248.059 C 216.238 248.065,215.943 248.227,215.616 248.419 M237.317 254.590 C 238.181 255.396,239.567 256.582,240.397 257.227 C 241.944 258.427,243.923 260.091,245.584 261.585 C 246.099 262.048,247.194 262.977,248.018 263.648 C 248.841 264.320,250.124 265.434,250.869 266.126 C 251.613 266.817,252.807 267.822,253.523 268.359 C 256.355 270.484,256.336 270.627,252.863 273.373 C 251.757 274.247,250.616 275.294,250.328 275.700 C 249.817 276.421,248.259 277.431,247.444 277.572 C 247.219 277.610,246.218 278.014,245.219 278.469 C 244.220 278.924,243.139 279.297,242.818 279.297 C 242.497 279.297,242.123 279.476,241.988 279.694 C 241.853 279.912,241.591 279.997,241.406 279.883 C 241.221 279.768,240.959 279.853,240.824 280.072 C 240.689 280.290,240.282 280.470,239.918 280.471 C 239.555 280.472,238.754 280.736,238.139 281.057 C 237.524 281.378,236.820 281.642,236.576 281.643 C 236.332 281.644,235.682 281.881,235.130 282.169 C 234.579 282.456,233.612 282.820,232.982 282.978 C 232.352 283.135,231.309 283.495,230.664 283.777 C 229.145 284.444,227.996 284.885,227.669 284.927 C 227.526 284.946,227.277 285.093,227.116 285.254 C 226.955 285.415,226.545 285.548,226.204 285.549 C 225.864 285.551,225.082 285.814,224.467 286.135 C 223.852 286.456,223.149 286.720,222.905 286.721 C 222.661 286.722,221.989 286.970,221.413 287.270 C 220.837 287.571,219.828 287.935,219.171 288.079 C 218.515 288.223,217.877 288.504,217.755 288.702 C 217.632 288.900,217.261 289.063,216.931 289.063 C 216.600 289.063,215.775 289.311,215.098 289.615 C 214.017 290.100,211.484 290.981,210.352 291.267 C 208.679 291.688,207.516 291.895,206.941 291.873 C 206.570 291.858,206.168 292.004,206.050 292.195 C 205.931 292.387,205.574 292.444,205.256 292.322 C 204.938 292.200,204.416 292.317,204.097 292.582 C 203.230 293.301,203.395 292.826,204.395 291.720 C 204.878 291.185,205.801 290.098,206.445 289.305 C 207.090 288.511,208.020 287.395,208.512 286.825 C 209.004 286.255,209.883 285.187,210.465 284.452 C 211.047 283.717,211.787 282.800,212.109 282.415 C 212.664 281.753,213.935 280.188,215.234 278.569 C 215.557 278.167,216.260 277.264,216.797 276.563 C 217.334 275.861,218.037 274.982,218.359 274.609 C 218.682 274.237,219.379 273.366,219.909 272.674 C 220.439 271.981,221.230 271.014,221.667 270.524 C 222.104 270.034,222.802 269.159,223.218 268.581 C 223.634 268.002,224.249 267.212,224.585 266.824 C 224.921 266.437,225.635 265.546,226.172 264.844 C 226.709 264.142,227.423 263.251,227.759 262.863 C 228.094 262.476,228.710 261.685,229.126 261.107 C 229.542 260.528,230.250 259.643,230.699 259.139 C 231.148 258.636,231.851 257.758,232.262 257.188 C 232.672 256.618,233.491 255.607,234.082 254.942 C 234.673 254.277,235.156 253.596,235.156 253.429 C 235.156 252.821,235.779 253.155,237.317 254.590 M169.865 259.087 C 170.298 259.788,171.060 260.733,171.557 261.187 C 172.054 261.641,173.516 263.207,174.805 264.668 C 176.094 266.129,177.588 267.802,178.125 268.386 C 178.662 268.970,179.980 270.467,181.055 271.712 C 182.916 273.869,184.975 276.196,187.109 278.556 C 187.646 279.150,189.053 280.727,190.234 282.062 C 191.416 283.396,193.071 285.210,193.912 286.092 C 194.753 286.974,195.763 288.223,196.157 288.867 C 196.550 289.512,196.873 289.904,196.874 289.740 C 196.874 289.575,197.395 290.015,198.030 290.716 C 199.098 291.896,198.817 293.491,197.668 292.780 C 197.522 292.691,196.186 292.501,194.698 292.359 C 193.210 292.218,191.377 292.043,190.625 291.972 C 189.873 291.900,187.803 291.735,186.026 291.604 C 183.205 291.396,182.329 291.133,179.144 289.531 C 177.136 288.521,172.737 286.336,169.367 284.675 C 165.997 283.014,163.012 281.432,162.734 281.160 C 162.455 280.887,160.399 279.785,158.165 278.711 C 155.930 277.637,154.043 276.625,153.971 276.462 C 153.898 276.300,153.679 276.266,153.482 276.388 C 152.547 276.966,153.286 275.498,154.590 274.190 C 155.396 273.381,156.582 272.085,157.227 271.311 C 157.871 270.536,158.886 269.335,159.482 268.642 C 160.077 267.950,160.922 266.943,161.358 266.406 C 161.794 265.869,162.624 264.886,163.204 264.221 C 163.784 263.557,164.752 262.414,165.356 261.682 C 169.064 257.189,168.789 257.347,169.865 259.087 "
              stroke="none" fill="#5c7454" fill-rule="evenodd"></path>
        <path id="path1"
              d="M232.903 203.125 C 232.903 203.877,232.984 204.185,233.082 203.809 C 233.180 203.433,233.180 202.817,233.082 202.441 C 232.984 202.065,232.903 202.373,232.903 203.125 "
              stroke="none" fill="#64735a" fill-rule="evenodd"></path>
        <path id="path2" d="" stroke="none" fill="#6c7464" fill-rule="evenodd"></path>
        <path id="path3"
              d="M228.302 162.598 L 226.758 164.258 228.418 162.714 C 229.962 161.278,230.258 160.938,229.962 160.938 C 229.898 160.938,229.151 161.685,228.302 162.598 "
              stroke="none" fill="#647264" fill-rule="evenodd"></path>
        <path id="path4" d="" stroke="none" fill="#5c7858" fill-rule="evenodd"></path>
    </g>
</svg>